<svg xmlns="http://www.w3.org/2000/svg" viewBox="0 0 263.66 44"><defs><style>.cls-1,.cls-2{fill:#fff;}.cls-2{fill-rule:evenodd;}</style></defs><title>Asset 1</title><g id="Layer_2" data-name="Layer 2"><g id="Layer_1-2" data-name="Layer 1"><path class="cls-1" d="M110.8,28.79h4.9a4.51,4.51,0,0,1,3.24,1.14,3.15,3.15,0,0,1,.88,2.25v0a3.34,3.34,0,0,1-3.09,3.33l3.5,4.65h-1.58l-3.31-4.43h-3.25v4.43H110.8Zm4.79,5.82c1.71,0,2.93-.88,2.93-2.35v0c0-1.4-1.07-2.25-2.91-2.25h-3.52v4.63Z"/><path class="cls-1" d="M121.44,36v0a4.16,4.16,0,0,1,4-4.39c2.49,0,3.92,2,3.92,4.45,0,.16,0,.26,0,.41h-6.68a2.94,2.94,0,0,0,3,2.85,3.49,3.49,0,0,0,2.66-1.19l.78.7a4.36,4.36,0,0,1-3.47,1.58A4.19,4.19,0,0,1,121.44,36Zm6.69-.49c-.13-1.53-1-2.87-2.69-2.87a2.9,2.9,0,0,0-2.73,2.87Z"/><path class="cls-1" d="M131.1,41.66l.57-1a5.37,5.37,0,0,0,3.24,1.08,2.77,2.77,0,0,0,3.06-3v-1a4,4,0,0,1-3.3,1.77,3.89,3.89,0,0,1-4-3.94v0A4,4,0,0,1,138,33.29V31.77h1.26v7a4,4,0,0,1-1.08,3,4.41,4.41,0,0,1-3.2,1.12A6.59,6.59,0,0,1,131.1,41.66Zm6.9-6.08v0a3,3,0,0,0-3.09-2.85A2.79,2.79,0,0,0,132,35.54v0a2.85,2.85,0,0,0,2.92,2.86A3,3,0,0,0,138,35.58Z"/><path class="cls-1" d="M141.64,28.55h1.43v1.38h-1.43Zm.08,3.22H143v8.42h-1.25Z"/><path class="cls-1" d="M144.78,39.12l.64-.9a4.88,4.88,0,0,0,2.91,1.08c1,0,1.74-.52,1.74-1.34v0c0-.85-1-1.17-2.1-1.48-1.32-.38-2.78-.83-2.78-2.38v0c0-1.45,1.2-2.41,2.87-2.41a5.73,5.73,0,0,1,3,.93l-.57.94a4.77,4.77,0,0,0-2.49-.81c-1,0-1.63.52-1.63,1.22v0c0,.8,1.05,1.11,2.17,1.45,1.3.39,2.7.9,2.7,2.41v0c0,1.6-1.32,2.53-3,2.53A5.84,5.84,0,0,1,144.78,39.12Z"/><path class="cls-1" d="M153.63,38V32.88h-1.18V31.77h1.18V29.23h1.25v2.54h2.67v1.11h-2.67V37.8a1.24,1.24,0,0,0,1.42,1.4,2.66,2.66,0,0,0,1.22-.29V40a3.13,3.13,0,0,1-1.52.36A2.14,2.14,0,0,1,153.63,38Z"/><path class="cls-1" d="M159.36,31.77h1.26V34a3.58,3.58,0,0,1,3.43-2.34V33H164c-1.84,0-3.33,1.32-3.33,3.86v3.35h-1.26Z"/><path class="cls-1" d="M164.92,37.75v0c0-1.78,1.46-2.72,3.6-2.72a9,9,0,0,1,2.59.36v-.3c0-1.51-.93-2.29-2.51-2.29a5.83,5.83,0,0,0-2.56.62l-.37-1a7,7,0,0,1,3.06-.7,3.69,3.69,0,0,1,2.72.93,3.32,3.32,0,0,1,.86,2.46v5.14h-1.2V38.92a3.7,3.7,0,0,1-3.05,1.45C166.5,40.37,164.92,39.48,164.92,37.75Zm6.2-.65v-.81a8.74,8.74,0,0,0-2.47-.36c-1.58,0-2.46.68-2.46,1.74v0c0,1.06,1,1.68,2.11,1.68C169.85,39.38,171.12,38.43,171.12,37.1Z"/><path class="cls-1" d="M175,38V32.88h-1.18V31.77H175V29.23h1.25v2.54h2.67v1.11h-2.67V37.8a1.24,1.24,0,0,0,1.42,1.4,2.66,2.66,0,0,0,1.22-.29V40a3.13,3.13,0,0,1-1.52.36A2.14,2.14,0,0,1,175,38Z"/><path class="cls-1" d="M180.78,28.55h1.44v1.38h-1.44Zm.08,3.22h1.26v8.42h-1.26Z"/><path class="cls-1" d="M184.11,36v0a4.39,4.39,0,0,1,8.77,0v0a4.37,4.37,0,0,1-4.41,4.4A4.32,4.32,0,0,1,184.11,36Zm7.49,0v0a3.18,3.18,0,0,0-3.13-3.29A3.11,3.11,0,0,0,185.39,36v0a3.17,3.17,0,0,0,3.11,3.28A3.11,3.11,0,0,0,191.6,36Z"/><path class="cls-1" d="M194.74,31.77H196v1.47a3.19,3.19,0,0,1,2.88-1.65A3.08,3.08,0,0,1,202.1,35v5.22h-1.25V35.28a2.25,2.25,0,0,0-2.33-2.55A2.47,2.47,0,0,0,196,35.37v4.82h-1.26Z"/><path class="cls-1" d="M208.31,38.53l.8-.94A5.45,5.45,0,0,0,213,39.2c1.53,0,2.54-.81,2.54-1.94v0c0-1.06-.57-1.66-3-2.17-2.63-.57-3.83-1.41-3.83-3.29v0c0-1.79,1.58-3.11,3.74-3.11a6,6,0,0,1,4,1.4l-.75,1a5,5,0,0,0-3.29-1.23c-1.48,0-2.43.81-2.43,1.84v0c0,1.07.59,1.68,3.1,2.21s3.71,1.49,3.71,3.23v0c0,2-1.63,3.23-3.89,3.23A6.69,6.69,0,0,1,208.31,38.53Z"/><path class="cls-1" d="M218.35,36v0a4.16,4.16,0,0,1,4-4.39c2.49,0,3.92,2,3.92,4.45a2.75,2.75,0,0,1,0,.41h-6.67a2.94,2.94,0,0,0,3,2.85,3.49,3.49,0,0,0,2.66-1.19l.78.7a4.38,4.38,0,0,1-3.47,1.58A4.19,4.19,0,0,1,218.35,36Zm6.69-.49c-.13-1.53-1-2.87-2.69-2.87a2.9,2.9,0,0,0-2.73,2.87Z"/><path class="cls-1" d="M228.1,31.77h1.26V34a3.59,3.59,0,0,1,3.43-2.34V33h-.09c-1.84,0-3.34,1.32-3.34,3.86v3.35H228.1Z"/><path class="cls-1" d="M233.46,31.77h1.39l2.83,7,2.85-7h1.35l-3.66,8.49h-1.11Z"/><path class="cls-1" d="M243.48,28.55h1.43v1.38h-1.43Zm.08,3.22h1.26v8.42h-1.26Z"/><path class="cls-1" d="M246.81,36v0a4.38,4.38,0,0,1,7.68-2.9l-.83.88a3.41,3.41,0,0,0-2.55-1.27,3.11,3.11,0,0,0-3,3.26v0a3.15,3.15,0,0,0,3.1,3.28A3.47,3.47,0,0,0,253.76,38l.8.75A4.35,4.35,0,0,1,246.81,36Z"/><path class="cls-1" d="M255.7,36v0a4.16,4.16,0,0,1,4-4.39c2.49,0,3.92,2,3.92,4.45,0,.16,0,.26,0,.41H257a3,3,0,0,0,3,2.85,3.49,3.49,0,0,0,2.66-1.19l.78.7a4.36,4.36,0,0,1-3.47,1.58A4.19,4.19,0,0,1,255.7,36Zm6.69-.49c-.13-1.53-1-2.87-2.68-2.87A2.9,2.9,0,0,0,257,35.52Z"/><g id="Business"><path class="cls-1" d="M110.49,1.81h9.4a7.58,7.58,0,0,1,5.49,1.85,4.7,4.7,0,0,1,1.4,3.48V7.2a5,5,0,0,1-3,4.67c2.46.84,4.16,2.24,4.16,5.09V17c0,3.74-3.08,5.75-7.75,5.75h-9.71ZM123.1,7.74c0-1.65-1.32-2.67-3.68-2.67h-5.3v5.57h5c2.37,0,4-.93,4-2.84Zm-3.15,6h-5.83v5.75h6.11c2.51,0,4-1,4-2.88v-.06c0-1.77-1.41-2.81-4.32-2.81"/><path class="cls-1" d="M130.62,17V7h3.62v9c0,2.46,1.23,3.84,3.39,3.84s3.56-1.44,3.56-3.9V7h3.66V22.77h-3.66V20.32a5.7,5.7,0,0,1-4.94,2.78c-3.56,0-5.63-2.4-5.63-6.08"/><path class="cls-1" d="M147.18,20.7l1.62-2.45A9,9,0,0,0,154,20.2c1.56,0,2.46-.66,2.46-1.71v-.06c0-1.23-1.68-1.65-3.53-2.22-2.34-.66-4.95-1.61-4.95-4.64v-.06c0-3,2.49-4.82,5.63-4.82a10.89,10.89,0,0,1,5.82,1.8L158,11.06a9.13,9.13,0,0,0-4.46-1.5c-1.41,0-2.21.66-2.21,1.56v.06c0,1.17,1.7,1.64,3.56,2.25,2.31.72,4.91,1.76,4.91,4.61v.06c0,3.32-2.57,5-5.87,5a11.12,11.12,0,0,1-6.71-2.37"/><path class="cls-1" d="M162.64,1.09h3.89V4.53h-3.89ZM162.79,7h3.62V22.77h-3.62Z"/><path class="cls-1" d="M170.25,7h3.62V9.38a5.73,5.73,0,0,1,4.94-2.75c3.57,0,5.63,2.39,5.63,6.05V22.77h-3.62v-9c0-2.46-1.23-3.87-3.38-3.87s-3.57,1.47-3.57,3.93v8.92h-3.62Z"/><path class="cls-1" d="M187.05,14.93v-.07c0-4.52,3.21-8.23,7.73-8.23,5,0,7.58,4,7.58,8.5,0,.33,0,.66-.06,1H190.68a4.41,4.41,0,0,0,4.55,4,5.75,5.75,0,0,0,4.28-1.89l2.13,1.89a8,8,0,0,1-6.47,3,7.88,7.88,0,0,1-8.12-8.2m11.71-1.17c-.24-2.34-1.61-4.17-4-4.17-2.22,0-3.77,1.71-4.1,4.17Z"/><path class="cls-1" d="M203.82,20.7l1.62-2.45a8.93,8.93,0,0,0,5.18,1.95c1.56,0,2.46-.66,2.46-1.71v-.06c0-1.23-1.68-1.65-3.54-2.22-2.33-.66-4.94-1.61-4.94-4.64v-.06c0-3,2.49-4.82,5.63-4.82A10.83,10.83,0,0,1,216,8.49l-1.43,2.57a9.19,9.19,0,0,0-4.47-1.5c-1.4,0-2.21.66-2.21,1.56v.06c0,1.17,1.71,1.64,3.56,2.25,2.31.72,4.91,1.76,4.91,4.61v.06c0,3.32-2.57,5-5.87,5a11.1,11.1,0,0,1-6.71-2.37"/><path class="cls-1" d="M217.93,20.7l1.62-2.45a9,9,0,0,0,5.18,1.95c1.56,0,2.46-.66,2.46-1.71v-.06c0-1.23-1.68-1.65-3.54-2.22-2.34-.66-4.94-1.61-4.94-4.64v-.06c0-3,2.49-4.82,5.63-4.82a10.83,10.83,0,0,1,5.81,1.8l-1.44,2.57a9.13,9.13,0,0,0-4.46-1.5c-1.41,0-2.21.66-2.21,1.56v.06c0,1.17,1.7,1.64,3.56,2.25,2.31.72,4.91,1.76,4.91,4.61v.06c0,3.32-2.57,5-5.87,5a11.1,11.1,0,0,1-6.71-2.37"/></g><path class="cls-2" d="M3.78,40.83H1.61l-.25.6a1.19,1.19,0,0,0-.13.49.39.39,0,0,0,.21.38,1.82,1.82,0,0,0,.6.11v.17H0v-.17a1,1,0,0,0,.54-.27,4,4,0,0,0,.53-.93l2.18-4.88h.09l2.2,5a3.07,3.07,0,0,0,.53.89.68.68,0,0,0,.43.17v.17h-3v-.17h.12a.88.88,0,0,0,.5-.11.21.21,0,0,0,.1-.2.51.51,0,0,0,0-.17,2.69,2.69,0,0,0-.13-.34Zm-.16-.33-.91-2.11L1.77,40.5Z"/><path class="cls-1" d="M10.25,38.35v3.31a1.21,1.21,0,0,0,.09.6.51.51,0,0,0,.36.15v.17H9V42a2.2,2.2,0,0,1-.6.53,1.48,1.48,0,0,1-.68.16,1,1,0,0,1-.63-.22A1,1,0,0,1,6.7,42a3.92,3.92,0,0,1-.1-1V39.27a1.21,1.21,0,0,0-.09-.6.53.53,0,0,0-.36-.15v-.17H7.87v2.89a2.37,2.37,0,0,0,0,.58A.41.41,0,0,0,8,42a.43.43,0,0,0,.22.06A.49.49,0,0,0,8.55,42,1.85,1.85,0,0,0,9,41.53V39.27a1.4,1.4,0,0,0-.08-.6.56.56,0,0,0-.37-.15v-.17Z"/><path class="cls-1" d="M13.66,38.24l.07,1.43h-.16A2.25,2.25,0,0,0,13,38.8a.94.94,0,0,0-.59-.24.44.44,0,0,0-.31.13A.37.37,0,0,0,12,39a.35.35,0,0,0,.09.23,4.14,4.14,0,0,0,.8.64,3.26,3.26,0,0,1,.88.76,1.23,1.23,0,0,1,.21.7,1.48,1.48,0,0,1-.18.69,1.2,1.2,0,0,1-.5.52,1.4,1.4,0,0,1-.7.18,2.35,2.35,0,0,1-.81-.19.76.76,0,0,0-.19,0c-.09,0-.18.07-.24.23h-.15l-.08-1.52h.16a1.89,1.89,0,0,0,.55.89,1.08,1.08,0,0,0,.68.3.48.48,0,0,0,.35-.13A.44.44,0,0,0,13,41.9a.54.54,0,0,0-.13-.37,4.25,4.25,0,0,0-.6-.48,5,5,0,0,1-.9-.73,1.31,1.31,0,0,1,0-1.69,1.2,1.2,0,0,1,1-.4,1.35,1.35,0,0,1,.66.17.45.45,0,0,0,.19.06.29.29,0,0,0,.14,0,1,1,0,0,0,.15-.19Z"/><path class="cls-1" d="M15.89,36.81v1.54h1v.45h-1v2.6a2.36,2.36,0,0,0,0,.48.52.52,0,0,0,.12.17.32.32,0,0,0,.16.06c.2,0,.39-.15.56-.45l.14.1a1.24,1.24,0,0,1-1.19.87,1,1,0,0,1-.68-.22,1,1,0,0,1-.36-.5,4.44,4.44,0,0,1,0-.83V38.8h-.55v-.16a5.77,5.77,0,0,0,1-.84,5,5,0,0,0,.7-1Z"/><path class="cls-1" d="M19,38.35v1a3.16,3.16,0,0,1,.74-.87,1.09,1.09,0,0,1,.61-.21.51.51,0,0,1,.4.16.58.58,0,0,1,.15.43.73.73,0,0,1-.14.47.48.48,0,0,1-.36.17.59.59,0,0,1-.41-.15l-.21-.18-.1,0a.36.36,0,0,0-.25.1.83.83,0,0,0-.28.43,3,3,0,0,0-.15,1v1.22a1.11,1.11,0,0,0,0,.33.4.4,0,0,0,.16.18.9.9,0,0,0,.36.07v.17H17.23v-.17a.46.46,0,0,0,.37-.15,1.33,1.33,0,0,0,.1-.68V39.25a1.44,1.44,0,0,0,0-.46.34.34,0,0,0-.13-.19.6.6,0,0,0-.3-.08v-.17Z"/><path class="cls-2" d="M23.17,42a2.17,2.17,0,0,1-1.39.68.82.82,0,0,1-.59-.23.81.81,0,0,1-.24-.6,1.15,1.15,0,0,1,.41-.86,7.54,7.54,0,0,1,1.81-1v-.43a2.23,2.23,0,0,0-.05-.6.51.51,0,0,0-.2-.22.57.57,0,0,0-.32-.09.8.8,0,0,0-.48.13.23.23,0,0,0-.12.19.41.41,0,0,0,.13.24.59.59,0,0,1,.17.37.53.53,0,0,1-.17.38.61.61,0,0,1-.43.15.67.67,0,0,1-.48-.17.54.54,0,0,1-.19-.4.94.94,0,0,1,.26-.62,1.54,1.54,0,0,1,.72-.45,2.75,2.75,0,0,1,.95-.16,1.58,1.58,0,0,1,.95.25,1.18,1.18,0,0,1,.46.56,3.68,3.68,0,0,1,.06.87v1.63a2.3,2.3,0,0,0,0,.37.3.3,0,0,0,.07.11.19.19,0,0,0,.1,0,.31.31,0,0,0,.24-.16L25,42a1.66,1.66,0,0,1-.47.48,1,1,0,0,1-.55.15.87.87,0,0,1-.56-.16.78.78,0,0,1-.25-.52m0-.33V40.21a2.7,2.7,0,0,0-.81.68.81.81,0,0,0-.17.49.55.55,0,0,0,.14.37.42.42,0,0,0,.32.12.85.85,0,0,0,.52-.25"/><path class="cls-1" d="M26.84,36.46V41.7a1,1,0,0,0,.1.57.58.58,0,0,0,.41.14v.17H25.07v-.17a.52.52,0,0,0,.41-.16c.07-.07.09-.25.09-.55V37.33a1,1,0,0,0-.1-.57.55.55,0,0,0-.4-.14v-.16Z"/><path class="cls-2" d="M28.77,36.31a.69.69,0,0,1,.5.21.68.68,0,0,1,.2.49.65.65,0,0,1-.21.49.64.64,0,0,1-.49.2.69.69,0,0,1-.49-1.18.67.67,0,0,1,.49-.21m.63,2V41.7a1,1,0,0,0,.11.57.55.55,0,0,0,.4.14v.17H27.63v-.17a.58.58,0,0,0,.42-.16,1,1,0,0,0,.09-.55V39.23a1,1,0,0,0-.11-.57.54.54,0,0,0-.4-.14v-.17Z"/><path class="cls-2" d="M32.37,42a2.17,2.17,0,0,1-1.38.68.85.85,0,0,1-.6-.23.81.81,0,0,1-.24-.6,1.15,1.15,0,0,1,.41-.86,7.54,7.54,0,0,1,1.81-1v-.43a2.23,2.23,0,0,0,0-.6.51.51,0,0,0-.2-.22.57.57,0,0,0-.32-.09.78.78,0,0,0-.48.13.23.23,0,0,0-.12.19.41.41,0,0,0,.13.24.59.59,0,0,1,.17.37.53.53,0,0,1-.17.38.61.61,0,0,1-.43.15.63.63,0,0,1-.47-.17.52.52,0,0,1-.2-.4.94.94,0,0,1,.26-.62,1.54,1.54,0,0,1,.72-.45,2.8,2.8,0,0,1,1-.16,1.54,1.54,0,0,1,.94.25,1.18,1.18,0,0,1,.46.56,3.68,3.68,0,0,1,.06.87v1.63a1.31,1.31,0,0,0,0,.37.2.2,0,0,0,.06.11.19.19,0,0,0,.1,0c.09,0,.16,0,.24-.16l.14.11a1.66,1.66,0,0,1-.47.48,1,1,0,0,1-.55.15.87.87,0,0,1-.56-.16.83.83,0,0,1-.25-.52m0-.33V40.21a2.7,2.7,0,0,0-.81.68.82.82,0,0,0-.18.49.56.56,0,0,0,.15.37.42.42,0,0,0,.32.12.85.85,0,0,0,.52-.25"/><path class="cls-1" d="M36,38.35v.55a2.45,2.45,0,0,1,.62-.51,1.29,1.29,0,0,1,.64-.16,1,1,0,0,1,.68.23,1.11,1.11,0,0,1,.37.56,5,5,0,0,1,.07,1v1.64a1.42,1.42,0,0,0,.08.61.51.51,0,0,0,.37.15v.17H36.72v-.17a.44.44,0,0,0,.34-.2,1.21,1.21,0,0,0,.08-.56V39.77a2.66,2.66,0,0,0,0-.65.34.34,0,0,0-.14-.21.31.31,0,0,0-.21-.07c-.26,0-.5.18-.72.55v2.26a1.21,1.21,0,0,0,.09.6.41.41,0,0,0,.32.16v.17H34.3v-.17a.56.56,0,0,0,.38-.17,1.28,1.28,0,0,0,.08-.59V39.27a1.21,1.21,0,0,0-.09-.6.56.56,0,0,0-.37-.15v-.17Z"/><path class="cls-1" d="M47.16,36.31v2.16H47a2.78,2.78,0,0,0-.91-1.34,2.13,2.13,0,0,0-1.32-.47,1.73,1.73,0,0,0-1.14.39A2.1,2.1,0,0,0,43,38.13a5.18,5.18,0,0,0-.19,1.42A5.12,5.12,0,0,0,43,41.09a1.8,1.8,0,0,0,.66,1,2,2,0,0,0,1.11.31,2.35,2.35,0,0,0,.45,0,3.21,3.21,0,0,0,.48-.14V40.92a1.46,1.46,0,0,0-.05-.47.5.5,0,0,0-.21-.19.72.72,0,0,0-.37-.09h-.16V40h3v.17a1.33,1.33,0,0,0-.47.1.43.43,0,0,0-.21.23,1.45,1.45,0,0,0,0,.42v1.27a6.41,6.41,0,0,1-2.53.53,3.46,3.46,0,0,1-2.46-.86,2.82,2.82,0,0,1-.69-.87,3.07,3.07,0,0,1-.32-1.4,3.17,3.17,0,0,1,1-2.33,3.36,3.36,0,0,1,2.44-.95,5.15,5.15,0,0,1,.83.07,4.06,4.06,0,0,1,.63.21,3.5,3.5,0,0,0,.53.17.33.33,0,0,0,.24-.1.89.89,0,0,0,.2-.35Z"/><path class="cls-2" d="M50.09,38.23a2,2,0,0,1,1,.28,1.81,1.81,0,0,1,.71.81,2.58,2.58,0,0,1,.25,1.15,2.47,2.47,0,0,1-.45,1.5,1.8,1.8,0,0,1-1.52.73A1.73,1.73,0,0,1,48.64,42a2.47,2.47,0,0,1-.51-1.55,2.5,2.5,0,0,1,.52-1.58,1.72,1.72,0,0,1,1.44-.67m0,.32a.58.58,0,0,0-.4.17,1.3,1.3,0,0,0-.21.69,13.34,13.34,0,0,0,0,1.42,6.37,6.37,0,0,0,.06.9.89.89,0,0,0,.21.49.51.51,0,0,0,.37.17.53.53,0,0,0,.34-.11.72.72,0,0,0,.23-.44,9,9,0,0,0,.1-1.73,4.06,4.06,0,0,0-.09-1,.86.86,0,0,0-.25-.42.5.5,0,0,0-.31-.09"/><path class="cls-1" d="M54.07,42.7l-1.42-3.27a3.18,3.18,0,0,0-.4-.75.54.54,0,0,0-.31-.16v-.17h2.24v.17a.39.39,0,0,0-.28.08.27.27,0,0,0-.11.23,1.87,1.87,0,0,0,.2.63L54.68,41l.56-1.37a2.57,2.57,0,0,0,.24-.83.3.3,0,0,0-.1-.22.63.63,0,0,0-.37-.1v-.17H56.4v.17a.63.63,0,0,0-.33.15,2.9,2.9,0,0,0-.38.72l-1.4,3.31Z"/><path class="cls-2" d="M59.72,40.31H57.41a2.16,2.16,0,0,0,.44,1.33.94.94,0,0,0,1.24.23,2.11,2.11,0,0,0,.48-.55l.15.1a2.55,2.55,0,0,1-.76,1,1.67,1.67,0,0,1-1,.29A1.59,1.59,0,0,1,56.58,42a2.55,2.55,0,0,1-.39-1.45,2.41,2.41,0,0,1,.57-1.68,1.77,1.77,0,0,1,1.34-.62,1.42,1.42,0,0,1,1.11.53,2.41,2.41,0,0,1,.51,1.55M58.61,40a4.28,4.28,0,0,0-.08-1,.8.8,0,0,0-.25-.41.39.39,0,0,0-.25-.08.45.45,0,0,0-.38.23,2,2,0,0,0-.27,1.1V40Z"/><path class="cls-1" d="M61.72,38.35v1a3.35,3.35,0,0,1,.73-.87,1.12,1.12,0,0,1,.61-.21.54.54,0,0,1,.41.16.58.58,0,0,1,.15.43.68.68,0,0,1-.15.47.46.46,0,0,1-.35.17.59.59,0,0,1-.41-.15,1.89,1.89,0,0,0-.22-.18l-.1,0a.36.36,0,0,0-.25.1.9.9,0,0,0-.28.43,3.34,3.34,0,0,0-.14,1v1.22a1.11,1.11,0,0,0,0,.33.4.4,0,0,0,.16.18.94.94,0,0,0,.36.07v.17H60v-.17a.44.44,0,0,0,.36-.15,1.3,1.3,0,0,0,.11-.68V39.25a1.84,1.84,0,0,0,0-.46.34.34,0,0,0-.13-.19.64.64,0,0,0-.3-.08v-.17Z"/><path class="cls-1" d="M65.61,38.35v.55a2.63,2.63,0,0,1,.62-.51,1.29,1.29,0,0,1,.64-.16,1,1,0,0,1,.68.23,1.18,1.18,0,0,1,.37.56A5,5,0,0,1,68,40v1.64a1.27,1.27,0,0,0,.08.61.51.51,0,0,0,.37.15v.17H66.31v-.17a.44.44,0,0,0,.34-.2,1.26,1.26,0,0,0,.07-.56V39.77a4.12,4.12,0,0,0,0-.65.41.41,0,0,0-.15-.21.31.31,0,0,0-.21-.07c-.26,0-.5.18-.72.55v2.26a1.4,1.4,0,0,0,.08.6.47.47,0,0,0,.33.16v.17H63.89v-.17a.54.54,0,0,0,.38-.17,1.34,1.34,0,0,0,.07-.59V39.27a1.4,1.4,0,0,0-.08-.6.56.56,0,0,0-.37-.15v-.17Z"/><path class="cls-1" d="M70.5,38.35v.56a2.38,2.38,0,0,1,.64-.53,1.41,1.41,0,0,1,.65-.15,1.09,1.09,0,0,1,1.1.76,2.85,2.85,0,0,1,.7-.58,1.42,1.42,0,0,1,.69-.18,1.05,1.05,0,0,1,.69.2,1,1,0,0,1,.37.51,3.74,3.74,0,0,1,.1,1v1.73a1.23,1.23,0,0,0,.09.61.53.53,0,0,0,.36.15v.17H73.72v-.17a.45.45,0,0,0,.37-.2,1.1,1.1,0,0,0,.09-.56V39.84a3.24,3.24,0,0,0-.05-.72.53.53,0,0,0-.14-.23.37.37,0,0,0-.23-.07.69.69,0,0,0-.39.14,1.87,1.87,0,0,0-.4.43v2.26a1.37,1.37,0,0,0,.07.58.46.46,0,0,0,.4.18v.17H71.26v-.17a.46.46,0,0,0,.27-.09.34.34,0,0,0,.14-.18,2.48,2.48,0,0,0,0-.49V39.84a3.44,3.44,0,0,0,0-.72.46.46,0,0,0-.15-.23.4.4,0,0,0-.23-.08.56.56,0,0,0-.33.1,1.76,1.76,0,0,0-.45.48v2.26a1.44,1.44,0,0,0,.08.59.47.47,0,0,0,.38.17v.17H68.78v-.17a.56.56,0,0,0,.38-.17,1.28,1.28,0,0,0,.08-.59V39.27a1.17,1.17,0,0,0-.1-.6.5.5,0,0,0-.36-.15v-.17Z"/><path class="cls-2" d="M79.65,40.31H77.33a2.23,2.23,0,0,0,.45,1.33,1,1,0,0,0,.75.37.91.91,0,0,0,.49-.14,2.11,2.11,0,0,0,.48-.55l.15.1a2.55,2.55,0,0,1-.76,1,1.63,1.63,0,0,1-1,.29A1.6,1.6,0,0,1,76.51,42a2.55,2.55,0,0,1-.39-1.45,2.41,2.41,0,0,1,.57-1.68A1.78,1.78,0,0,1,78,38.23a1.41,1.41,0,0,1,1.11.53,2.35,2.35,0,0,1,.51,1.55M78.54,40a3.78,3.78,0,0,0-.08-1,.79.79,0,0,0-.24-.41.42.42,0,0,0-.26-.08.44.44,0,0,0-.38.23,2,2,0,0,0-.27,1.1V40Z"/><path class="cls-1" d="M81.53,38.35v.55a2.47,2.47,0,0,1,.63-.51,1.29,1.29,0,0,1,.64-.16,1,1,0,0,1,.68.23,1.09,1.09,0,0,1,.36.56,5,5,0,0,1,.07,1v1.64a1.23,1.23,0,0,0,.09.61.51.51,0,0,0,.36.15v.17H82.23v-.17a.43.43,0,0,0,.34-.2,1.21,1.21,0,0,0,.08-.56V39.77a3.68,3.68,0,0,0,0-.65.46.46,0,0,0-.14-.21.36.36,0,0,0-.22-.07c-.26,0-.5.18-.72.55v2.26a1.21,1.21,0,0,0,.09.6.43.43,0,0,0,.33.16v.17H79.81v-.17a.54.54,0,0,0,.38-.17,1.28,1.28,0,0,0,.08-.59V39.27a1.21,1.21,0,0,0-.09-.6.56.56,0,0,0-.37-.15v-.17Z"/><path class="cls-1" d="M86.16,36.81v1.54h1v.45h-1v2.6a2.36,2.36,0,0,0,0,.48.41.41,0,0,0,.12.17.29.29,0,0,0,.16.06c.2,0,.38-.15.56-.45l.13.1a1.23,1.23,0,0,1-1.18.87,1.08,1.08,0,0,1-.69-.22,1,1,0,0,1-.35-.5,4.44,4.44,0,0,1,0-.83V38.8h-.55v-.16a5.77,5.77,0,0,0,1-.84,5,5,0,0,0,.7-1Z"/><path class="cls-1" d="M36.26,26.78a.23.23,0,0,1-.11.11"/><path class="cls-1" d="M37.32,18.51a.22.22,0,1,0,0-.44.22.22,0,1,0,0,.44"/><path class="cls-1" d="M47.55,9.18h-8v6.43a1.47,1.47,0,0,0,.62,1.33l3.07,1.83a.37.37,0,0,0,.28.12.38.38,0,0,0,.25-.09l3.11-1.86a1.47,1.47,0,0,0,.62-1.33V9.18ZM42.24,11h-.69V9.4h.69Zm-.5.57.1-.1-.06-.11h.12l.08-.13.08.13h.13l-.06.11.1.1-.13,0v.14L42,11.69l-.11.09v-.14Zm-1.92.49h.84v1.56h-.84Zm.13-.7h.14l.07-.13.08.13h.13l-.06.11.1.1-.13,0v.14l-.12-.09-.12.09v-.14l-.12,0,.1-.1ZM40.9,13H41l.08-.13.07.13h.13l-.06.11.1.11-.13,0v.14l-.11-.09-.12.09v-.14l-.12,0L41,13.1Zm.56-1.26s-.07-.05-.09-.05-.1.12-.17.13-.07,0-.07-.05.09-.08.13-.11c-.52,0-.53.23-.61.23s.11-.25.18-.32c-.1,0-.16-.14-.28-.21.06-.07.09,0,.16,0s0-.12.16-.12.16.23.2.23,0-.23.15-.23.52.59.26.59c-.11,0,0-.08,0-.1M40.87,10l.09-.1L40.9,9.8H41l.08-.13.07.13h.13l-.06.11.1.1-.13,0v.14l-.11-.09-.12.09V10Zm-.21,1h-.84V9.4h.84Zm1.58,6.85-1.91-1.14a1.39,1.39,0,0,1-.51-1.06V13.88h2.42Zm-.69-5.79h.69v1.56h-.69ZM44.7,18l-.88.52h0a.34.34,0,0,1-.23.08.33.33,0,0,1-.24-.08L42.45,18V13.88H44.7Zm0-4.36H42.45V9.4H44.7Zm2.63,2a1.39,1.39,0,0,1-.51,1.06l-1.91,1.14v-4h2.42Zm0-2H44.91V9.4h2.42Z"/><path class="cls-1" d="M42.11,15.35s-.3.1-.22.1a.85.85,0,0,1,.24-.33c0-.11-.14,0-.28.06.46-.65.17-.38-.08-.34.4-.43.29-.43,0-.29.23-.19.28-.41.24-.47-.22.29-.42.25-.42.52a1.12,1.12,0,0,1-.16.57c-.11.13,0-.48-.34-.48-.1,0-.33,0-.4.11s.16.16.16.23.06.24-.05.24-.23-.23-.23-.33,0-.08,0-.24a.86.86,0,0,0-.59-.62c0,.18.24.23.24.45-.1,0-.24-.18-.24-.07s.15.14.15.24-.17,0-.17.07.09.08.11.17-.13,0-.14,0,0,.07.07.1,0,.07,0,.22c0,.51.32.75.55.75s.14-.12.16-.18c0,.09.09,0,.09.11s-.16.09-.16.23.25,0,.25.19a2.39,2.39,0,0,1,0,.33c0,.06.27-.09.25-.12s.06.22.18.21.1-.19.15-.21.25.18.25.1c0-.24-.1-.14-.1-.3s.33-.13.28-.2-.08,0-.11-.14-.26-.38.06-.17.36-.5.34-.54"/><path class="cls-1" d="M50.61,17a.24.24,0,1,0,0-.47.24.24,0,1,0,0,.47"/><path class="cls-1" d="M49.55,17.67a.24.24,0,1,0-.27-.24.26.26,0,0,0,.27.24"/><path class="cls-1" d="M37,19.12a.24.24,0,1,0-.26-.24.25.25,0,0,0,.26.24"/><path class="cls-1" d="M37.78,19.18a.23.23,0,1,0,0-.45.23.23,0,1,0,0,.45"/><path class="cls-1" d="M60.43,8.21a1.65,1.65,0,0,1,.2,1.73c-.16,0-.13-.21-.16-.32a2,2,0,0,1-.24-1.76c.18,0,.1.25.2.35"/><path class="cls-1" d="M27.19,8.84a2.55,2.55,0,0,0,0,1.1c-.07.07-.06-.07-.12-.06-.55-.39-.29-1.15-.43-1.7a.11.11,0,0,1,.14,0,1.06,1.06,0,0,1,.41.69"/><path class="cls-1" d="M61.63,8.88c.08.15-.07.31-.18.37a.35.35,0,0,1-.35-.15.32.32,0,0,1,.17-.36.37.37,0,0,1,.36.14"/><path class="cls-1" d="M26.34,9.49a.38.38,0,0,1-.18.31.35.35,0,0,1-.26-.07.26.26,0,0,1-.06-.29c.06-.1.17-.11.27-.13s.19.07.23.18"/><path class="cls-1" d="M62.17,9.73a.28.28,0,0,1,0,.22.31.31,0,0,1-.38.13c-.1-.05-.12-.15-.15-.24a.42.42,0,0,1,.24-.25.47.47,0,0,1,.29.14"/><path class="cls-1" d="M61.38,9.75c.11.05,0,.19,0,.28s-.17.18-.29.13S61,10.1,60.92,10a.32.32,0,0,1,.19-.33.38.38,0,0,1,.27.08"/><path class="cls-1" d="M60.36,10c0,.15,0,.34-.16.37a.26.26,0,0,1-.32-.19.33.33,0,0,1,.21-.34.35.35,0,0,1,.27.16"/><path class="cls-1" d="M27.86,10c0,.13-.1.22-.19.29s-.22-.06-.27-.16,0-.18.05-.26a.26.26,0,0,1,.41.13"/><path class="cls-1" d="M27,10.07a.27.27,0,0,1-.15.26c-.11.05-.22,0-.28-.12a.25.25,0,0,1,.13-.33c.15-.05.25.09.3.19"/><path class="cls-1" d="M57,10.12a3,3,0,0,1,.28,1c-.05.26,0,.61-.15.8-.2-.07-.21-.31-.33-.44-.26-.49,0-1.06.05-1.54.11,0,.11.1.15.17"/><path class="cls-1" d="M26.37,10.29c0,.17-.09.25-.18.35a.34.34,0,0,1-.35-.19.34.34,0,0,1,.19-.34.35.35,0,0,1,.34.18"/><path class="cls-1" d="M59.2,10.7A2,2,0,0,1,59.26,12l-.08.07A6,6,0,0,1,58.61,11a1.88,1.88,0,0,1,.17-.8c.1-.07.16,0,.19.1a.6.6,0,0,0,.23.42"/><path class="cls-1" d="M61,10.45c0,.13-.07.29-.21.33a.25.25,0,0,1-.32-.17.3.3,0,0,1,.15-.33c.15-.09.31.05.38.17"/><path class="cls-1" d="M27,10.88a.29.29,0,0,1-.21.26c-.11.09-.19-.05-.29-.09a.35.35,0,0,1,0-.33c0-.08.14-.08.22-.11s.25.13.28.27"/><path class="cls-1" d="M27.65,10.81c.05.14-.1.2-.15.28s-.25-.08-.32-.17.05-.22.15-.31.25.07.32.2"/><path class="cls-1" d="M61.34,10.76c0,.19-.3.37-.33.55a1.37,1.37,0,0,1-.85.78.68.68,0,0,1-.32.18c0-.28.22-.53.37-.78a2.12,2.12,0,0,1,1.13-.73"/><path class="cls-1" d="M26.76,11.35a5.09,5.09,0,0,0,.57.66.12.12,0,0,1-.1.14c-.68,0-1.13-.74-1.47-1.23,0-.15.22,0,.32,0,.24.18.5.23.68.47"/><path class="cls-1" d="M61.53,11.55a1.81,1.81,0,0,1-.86,1.51c-.15,0-.32.21-.47.11a6.83,6.83,0,0,1,1.22-1.62Z"/><path class="cls-1" d="M58.86,12a.34.34,0,0,1-.24.4.35.35,0,0,1-.31-.22.27.27,0,0,1,.19-.31.25.25,0,0,1,.17,0c.08,0,.12.09.19.17"/><path class="cls-1" d="M26,12.08a6.65,6.65,0,0,1,.76.66c-.18.12-.41,0-.61,0-.48-.17-.8-.57-1.28-.71,0-.16.19-.1.29-.14a2.43,2.43,0,0,1,.84.18"/><path class="cls-1" d="M40.87,7.94c-.78-.3-1.29.51-2.09.41-.09.05-.07.15-.12.22s-.11,0-.15,0c0-.34-.16-.65-.2-1-.08-.14,0-.33-.11-.47-.44-1.22,1.08-.3,1.39-1s-.52-.69-.75-1.12V4.81c-.22-.22-.46-.3-.6-.59a2,2,0,0,0,0-1.08c0-.08-.06-.19-.19-.15l-.71,1a6.52,6.52,0,0,0-.82-.62c-.21,0-.4-.24-.63-.15,0,.08,0,.15,0,.21a2,2,0,0,0,.68,1.37l0,.21a6.29,6.29,0,0,0-.25,1.84,10.19,10.19,0,0,1-3,4.24c-.79.89-1.73,1.76-1.85,3-.05.2,0,.44-.13.58A4.57,4.57,0,0,1,30.15,14c-.64-.45-1.56-.39-2-1.2-.17-.32,0-.64.19-.88a1.64,1.64,0,0,0,.16-1.79c-.06,0-.08.05-.12.07,0,.82-.69,1.4-.44,2.3a7,7,0,0,0,.26.69c-.09,0-.23,0-.32-.07A3.6,3.6,0,0,0,27,13c-.64.3-1.51-.06-2,.52-.08,0-.19,0-.16.16.3,0,.6.08.9.07.49.08.81-.33,1.14-.51h.08c.14-.14.38-.05.56-.08a5.58,5.58,0,0,1,2.27.95v.06c-.27.12-.59.21-.87.36a1.93,1.93,0,0,0-.78.94c-.22.34.07.65.21,1,0,.14,0,.31.15.36.45-.48,0-1.06.1-1.61a1.13,1.13,0,0,1,.9-.72c.79-.34,1.36.3,2,.67A9.05,9.05,0,0,1,31.38,17a1.58,1.58,0,0,1-.65.1,12.18,12.18,0,0,0-2.94,1c-.45.16-1,.14-1.42.31a3.51,3.51,0,0,0,1.07,0c1.36-.19,2.4-1.25,3.87-1.06l0,0a3.5,3.5,0,0,1-.65.91c0-.16-.06-.28-.19-.37a.26.26,0,0,0-.32.12.15.15,0,0,0,0,.2c.06.13.18.16.3.2,0,.13-.18.18-.27.3-.38.65-1.17.39-1.63.85-.07.1-.32.15-.21.31a2.12,2.12,0,0,0,1.43-.37c.51-.57,1.06-1.12,1.57-1.66a1.64,1.64,0,0,1-.31,1.27,1.48,1.48,0,0,0-.37-.21.34.34,0,0,0-.25.28.83.83,0,0,0,.21.28A5,5,0,0,1,29,20a27.88,27.88,0,0,1-3,.22,6.84,6.84,0,0,1-1.5,0c-.53.1-1.1-.07-1.53.22-.05.08,0,.14,0,.21.63.43,1.51.09,2.23.21H30.7a2.31,2.31,0,0,0,1.13-.21,4,4,0,0,0,1.46-1.84,3.34,3.34,0,0,0,.29-.84,1.2,1.2,0,0,1,1-.85,6.26,6.26,0,0,1-.24,2.12c-.08.45-.37.88-.19,1.36,0,.22.28.22.45.25,1.69,0,3.37-.1,5.15,0a4.73,4.73,0,0,0,.94.14s.12-.06.08-.14a.52.52,0,0,0-.33-.39c0-.09-.15-.06-.2-.12-.88-.5-2-.23-3-.22A2.28,2.28,0,0,1,35.74,20c-.2-.25-.05-1-.05-1a19.44,19.44,0,0,1,.86-2.7,2.2,2.2,0,0,0,.08-.64,2.52,2.52,0,0,0,.09-.95,5.91,5.91,0,0,1,.43-1.31c.08-.21.15-.43.23-.64a2.22,2.22,0,0,1,.28-.73c.45.29.9.28,1.11.8L39,13.91c0,.07.06.21.16.13.36-.24.25-.77.25-1.13s-.22-.65-.35-1a1.62,1.62,0,0,1-.26-.4c0-.31-.73-.52-.57-.9a1.1,1.1,0,0,1,.47-.79.17.17,0,0,1,.07.1l.16-.12,0-1.17c.45,0,1.12.06,1.58.06.13,0,.22.14.36.15L41,8.66l1.13-.22c-.48.05-.77-.5-1.22-.5"/><path class="cls-1" d="M42.09,8.44l.11,0Z"/><path class="cls-1" d="M30,12.33a.31.31,0,0,1-.22.32c-.1,0-.19-.05-.26-.17s.09-.26.2-.32.25,0,.28.17"/><path class="cls-1" d="M29.09,12.33a.3.3,0,0,1,.06.32c-.1.09-.25.16-.33,0s-.17-.19-.1-.3.26-.18.37-.07"/><path class="cls-1" d="M48.42,12.49s0,0,0,0"/><path class="cls-1" d="M59,12.72c.06.16-.06.27-.18.33s-.32-.08-.32-.26a.27.27,0,0,1,.5-.07"/><path class="cls-1" d="M59.74,12.7c0,.06.14.18,0,.25s-.09.05-.13.11a.27.27,0,0,1-.34-.17c0-.15.1-.22.21-.29s.17,0,.24.1"/><path class="cls-1" d="M25.61,12.86a.29.29,0,0,1-.38.19.86.86,0,0,1-.11-.19.27.27,0,0,1,.16-.24.35.35,0,0,1,.33.24"/><path class="cls-1" d="M30.29,13.1a.44.44,0,0,1-.24.26c-.14,0-.23-.09-.3-.19s.05-.25.16-.28a.32.32,0,0,1,.38.21"/><path class="cls-1" d="M29.47,13a.24.24,0,0,1,0,.23c-.08.07-.21.19-.35.11s-.18-.13-.15-.27.12-.14.2-.16.17,0,.26.09"/><path class="cls-1" d="M61.86,13.17a.36.36,0,0,1-.18.26.24.24,0,0,1-.3-.07c-.09,0-.06-.13-.06-.21a.54.54,0,0,1,.27-.18.55.55,0,0,1,.27.2"/><path class="cls-1" d="M62.75,13.3a.36.36,0,0,1-.26.25c-.08,0-.24,0-.21-.17a.22.22,0,0,1,.13-.22.24.24,0,0,1,.34.14"/><path class="cls-1" d="M27.19,13.49a.28.28,0,0,1-.17.34c-.09.05-.19,0-.26-.07a.25.25,0,0,1-.07-.28c0-.13.15-.1.24-.15a.32.32,0,0,1,.26.16"/><path class="cls-1" d="M27.87,13.62c0,.11-.08.15-.11.23a.23.23,0,0,1-.25,0c-.1-.09-.21-.21-.11-.34s.4-.1.47.07"/><path class="cls-1" d="M61,13.55c0,.14-.11.24-.19.32a.25.25,0,0,1-.28-.17c0-.11.06-.19.16-.27a.29.29,0,0,1,.31.12"/><path class="cls-1" d="M62.18,13.77c0,.13,0,.27-.15.35a.41.41,0,0,1-.34,0,.27.27,0,0,1,0-.3A.34.34,0,0,1,62,13.6c.1.06.13.13.21.17"/><path class="cls-1" d="M26.66,14.07c.06.11-.07.14-.11.19a.26.26,0,0,1-.28,0c-.09-.05-.05-.19,0-.26.13-.24.38-.07.43.1"/><path class="cls-1" d="M61.31,14.33s0,.1,0,.13a1,1,0,0,1-1.12-.06,6.12,6.12,0,0,0-.56-.31c.07-.18.32-.17.5-.21.4.06.72.44,1.17.45"/><path class="cls-1" d="M27.33,14.21c0,.11-.06.15-.08.23s-.17.06-.24,0a.26.26,0,0,1-.1-.35.25.25,0,0,1,.42.09"/><path class="cls-1" d="M28.55,14.29c.06.13,0,.24-.14.31s-.18,0-.26,0-.2-.2-.07-.32.37-.09.47.06"/><path class="cls-1" d="M44.61,14.88c0,.28-.49,0-.43.33a2.18,2.18,0,0,0,.28.79c.13.19.06.48,0,.7a1.12,1.12,0,0,1-.53.45c-.39,0-1,.2-1.16-.29a2,2,0,0,1-.22-.66s.09,0,.13-.07-.11-.15-.09-.24c.45-.08-.19-.48.2-.5.31.33.83.22,1.11.58a1,1,0,0,0,.19.17c0-.33-.21-.66-.26-1a.48.48,0,0,1,.16-.47c.23-.18.43.09.57.23"/><path class="cls-1" d="M29.77,14.79c0,.14-.07.23-.15.3s-.19-.09-.25-.16.06-.21.14-.28a.3.3,0,0,1,.26.14"/><path class="cls-1" d="M38.34,14.93a1.9,1.9,0,0,1-.17,1.57c0,.11,0,.29-.12.28-.37-.52-.1-1.25.05-1.79,0-.14.2-.2.24-.06"/><path class="cls-1" d="M50.23,15.2a1.55,1.55,0,0,1,0,1.3l-.11.11a3.19,3.19,0,0,1-.32-1,3.18,3.18,0,0,0,.17-.74c.19-.05.18.21.24.32"/><path class="cls-1" d="M30.86,15.35c-.09.17-.32.21-.48.33a1.69,1.69,0,0,1-1.23.23,1.53,1.53,0,0,1,1.58-.66c0,.06.1,0,.13.1"/><path class="cls-1" d="M25.15,15.86a3.78,3.78,0,0,1,1,1.37c0,.05.17.07.12.18s-.22-.09-.38-.06A1.55,1.55,0,0,1,25,15.91c0-.05.08-.05.14-.05"/><path class="cls-1" d="M49.69,16.29c0,.14,0,.28-.13.32a.25.25,0,0,1-.32-.17c0-.1,0-.15.07-.22a.25.25,0,0,1,.38.07"/><path class="cls-1" d="M55.55,17a6.24,6.24,0,0,1,.09-.77A.54.54,0,0,0,55.7,16c.33-.45,1-.31,1.54-.27a2.77,2.77,0,0,0,.69.16.49.49,0,0,1,.35-.08c.45-.23.15-.75.18-1.15l-.17-.42c0-.09-.08-.19-.11-.28s-.13-.28-.22-.38a5.38,5.38,0,0,0-1.08-1.46A5.94,5.94,0,0,0,54,10.29a4.86,4.86,0,0,0-3.2.46.81.81,0,0,1-.54-.59,2.94,2.94,0,0,1,.26-1.48,5.85,5.85,0,0,1,.38-.93,9.85,9.85,0,0,0,.57-2.41,1.24,1.24,0,0,0-.75-1.1.75.75,0,0,0-.76.15A2,2,0,0,1,49,5.2c0,.24.27.08.36.17.31,0,.66,0,.91.15A2.37,2.37,0,0,1,49.69,7a10.68,10.68,0,0,0-1.27,2.18l-.05-.05.06,3.42a4,4,0,0,0,1.82,1.85c.45.36,1,.79,1.6.47.32-.09.34.36.5.54.17.51-.21.88-.23,1.35l-.37.77a9.91,9.91,0,0,1-1.43,2.37c-.21,0-.33.22-.54.23s-.33.05-.47.1c-.43.18-1,.07-1.33.48a.26.26,0,0,0,.11.07c.84,0,1.79.07,2.69,0A.33.33,0,0,0,51,20.5c-.12-.24,0-.45.16-.63.07-.33.29-.55.38-.87.3-.57.63-1.13,1-1.7l.43-.7a4.69,4.69,0,0,1,.43-.78,1.92,1.92,0,0,0,.25-.38c0-.14-.05-.2-.14-.3.1-.1.25-.07.38-.1a1.65,1.65,0,0,1,.78.93l.12.36.06.17,0,.46,0,.43a9.89,9.89,0,0,1-.12,2c-.24.81-1.17.73-1.84.91-.16.11-.48.06-.48.34a12.57,12.57,0,0,0,2.61,0c.14,0,.17-.18.24-.31s.2-.33.15-.53,0-.5-.06-.76a.42.42,0,0,0,0-.27c.11-.41.09-.9.17-1.29Z"/><path class="cls-1" d="M62.38,16.48a3.45,3.45,0,0,1-1.7,1.57s-.11,0-.14,0c.47-.51.73-1.29,1.46-1.47a.47.47,0,0,1,.38-.06"/><path class="cls-1" d="M24.47,17.17c-.07.06,0,.18-.14.2a.23.23,0,0,1-.29-.13.25.25,0,0,1,.18-.31c.11.06.22.1.25.24"/><path class="cls-1" d="M28.47,17.37c0,.12-.1.12-.17.15a1.52,1.52,0,0,1-1.6-.41c0-.05,0-.11.06-.12.57.14,1.24,0,1.71.38"/><path class="cls-1" d="M25.23,17.18a.32.32,0,0,1,0,.21.3.3,0,0,1-.35.13.52.52,0,0,1-.18-.18.35.35,0,0,1,.24-.27.44.44,0,0,1,.26.11"/><path class="cls-1" d="M38.24,17.26c0,.12-.08.2-.16.26a.27.27,0,0,1-.29-.11.21.21,0,0,1,.09-.27c.13,0,.32,0,.36.12"/><path class="cls-1" d="M62.9,17.31c.05.14-.08.21-.18.29s-.18,0-.26,0-.1-.12-.07-.22a.3.3,0,0,1,.32-.17,2.31,2.31,0,0,1,.19.14"/><path class="cls-1" d="M63.82,17.26c.09.12,0,.22-.06.32a.19.19,0,0,1-.25.08c-.08-.08-.19-.13-.21-.25s.13-.2.21-.24.2.09.31.09"/><path class="cls-1" d="M23.89,17.66c0,.1-.07.15-.1.24s-.14.08-.22.05a.38.38,0,0,1-.21-.22.27.27,0,0,1,.53-.07"/><path class="cls-1" d="M53.13,17.66c0,.05,0,.13,0,.18s-.19.21-.33.14-.18-.17-.14-.29a.27.27,0,0,1,.46,0"/><path class="cls-1" d="M26.12,17.87a.23.23,0,0,1-.19.21c-.13,0-.17-.1-.24-.16s0-.25.11-.32a.26.26,0,0,1,.32.27"/><path class="cls-1" d="M24.79,17.9a.28.28,0,0,1-.14.3.32.32,0,0,1-.38-.19.41.41,0,0,1,.25-.32c.13,0,.2.14.27.21"/><path class="cls-1" d="M54,17.87a.26.26,0,0,1-.15.33c-.16.06-.3-.08-.37-.19s.08-.27.24-.3a.31.31,0,0,1,.28.16"/><path class="cls-1" d="M25.44,17.92c0,.1,0,.14-.07.22s-.11.08-.19.05S25,18.09,25,18s.08-.21.18-.27a.24.24,0,0,1,.26.19"/><path class="cls-1" d="M62.14,18a.41.41,0,0,1-.23.22c-.12,0-.19-.07-.27-.11s0-.18,0-.25a.28.28,0,0,1,.51.14"/><path class="cls-1" d="M63.2,18.09a.36.36,0,0,1-.34.24c-.12,0-.26-.15-.16-.32s.08-.11.16-.13a.28.28,0,0,1,.34.21"/><path class="cls-1" d="M56.6,18.19c.07.18-.1.24-.21.32a.54.54,0,0,1-.26-.11.32.32,0,0,1,.19-.36.33.33,0,0,1,.28.15"/><path class="cls-1" d="M52.78,18.36c.07,0,0,.12,0,.17s-.19.19-.32.11a.24.24,0,0,1-.14-.27.26.26,0,0,1,.43,0"/><path class="cls-1" d="M53.56,18.46a.18.18,0,0,1-.11.22c-.1.1-.21,0-.31,0a.22.22,0,0,1,0-.21.27.27,0,0,1,.18-.11c.1,0,.21,0,.25.14"/><path class="cls-1" d="M30,18.47c.08.08,0,.18,0,.27a.28.28,0,0,1-.35.07c-.14-.06-.13-.24-.1-.35s.09-.13.2-.13a.5.5,0,0,1,.28.14"/><path class="cls-1" d="M58.08,18.53c0,.14-.1.19-.2.22s-.25-.07-.32-.18.08-.14.11-.21c.19-.09.32.06.41.17"/><path class="cls-1" d="M57.34,18.53c0,.14-.1.21-.16.28a.28.28,0,0,1-.3-.06c-.07,0-.07-.12-.07-.21s.12-.15.22-.18a.37.37,0,0,1,.31.17"/><path class="cls-1" d="M63.6,18.7c0,.19-.22.09-.32.15a2.24,2.24,0,0,1-1.89-.13c0-.18.25-.11.36-.18.6-.37,1.21.09,1.81.11Z"/><path class="cls-1" d="M25.59,18.53l-.05.1a2.31,2.31,0,0,1-1.79.32l-.06-.09a2.55,2.55,0,0,1,1.86-.38Z"/><path class="cls-1" d="M59.5,18.63a.3.3,0,0,1-.14.26.28.28,0,0,1-.36-.15c0-.11.07-.23.18-.27s.27,0,.32.16"/><path class="cls-1" d="M28.08,18.68c-.06.11,0,.23-.17.28a.29.29,0,0,1-.34-.18c-.05-.15.07-.2.13-.27s.3,0,.38.17"/><path class="cls-1" d="M27.1,18.75c0,.1-.05.15-.08.23s-.19.06-.27,0-.2-.19-.16-.34a.83.83,0,0,1,.23-.15.31.31,0,0,1,.28.22"/><path class="cls-1" d="M60.47,19.07a.29.29,0,0,1-.22.25.27.27,0,0,1-.26-.14.22.22,0,0,1,0-.26s.13,0,.19-.07a.28.28,0,0,1,.24.22"/><path class="cls-1" d="M26.06,18.92c.05.11,0,.15-.07.24a2,2,0,0,1-.3.6c-.27.32-.64.32-1,.42l-.06-.12A3.61,3.61,0,0,1,26,18.89Z"/><path class="cls-1" d="M59.78,19.23c0,.17-.11.19-.21.26a.33.33,0,0,1-.28-.17c0-.15.1-.2.18-.28a.3.3,0,0,1,.31.19"/><path class="cls-1" d="M27.66,19.23s0,.05,0,.06c0,.16-.12.2-.2.27a.37.37,0,0,1-.31-.14.23.23,0,0,1,.14-.32c.12,0,.29,0,.33.13"/><path class="cls-1" d="M62.33,19.64c.15,0,.17-.17.33-.2a.34.34,0,0,1,.33.15c0,.17-.08.25-.18.32s-.31-.08-.3.1a.43.43,0,0,1,.2.28c0,.05-.12,0-.17,0a1.77,1.77,0,0,1-1-.86c0-.13-.32-.23-.16-.34a1.29,1.29,0,0,1,.95.54"/><path class="cls-1" d="M63.67,19.21a.23.23,0,0,1,0,.27c-.07.14-.27.08-.4.07s-.14-.14-.11-.26a.44.44,0,0,1,.21-.17.37.37,0,0,1,.32.09"/><path class="cls-1" d="M58.63,20a2.21,2.21,0,0,1,.31.56s-.11,0-.13,0c-.48-.26-1.08-.55-1.27-1.11,0-.06-.15-.13-.13-.23a1.25,1.25,0,0,1,1,.4,1.36,1.36,0,0,1,.27.36"/><path class="cls-1" d="M26.88,19.44c.06.12-.05.22-.12.28a.35.35,0,0,1-.32-.11c-.1-.16.08-.29.2-.34s.18.1.24.17"/><path class="cls-1" d="M60.36,19.76c0,.08-.1.14-.13.19s-.23.06-.32,0-.1-.18,0-.25.37,0,.47.1"/><path class="cls-1" d="M63.82,20a.33.33,0,0,1-.2.35.37.37,0,0,1-.33-.12c-.07-.09,0-.17,0-.27a.37.37,0,0,1,.36-.1.7.7,0,0,1,.17.14"/><path class="cls-1" d="M54.21,21.88c0,.17-.3.13-.43.25a2.94,2.94,0,0,1-1.46.22v-.09a2.09,2.09,0,0,1,1.89-.38"/><path class="cls-1" d="M34,22.48a.23.23,0,0,1-.44.1c-.06-.16.08-.23.18-.31a.32.32,0,0,1,.26.21"/><path class="cls-1" d="M54,22.64c0,.12-.07.27-.21.32s-.21,0-.31-.1,0-.15,0-.22a.3.3,0,0,1,.56,0"/><path class="cls-1" d="M56.74,22.69a2.25,2.25,0,0,1-1.19.49H54.8l-.08-.06a2.29,2.29,0,0,1,2-.5Z"/><path class="cls-1" d="M30.15,23a.25.25,0,0,1-.18.26.24.24,0,0,1-.29-.12.25.25,0,0,1,.1-.32c.16-.1.31.07.37.18"/><path class="cls-1" d="M30.84,23.17c0,.07,0,.11-.05.18a.22.22,0,0,1-.27,0,.18.18,0,0,1-.08-.24c0-.08.13-.07.17-.12a.38.38,0,0,1,.23.18"/><path class="cls-1" d="M25.52,24.58c-.13.17-.36,0-.51-.13-.49-.27-.47-.82-1-1.14.06-.17.18,0,.28,0a2,2,0,0,0,.29.15c.47.27.58.71.9,1.13"/><path class="cls-1" d="M66,19.16a1.1,1.1,0,0,0-1-.58,1,1,0,0,0-.78.58.72.72,0,0,0,.27.77.21.21,0,0,0,.27-.07c.07-.19-.12-.19-.15-.33a.46.46,0,0,1,.15-.49c.14-.13.38-.06.54-.06a.91.91,0,0,1,.42.4,1.17,1.17,0,0,1,0,.74,1.24,1.24,0,0,1-.86.7c-1.15.17-13.8.11-13.8.11-1.49.14-3.18-.28-4.46.51a2.24,2.24,0,0,0-1,1.49A10.26,10.26,0,0,0,44.45,24l0,0c.07-.34.22-.64.29-1s.21-.66.36-1a7.66,7.66,0,0,1,1.85-2.33c.34-.46,1-.37,1.48-.37a3.65,3.65,0,0,0,1.93.27.11.11,0,0,0,0-.09c-.2-.18-.52-.26-.74-.43-.56-.27-1.08.08-1.67,0,0,0-.05,0,0-.09a8.39,8.39,0,0,1,1.72-.92,10.44,10.44,0,0,1,1.52-.6c.21,0,.4-.18.59-.06l.74-.19s.06.05.11,0a7.48,7.48,0,0,1,2.12,0l.1.08.67.17c.25,0,.36.32.63.34.13-.2-.16-.28-.23-.41a1.5,1.5,0,0,1,.93.14l-.13.15c-.09.16,0,.27.16.33s.17-.05.24-.07,0-.26,0-.37a13.72,13.72,0,0,1,3,.84,2.3,2.3,0,0,0,.8.27,3.43,3.43,0,0,0-1-.56c-.24-.14-.58-.16-.75-.35,0-.07.13,0,.17-.1A2,2,0,0,0,60.47,17c0-.09.19-.06.17-.17s-.33,0-.5,0c-.58.11-.83.8-1.41.92-.71-.17-1.44-.33-2.14-.51a4.37,4.37,0,0,1-1-.23L54.77,17H53.35s-.05,0,0-.08c.5-.13.93-.42,1.43-.55l3.72-1.7a8.87,8.87,0,0,0,1.06-1.15.27.27,0,0,0-.16-.27.21.21,0,0,0-.27.06c-.17.12,0,.28,0,.43a2.5,2.5,0,0,1-.64.55c-.06,0-3.83,1.72-3.83,1.72a10,10,0,0,1-1.7.63l-.81.12a.53.53,0,0,1-.34.33c-.23,0-.4.18-.64.18A14,14,0,0,0,46,20.09a1.5,1.5,0,0,0,.14-.58,1.26,1.26,0,0,0-.15-.62c0-.08-.14-.3-.11-.38l-.2.13a2,2,0,0,0-.11,1.19c0,.25.25.54.06.77a12.57,12.57,0,0,0-1.49,2.71c-.17,0-.25-.18-.32-.34a4.56,4.56,0,0,0,1-2c.1-.06,0-.25.13-.33,0-.23.13-.45,0-.63.09-.31-.4-.59-.09-.79l-.26.13c-.59.78.31,2-.37,2.71v.06a2.41,2.41,0,0,1-.55.67c-.34-.14-.46-.52-.66-.8a1.25,1.25,0,0,1-.12-1.3c.12-.4-.09-.75-.13-1.12l-.14-.08a1.64,1.64,0,0,0-.19,1.64c.14.25.15.6.36.81a4.86,4.86,0,0,0,.6,1c.05.14-.08.17-.16.24-.15-.1-.12-.32-.26-.42a10,10,0,0,0-1.78-2.56c0-.12-.15-.24-.08-.38a1,1,0,0,0,.18-1.06c0-.07-.11-.15-.1-.22l-.2-.17c0,.49-.3.92-.16,1.44v0A26.87,26.87,0,0,0,36.24,17l-.14.36a9.29,9.29,0,0,1,1.49.76,9.77,9.77,0,0,1,1.39.74,9.51,9.51,0,0,1,4,4.71c0,.16.16.33.06.48A7.52,7.52,0,0,0,42,23a2,2,0,0,0-1.06-1.55c-.21-.31-.65-.34-1-.44l-5,0c-4.11-.06-7.86.13-11.95.06-.57-.06-1.26-.25-1.43-.86a1,1,0,0,1,0-.76.87.87,0,0,1,.71-.38.71.71,0,0,1,.47.39c0,.18-.15.35-.22.5s.07.17.17.13a.66.66,0,0,0,.36-.45c0-.1.05-.23,0-.31a.93.93,0,0,0-.65-.57,1.09,1.09,0,0,0-1.17,1.5,1.87,1.87,0,0,0,1.5,1.12l13.51.05a30.22,30.22,0,0,1,4.14.11,1.61,1.61,0,0,1,1.12,1.07s-.05,0-.1,0a6,6,0,0,0-3.94-.81,4.65,4.65,0,0,0-1.55.32.8.8,0,0,1-.69-.22,2.28,2.28,0,0,0-2-.25s0,.08,0,.1c.69-.06,1.09.52,1.7.59.14,0,.25-.12.37,0a12,12,0,0,1-1.93.87c-.2,0-.31-.24-.48-.35-.26-.3-.75-.17-1.11-.2-.13,0-.24,0-.32,0a1.19,1.19,0,0,0,.59.46c.35.16.76,0,1.07.2-.08.1-.19.12-.29.19-.65.26-1.19.84-1.91.8a2.43,2.43,0,0,1-2.06-.67,1.39,1.39,0,0,0-1.4-.81s-.1,0-.08.1c.3.18.54.54.84.75s.57,0,.75.27a2.62,2.62,0,0,0,.91.39,4,4,0,0,0,.72.2l-.1,0a12,12,0,0,1-4.14.41c-.41,0-.82-.14-1.23-.13a.88.88,0,0,0,.33.2.94.94,0,0,1-.38.11,2,2,0,0,0-.52.14,1.33,1.33,0,0,0-.6.14,2.93,2.93,0,0,1-.79.64c0,.06,0,.14.06.14.26-.11.59,0,.85-.14.46,0,.73-.54,1.09-.76a1.87,1.87,0,0,1,1.42-.16c.27.07,0,.18.05.36s.21.21.36.17a.23.23,0,0,1,.1-.07.32.32,0,0,0,0-.35c.2-.13.46,0,.67-.07.53,0,1.05-.13,1.56-.14.09,0,.19-.1.27,0s-.18.12-.13.27.17.19.28.22.27-.16.21-.34-.14-.11-.21-.15c.3-.14.63-.19.92-.33a2.63,2.63,0,0,0,.58-.19c.18,0,.34-.18.5-.11a2.47,2.47,0,0,1-.29.67,3.34,3.34,0,0,0,0,2.43s.06,0,.09,0a3.28,3.28,0,0,1,.12-2.29c.2-1.19,1.42-1.54,2.29-2l0,.05a4.56,4.56,0,0,0-.53,1.94c0,.13-.05.26,0,.34a1.55,1.55,0,0,0,.52-.64c.1-.63-.26-1.42.38-1.88A9.93,9.93,0,0,1,37.77,22c0,.05.14,0,.15.06-.27.31-.68.6-.8,1a3.15,3.15,0,0,0-.24,2.42c.13.43-.25.67-.43,1-.08.12-.11.32-.19.45l.27,0A1.48,1.48,0,0,0,37,26a.39.39,0,0,0,.26.28c.1-.15-.08-.26-.1-.42.23-.12.32.16.51.21a3.33,3.33,0,0,0,.84.2l.1-.1a1.73,1.73,0,0,0-1.45-.59A2.91,2.91,0,0,1,36.92,24a2.77,2.77,0,0,1,.28-.87,2.27,2.27,0,0,1,.39-.53,1.91,1.91,0,0,1,.88-.48h0a.12.12,0,0,0,0,.05c-.37.29-.42.69-.64,1.06a1.19,1.19,0,0,0-.12,1.22c.08.18,0,.46.23.58a2.85,2.85,0,0,0,.29-.85c0-.46-.32-.9-.05-1.34a1.16,1.16,0,0,1,.75-.62,4.21,4.21,0,0,1,2.09.62c.14.1.38.18.41.38a1.14,1.14,0,0,1-1.78.92,1,1,0,0,1-.22-.86.59.59,0,0,1,.61-.22c.14.07.26.21.44.13a.19.19,0,0,0,.06-.23c-.15-.08-.21-.29-.42-.32a.88.88,0,0,0-.76.16,1,1,0,0,0-.32,1,1.21,1.21,0,0,0,.86.89,1.6,1.6,0,0,0,1.71-.59,1.8,1.8,0,0,0,.31-.6,3.65,3.65,0,0,1,1.42,1.84,3.43,3.43,0,0,1,0,.71l.49,0a.44.44,0,0,1,0-.34,4.2,4.2,0,0,1,1.43-2.29c.23-.14.17.18.23.28a1.87,1.87,0,0,0,1.21,1.06,1.51,1.51,0,0,0,1.5-.49c.18-.33.4-.82.1-1.17a1,1,0,0,0-.77-.37,1,1,0,0,0-.76.52c0,.12,0,.24.08.3s.17,0,.21-.08.21-.3.38-.41a.42.42,0,0,1,.44.08.76.76,0,0,1,.2.55.84.84,0,0,1-.46.65,1.42,1.42,0,0,1-1.34-.12,2.94,2.94,0,0,1-.38-.62c0-.22-.12-.42,0-.64a4.57,4.57,0,0,1,2-.7,1.41,1.41,0,0,1,.74.46c.63.66-.14,1.59.3,2.32.17,0,.17-.25.24-.39.21-.5-.06-1.05-.18-1.54a2.75,2.75,0,0,0-.53-.82.34.34,0,0,1,.17,0,3.2,3.2,0,0,1,.84.73,3.69,3.69,0,0,1,.54,2.29c-.11.42-.55.61-.9.77a1.24,1.24,0,0,0-.37.45c.16.09.4,0,.57-.07s.41-.44.59-.59c0,0,0,.05,0,.08s-.07.37.07.41a6.66,6.66,0,0,0,.13-.72,1.36,1.36,0,0,1,.26.7c.13.26.34.59.67.63.08-.12,0-.25,0-.36,0-.35-.34-.53-.53-.78-.49-.68-.27-1.72-.64-2.48a2.93,2.93,0,0,0-.75-1l0-.06a8.32,8.32,0,0,1,1.88.34c.76.37,1.87.29,2.23,1.29a3.64,3.64,0,0,0,.8,1.5l0,0a.59.59,0,0,0,0-.52c-.08-.7-.7-.87-1-1.45l0-.06a7.52,7.52,0,0,1,1,.32,3,3,0,0,1,2,2.53,5.43,5.43,0,0,1-.52,2.39c0,.11-.23.24-.11.34.15-.11.18-.3.26-.43a3.84,3.84,0,0,0,.46-2.8c0-.19-.22-.32-.13-.51a.47.47,0,0,0,.25.13c.08-.06.21-.06.26-.16s.07-.18,0-.25a.41.41,0,0,0-.4-.1.68.68,0,0,0-.17.31,3,3,0,0,0-.5-.74l0,0c.62.21,1.19.52,1.83.68a.87.87,0,0,0,.49.16,13.64,13.64,0,0,0,1.7.43c.42,0,.77.16,1.18.06v0h0c-.15-.19-.48,0-.67-.15a10.32,10.32,0,0,1-2.73-.69s.07,0,.11,0a.37.37,0,0,0,.22-.35.38.38,0,0,0-.32-.16.45.45,0,0,0-.21.24.39.39,0,0,0,.21.27s-.08,0-.12,0l-1.26-.57c-.16,0-.29-.15-.44-.18-.32-.15-.63-.31-1-.44a22.51,22.51,0,0,0-2.81-1.05l-.6-.16-1-.28a5.3,5.3,0,0,0-3.79.32c-.17-.06-.26.21-.35,0a2,2,0,0,1,1.9-1c5.57-.05,10.79-.1,16.27-.18a1.75,1.75,0,0,0,1.6-.8,1.38,1.38,0,0,0,.1-1.28M43.92,24.32c-.05.17-.16.3-.15.48l-.05,0c0-.22-.17-.34-.12-.57-.11-.16-.11-.37-.21-.55s.11-.32.21-.48c.2.08.27.26.41.43s-.1.42-.09.65"/><path class="cls-1" d="M59,23.43c0,.05.08.06,0,.13a2.86,2.86,0,0,1-1.86.59.48.48,0,0,1-.18,0s-.06-.07,0-.1a2.15,2.15,0,0,1,2-.66"/><path class="cls-1" d="M56.75,23.66c.06.2-.06.31-.22.38a.43.43,0,0,1-.31-.23c0-.11.06-.16.1-.23s.38-.12.43.08"/><path class="cls-1" d="M30.36,23.69a.3.3,0,0,1-.07.29.27.27,0,0,1-.25.07c-.1,0-.16-.12-.18-.21a.3.3,0,0,1,.18-.26c.11,0,.23,0,.32.11"/><path class="cls-1" d="M27.87,24.59v.1a1.1,1.1,0,0,1-.9-.2,1.78,1.78,0,0,0-.74-.7c0-.05-.08-.1,0-.13.7,0,1.11.56,1.64.93"/><path class="cls-1" d="M61.1,23.67c-.32.48-.6,1.06-1.17,1.27-.09,0-.18.14-.26,0a2.58,2.58,0,0,1,1.23-1.33.67.67,0,0,1,.2,0"/><path class="cls-1" d="M31.16,23.84c0,.16-.1.18-.19.27S30.8,24,30.73,24s.07-.19.14-.26a.28.28,0,0,1,.29.15"/><path class="cls-1" d="M62.85,23.93c-.13.18-.07.44-.19.64-.28.32-.52.68-1,.75-.06-.14.1-.28.17-.4a2,2,0,0,1,.92-1.08Z"/><path class="cls-1" d="M23.57,24.05a.29.29,0,0,1,0,.31.31.31,0,0,1-.32.05.26.26,0,0,1-.12-.33c.09-.13.34-.2.44,0"/><path class="cls-1" d="M22.78,24.22c0,.07,0,.12,0,.19a.33.33,0,0,1-.2.17.3.3,0,0,1-.32-.18.27.27,0,0,1,.14-.29.29.29,0,0,1,.34.11"/><path class="cls-1" d="M24.41,24.3c0,.11.06.31-.11.34s-.3-.06-.41-.17a.31.31,0,0,1,.16-.28.39.39,0,0,1,.36.11"/><path class="cls-1" d="M26.69,24.48c0,.1,0,.24-.09.27s-.2,0-.27,0-.18-.16-.1-.25a.46.46,0,0,1,.2-.16c.08,0,.21,0,.26.11"/><path class="cls-1" d="M64.18,24.58c0,.1-.09.23-.2.23s-.26,0-.32-.16.06-.24.17-.28.32.06.35.21"/><path class="cls-1" d="M61.64,24.65c0,.11-.11.2-.16.24a.34.34,0,0,1-.44-.21.36.36,0,0,1,.24-.25.35.35,0,0,1,.36.22"/><path class="cls-1" d="M63.36,24.62a.31.31,0,0,1-.12.24.34.34,0,0,1-.34-.05c-.12-.12,0-.21.06-.3s.36-.06.4.11"/><path class="cls-1" d="M23.21,24.86a.31.31,0,0,1-.17.35.33.33,0,0,1-.31-.2.27.27,0,0,1,.14-.29.33.33,0,0,1,.34.14"/><path class="cls-1" d="M61,25a.32.32,0,0,1-.2.37c-.11,0-.18,0-.26-.1s-.13-.22,0-.29A.28.28,0,0,1,61,25"/><path class="cls-1" d="M30.68,25.17c.05.15-.11.18-.16.26s-.16.05-.21,0-.15-.17-.11-.29.1-.12.18-.14.21.09.3.18"/><path class="cls-1" d="M63.93,25.27c0,.1,0,.14-.07.21a.36.36,0,0,1-.32.05c-.12-.07-.12-.18-.12-.31s.09-.12.19-.15a.32.32,0,0,1,.32.2"/><path class="cls-1" d="M63.07,25.31c.06.17-.1.25-.21.29s-.14,0-.15.06a3.59,3.59,0,0,1,.86.74v.11A1.85,1.85,0,0,1,62.2,26c-.1-.07-.27-.07-.38-.17.18-.18.51-.11.77-.13.18-.19-.21-.33,0-.5.09,0,.14-.1.25-.07a.41.41,0,0,1,.21.2"/><path class="cls-1" d="M57.39,25.32c0,.07,0,.16-.07.23a.28.28,0,0,1-.3.05c-.08-.1-.18-.18-.14-.32a.28.28,0,0,1,.51,0"/><path class="cls-1" d="M26.34,25.81c0,.13-.1.21-.23.23a.3.3,0,0,1-.26-.17c0-.1.06-.16.08-.23s.43,0,.41.17"/><path class="cls-1" d="M27.47,25.63c0,.2-.21.31-.28.5a1.41,1.41,0,0,1-1.11.93c0-.13.18-.28.24-.41a2.88,2.88,0,0,1,1.06-1Z"/><path class="cls-1" d="M57.06,25.83c0,.15-.13.26-.24.32s-.22-.06-.29-.11,0-.23,0-.34.4,0,.52.13"/><path class="cls-1" d="M57.92,25.92a.34.34,0,0,1-.25.31s-.1,0-.14,0a.29.29,0,0,1-.18-.25c.07-.07.1-.18.19-.19s.34,0,.38.16"/><path class="cls-1" d="M29.62,25.91a.29.29,0,0,1-.21.29.26.26,0,0,1-.26-.16c0-.13.09-.21.16-.28s.21.07.31.15"/><path class="cls-1" d="M30.58,26a.32.32,0,0,1-.27.24.28.28,0,0,1-.24-.16c0-.14.09-.21.19-.28s.29,0,.32.2"/><path class="cls-1" d="M60.9,26.94c.07.06.2.13.17.23-.22.1-.4-.15-.61-.2a2.87,2.87,0,0,1-.72-1.12c.12-.12.26,0,.37.07a2.73,2.73,0,0,1,.79,1"/><path class="cls-1" d="M61.42,26a.34.34,0,0,1,0,.31c-.08.14-.26.12-.39.09s-.19-.2-.11-.32.17-.14.26-.19.17.07.27.11"/><path class="cls-1" d="M31.86,26.33c0,.11,0,.28-.1.35a.28.28,0,0,1-.34-.17c-.06-.17.09-.19.17-.28s.18,0,.27.1"/><path class="cls-1" d="M57.88,27.24a2,2,0,0,1,.36,1c0,.1.07.2,0,.26h0a3.08,3.08,0,0,1-1-1.7.12.12,0,0,1-.06-.14c.14-.12.24.13.38.17Z"/><path class="cls-1" d="M33.66,26.76s0,0,0,0a1.84,1.84,0,0,1-2,.25.11.11,0,0,1,.07-.12A2.92,2.92,0,0,1,33,26.65Z"/><path class="cls-1" d="M30.5,26.83c-.48.3-.91.87-1.49,1-.11,0-.18.2-.32.11a2.06,2.06,0,0,1,1.81-1.23Z"/><path class="cls-1" d="M57.06,27.46a.23.23,0,0,1-.12.3.2.2,0,0,1-.25,0,.27.27,0,0,1-.13-.28c0-.1.14-.12.21-.16s.22,0,.29.14"/><path class="cls-1" d="M55.9,27.53a.76.76,0,0,1-.49.37,2.19,2.19,0,0,1-1.32-.17c0-.11.15-.07.22-.14a2.92,2.92,0,0,1,1.41-.07c.05,0,.15,0,.18,0"/><path class="cls-1" d="M30.5,27.94c-.05,0-.06.18-.17.22a.29.29,0,0,1-.28-.06c0-.08-.12-.15-.05-.25s.13-.12.22-.15a.3.3,0,0,1,.28.24"/><path class="cls-1" d="M31.31,28.06a.5.5,0,0,1-.19.27c-.11,0-.19,0-.28-.1a.34.34,0,0,1,0-.28c0-.07.13-.08.19-.13a.38.38,0,0,1,.32.24"/><path class="cls-1" d="M56.8,28.2a.43.43,0,0,1-.1.27.23.23,0,0,1-.31.05c-.09,0-.12-.12-.17-.19s.06-.18.1-.28a.31.31,0,0,1,.48.15"/><path class="cls-1" d="M57.41,28.17c0,.08.05.15,0,.2s-.14.25-.3.18-.13-.08-.17-.11a.26.26,0,0,1,.17-.38c.12,0,.21.07.28.11"/><path class="cls-1" d="M30.81,28.58a.38.38,0,0,1-.13.38c-.16,0-.35,0-.41-.15a.38.38,0,0,1,.17-.41.31.31,0,0,1,.37.18"/><path class="cls-1" d="M31.61,28.52a1.27,1.27,0,0,1-.5,1.09c-.23.05-.44.26-.67.12v-.07a15.84,15.84,0,0,1,1.17-1.14"/><path class="cls-1" d="M54.62,28.85c.05.08,0,.15-.09.22s-.24.06-.33,0-.11-.18-.07-.27a.28.28,0,0,1,.18-.16c.12,0,.23.1.31.2"/><path class="cls-1" d="M33,29.49c.2.32.09.76.2,1.11-.24,0-.33-.24-.49-.38a4.51,4.51,0,0,1-.4-1.47.08.08,0,0,1,.1,0,3.72,3.72,0,0,1,.53.59c0,.09.08.09.06.18"/><path class="cls-1" d="M55.31,29c0,.11-.13.14-.19.21a.52.52,0,0,1-.27-.13c0-.14.07-.18.14-.25a.24.24,0,0,1,.32.17"/><path class="cls-1" d="M57,30.2c0,.05,0,.13-.08.1h-.06A1.68,1.68,0,0,1,56.07,29h.09A1.77,1.77,0,0,1,57,30.2"/><path class="cls-1" d="M55.92,29.76a.28.28,0,0,1-.13.26c-.15,0-.38,0-.41-.18s.14-.21.21-.28a.28.28,0,0,1,.33.2"/><path class="cls-1" d="M55,30.05c-.19.52-.72.78-1.08,1.17-.07,0,0-.15,0-.2A1.91,1.91,0,0,1,55,29.76c.22,0,0,.18,0,.29"/><path class="cls-1" d="M56,30.47c0,.13-.12.18-.19.25a.37.37,0,0,1-.3-.15c0-.14.09-.18.17-.26a.29.29,0,0,1,.32.16"/><path class="cls-1" d="M45.71,5.08a.35.35,0,0,1,0,.69H41.59a.35.35,0,0,1,0-.69Zm-2.91.6c.4,0,0-.49-.19-.49h-.4c-.41,0,0,.49.19.49Zm1.69,0c.4,0,0-.49-.19-.49h-.4c-.41,0,0,.49.19.49Zm1.24-.49h-.15c-.41,0-.06.49.16.49s.28-.49,0-.49"/><path class="cls-1" d="M45.35,9.8l.79.31.77-.31L46.61,11l.61-.13-.21.71.21.67-.54-.15.23,1.25-.77-.3-.79.3.32-1.25-.63.18.17-.7L45,10.86l.61.1Zm1.16,2.09c.18,0,.19-.24.19-.45,0-.48-.37,0-.57-.45-.14.38-.53,0-.53.44s0,.46.28.46Zm-.77-.43c0,.19.24.06.43.06s.42.13.42-.06-.24-.16-.42-.16-.43-.09-.43.16"/><polygon class="cls-1" points="43.51 11.51 43.51 11.36 43.38 11.34 43.48 11.23 43.41 11.11 43.55 11.13 43.63 10.98 43.71 11.12 43.85 11.11 43.79 11.23 43.89 11.34 43.76 11.36 43.76 11.51 43.63 11.42 43.51 11.51"/><polygon class="cls-1" points="42.9 12.29 42.9 12.15 42.77 12.12 42.87 12.02 42.81 11.9 42.94 11.91 43.02 11.77 43.1 11.91 43.24 11.9 43.18 12.02 43.28 12.12 43.15 12.15 43.15 12.29 43.02 12.2 42.9 12.29"/><polygon class="cls-1" points="43.94 12.2 43.94 12.05 43.8 12.02 43.91 11.91 43.84 11.8 43.98 11.81 44.06 11.67 44.14 11.81 44.28 11.8 44.21 11.91 44.31 12.02 44.19 12.05 44.19 12.2 44.06 12.1 43.94 12.2"/><polygon class="cls-1" points="44.06 12.78 44.06 12.7 43.98 12.69 44.04 12.62 44.01 12.56 44.08 12.56 44.13 12.48 44.17 12.56 44.26 12.56 44.22 12.62 44.27 12.69 44.2 12.7 44.2 12.78 44.13 12.73 44.06 12.78"/><polygon class="cls-1" points="43.1 13.45 43.1 13.2 42.87 13.16 43.05 12.97 42.94 12.77 43.17 12.79 43.3 12.55 43.45 12.79 43.68 12.77 43.57 12.97 43.75 13.16 43.52 13.2 43.52 13.45 43.3 13.3 43.1 13.45"/><polygon class="cls-1" points="43.59 0.26 44.08 1.47 45.31 1.1 44.69 2.23 45.74 2.98 44.47 3.19 44.54 4.49 43.59 3.62 42.63 4.49 42.7 3.19 41.43 2.98 42.48 2.23 41.86 1.1 43.1 1.47 43.59 0.26"/><path class="cls-1" d="M39.1,27.23c-.14.05-.2.1-.16.25l.17.73a.69.69,0,0,1,0,.49.87.87,0,0,1-.5.3,1.11,1.11,0,0,1-.6,0,.46.46,0,0,1-.28-.37l-.18-.78c0-.19-.13-.18-.28-.16l0-.05.93-.23,0,.06c-.18.05-.27.07-.22.28l.19.77c0,.13.1.45.5.35a.44.44,0,0,0,.37-.61l-.17-.71c0-.14-.08-.21-.32-.16l0-.06.61-.15Z"/><path class="cls-1" d="M40.48,27.38a.58.58,0,0,0-.63-.31c-.14,0-.28.14-.25.29s.09.17.34.21l.45.08a.49.49,0,0,1,.39.36c0,.2-.06.52-.57.64a2.6,2.6,0,0,1-.49,0c-.06,0-.06.05-.06.09l-.09,0-.12-.57.07,0a.6.6,0,0,0,.68.37c.33-.08.3-.31.29-.34s-.17-.18-.37-.21l-.2,0c-.52-.09-.56-.29-.58-.39s0-.48.51-.6a2.69,2.69,0,0,1,.45,0c.06,0,.06-.05.07-.1l.08,0,.11.51Z"/><path class="cls-1" d="M42.32,28.3l-1,.1v-.06c.2,0,.27-.05.25-.25l-.12-1.24c-.2,0-.49.07-.51.45h-.08l0-.48,1.68-.16.06.47h-.08c-.1-.37-.38-.36-.58-.35L42,28.05c0,.2.09.2.3.19Z"/><path class="cls-1" d="M44.67,28.3h-.58l-.57-.76h-.08V28c0,.19.05.2.24.22v.06l-1,0V28.2c.2,0,.25,0,.26-.21l0-1c0-.2-.09-.21-.25-.23v-.06l.91,0c.2,0,.8,0,.8.44s-.3.36-.46.4l.56.68a.12.12,0,0,0,.11,0Zm-1.22-.84c.37,0,.51-.05.52-.36s-.11-.34-.34-.35-.16,0-.17.1Z"/><path class="cls-1" d="M46.53,28.54l-.91-.12v-.05c.17,0,.22,0,.23-.07a1.17,1.17,0,0,0-.09-.33l-.63-.08a1.09,1.09,0,0,0-.16.29c0,.09.12.11.22.13v.06l-.57-.07v-.06c.15,0,.2-.07.31-.24l.78-1.21h.08l.47,1.32c.1.27.13.36.27.37Zm-.79-.66-.21-.61-.34.54Z"/><path class="cls-1" d="M48.18,28.87l-1.61-.29v-.06c.16,0,.24,0,.27-.12l.2-1.13c0-.16-.08-.18-.2-.21V27l1,.18v.06c-.2,0-.29,0-.32.16l-.2,1.1c0,.12,0,.14.22.18a.7.7,0,0,0,.79-.33l.08,0Z"/><path class="cls-1" d="M49.25,29.11l-1-.2v-.06c.15,0,.26,0,.29-.11l.24-1.12c0-.16-.1-.19-.23-.22v-.06l1,.2v.06c-.13,0-.26-.05-.3.11L49,28.84c0,.15.08.18.23.22Z"/><path class="cls-1" d="M51.22,29.37l-.92-.1v-.06c.17,0,.23,0,.23-.07a1.17,1.17,0,0,0-.09-.33l-.64-.06a1.53,1.53,0,0,0-.15.29c0,.09.13.11.22.13v.06l-.57-.06v-.06c.15,0,.2-.08.3-.25l.76-1.23h.08l.5,1.3c.1.27.14.36.27.37Zm-.81-.65-.22-.6-.33.54Z"/><path class="cls-1" d="M44,10.19c0-.57-.33,0-.5-.52-.13.41-.52.06-.52.5,0,.18,0,.27.13.32v.17a.08.08,0,0,0,.08.08h.6a.07.07,0,0,0,.08-.08v-.18a.35.35,0,0,0,.13-.29m-.5.11c-.17,0-.39.11-.39-.08s.19-.22.36-.22.42-.06.42.22-.22.08-.39.08"/><path class="cls-1" d="M48.94,17.2a.24.24,0,1,0,0-.47.24.24,0,1,0,0,.47"/><path class="cls-1" d="M47.71,8.74a1.78,1.78,0,0,0-.12.24.13.13,0,0,0,.13.14A.13.13,0,0,0,47.84,9l-.13-.24"/><path class="cls-1" d="M39.33,8.74A1.73,1.73,0,0,0,39.2,9a.13.13,0,0,0,.13.14A.13.13,0,0,0,39.45,9l-.12-.24"/><path class="cls-1" d="M41.42,8.74A1.78,1.78,0,0,0,41.3,9a.13.13,0,1,0,.25,0l-.13-.24"/><path class="cls-1" d="M43.52,8.74A1.78,1.78,0,0,0,43.4,9a.13.13,0,0,0,.12.14A.13.13,0,0,0,43.65,9l-.13-.24"/><path class="cls-1" d="M45.62,8.74a1.73,1.73,0,0,0-.13.24.13.13,0,0,0,.13.14A.13.13,0,0,0,45.74,9l-.12-.24"/><path class="cls-1" d="M39.33,11.62a1.33,1.33,0,0,1,.12.24.12.12,0,1,1-.24,0l.12-.24"/><path class="cls-1" d="M39.33,14.42a1.33,1.33,0,0,1,.12.24.12.12,0,1,1-.24,0l.12-.24"/><path class="cls-1" d="M39.67,16.63a1.33,1.33,0,0,1,.12.24.13.13,0,1,1-.25,0l.13-.24"/><path class="cls-1" d="M41.42,17.81a1.29,1.29,0,0,1,.13.24.13.13,0,0,1-.13.14.13.13,0,0,1-.12-.14l.12-.24"/><path class="cls-1" d="M47.82,11.62a1.33,1.33,0,0,0-.12.24.13.13,0,0,0,.12.14.13.13,0,0,0,.13-.14l-.13-.24"/><path class="cls-1" d="M47.82,14.42a1.33,1.33,0,0,0-.12.24.13.13,0,0,0,.12.14.13.13,0,0,0,.13-.14l-.13-.24"/><path class="cls-1" d="M47.48,16.63a1.33,1.33,0,0,0-.12.24.13.13,0,1,0,.25,0l-.13-.24"/><path class="cls-1" d="M45.73,17.81a1.29,1.29,0,0,0-.13.24.13.13,0,0,0,.13.14.13.13,0,0,0,.12-.14l-.12-.24"/><path class="cls-1" d="M43.59,19.05a1.42,1.42,0,0,0-.13.25.13.13,0,0,0,.13.13.13.13,0,0,0,.12-.13l-.12-.25"/><path class="cls-1" d="M47,14.88s.09.06.17,0l.08-.22s-.09-.11-.15-.09c-.22.05-.46.08-.59.29a.46.46,0,0,0,.21.35c.08,0,.09,0,.14.09a.09.09,0,0,1-.09.12c-.15-.16-.43.05-.55-.15.05-.19.16-.42,0-.61,0,0,.09-.08,0-.12-.06-.19-.26,0-.38,0a.52.52,0,0,0-.47.24.38.38,0,0,0,.1.2s.08,0,.09,0l-.13.09s0,.09.06.14-.19-.09-.23-.16,0-.29-.13-.32a.43.43,0,0,0-.11,0A.32.32,0,0,0,45,15a1,1,0,0,0,.05.24,2.29,2.29,0,0,1,.5.48c-.12.24-.12.58-.39.71-.08.05-.08.13-.08.21l.06.05c.17-.09.5-.12.48-.41a1,1,0,0,1,.25-.34.27.27,0,0,1,.3.14.53.53,0,0,1-.35.4s0,.07,0,.11.2.05.28,0,.32-.41.51-.49c0,.13-.26.17-.07.3.12,0,.27,0,.35-.14-.09-.23.32-.34.07-.54,0-.2.21-.27.19-.49s-.33-.21-.39-.41a.31.31,0,0,1,.28,0"/><path class="cls-1" d="M37.36,17.3a.25.25,0,0,0,.26-.23.24.24,0,0,0-.26-.23.25.25,0,0,0-.26.23.25.25,0,0,0,.26.23"/><path class="cls-1" d="M23.77,25.24a.25.25,0,1,0,0-.49.25.25,0,1,0,0,.49"/><path class="cls-1" d="M32.42,27.17h0l0,0h0s0,0,0,0h0s0,0,0,0v0h0a0,0,0,0,1,0,0h0v0Zm0,0h0a0,0,0,0,0,0,0h0Z"/><path class="cls-1" d="M32.45,27.14s0,0,0,0h0s0,0,0,0h0s0,0,0,0,0,0,0,0h0v0h0s0,0,0,0,0,0,0,0h0s0,0,0,0h0v0Z"/><path class="cls-1" d="M32.54,27.12h0l0,0h0l0,0v0h0v0h0v0h0v0h0Z"/><path class="cls-1" d="M32.54,27.17s0,0,0,0h0a0,0,0,0,1,0,0,0,0,0,0,1,0,0s0,0,0,0m0,0h0v0h0v0Z"/><path class="cls-1" d="M32.59,27.14h0s0,0,0,0h0a0,0,0,0,1,0,0h0a0,0,0,0,0,0,0h0v0h0Z"/><path class="cls-1" d="M48.41,8.41H38.73V15.8a1.77,1.77,0,0,0,.76,1.62l3.72,2.36a.44.44,0,0,0,.65,0l3.77-2.39a1.77,1.77,0,0,0,.76-1.62V8.41Zm-.27,7.49a1.7,1.7,0,0,1-.63,1.29l-3.65,2.32h0a.45.45,0,0,1-.28.1.48.48,0,0,1-.29-.1l-3.64-2.32A1.73,1.73,0,0,1,39,15.9V8.67h9.14Z"/><path class="cls-1" d="M44.87,19.18l.12-.05-.12.05"/><path class="cls-1" d="M37.57,29.29l-.91.11v-.06c.17,0,.22,0,.21-.12a1.77,1.77,0,0,0-.16-.3l-.64.08a1.64,1.64,0,0,0-.09.31c0,.09.15.08.25.08v.06l-.58.06v-.05c.14,0,.17-.13.24-.31l.48-1.37h.07l.77,1.17c.16.24.21.31.35.29Zm-.92-.46-.34-.54-.21.61Z"/><path class="cls-1" d="M53.6,25.83a1.45,1.45,0,0,0-1-.87,1.19,1.19,0,0,0-1.2.31c-.5.4-.15,1.07-.14,1.62,0,.11,0,.2-.1.25-2-.18-3.89-.68-5.88-.9-.47-.07-.93-.06-1.36-.14L43.41,26a23.17,23.17,0,0,0-5.1.57c-.35.11-.73.14-1.08.27-.25-.05-.46.14-.7.06l-.45.11a.27.27,0,0,1-.15,0c-.23-.57.44-.92.23-1.48a1,1,0,0,0-1-.57,1.16,1.16,0,0,0-1.11.57c-.32.7.09,1.43.21,2.11,0,.23.22.48,0,.66A1.87,1.87,0,0,0,32.73,28c-.17.08-.47,0-.55.16a4,4,0,0,0,2,.26c.09,0,.14-.05.21,0,.06.37-.07.85.15,1.17a1.42,1.42,0,0,0,1.07.47,16,16,0,0,0,3.58-.72c.19,0,.33-.11.52-.11a9.74,9.74,0,0,1,2-.26,3.3,3.3,0,0,0-.58,1.26c-.17.37.29.43.43.64a9.45,9.45,0,0,0-1.14.59,15.16,15.16,0,0,0-2.47.4c0,.18.29.13.32.31s-.17.14-.26.21,0,.1.08.11.26,0,.34-.12c.28,0,.52-.09.78-.1a2.56,2.56,0,0,0,.71-.28c.29-.08.47-.28.76-.37s.8-.14,1.18-.16v.08c-.32.52-.65,1.05-1,1.54a.15.15,0,0,0,.09.22.74.74,0,0,0,.55-.08c.29-.51.55-1,.79-1.5a2,2,0,0,1,.79-1s.14-.11.19,0a6.73,6.73,0,0,0-.66,1,1.18,1.18,0,0,0,.2,1.22c.17.14.42.1.64.11.55-.28,1.24.17,1.66-.36.25,0,.29.25.42.39s.5.31.73.14c0-.15-.18-.29-.26-.43-.17-.3-.38-.53-.53-.8s-.2-.32-.23-.52a5,5,0,0,0,.76.3,4.25,4.25,0,0,1,.75.22,2.36,2.36,0,0,0,.69.53c.35.17.74.2,1.1.34.14,0,.34.12.44,0a.69.69,0,0,0-.21-.16c0-.18.25-.08.35-.22a.22.22,0,0,0-.16-.11c-.2-.1-.7-.14-.83-.21s-.31-.1-.48-.15c-.84,0-1.3-.76-2-1,.15-.14.39-.25.49-.46a.81.81,0,0,0,0-.74c-.12-.44-.69-.38-1-.62l0,0a6,6,0,0,1,1.5.19,34.14,34.14,0,0,0,4,.72c.76,0,1.72,0,2.09-.7.07-.43.15-.87.23-1.3a6.64,6.64,0,0,0,.55-2.11m-15,6.37L38.41,32c.1-.13.3-.06.46-.14a2.48,2.48,0,0,1,1.18-.17,3.29,3.29,0,0,1-1.45.49M47.27,32a5.85,5.85,0,0,0,1.48.35c0,.19-.38,0-.34.28A3.21,3.21,0,0,1,47.16,32s.06-.05.11,0M34.25,26a1,1,0,0,1,.33-.71,1.17,1.17,0,0,1,1.09.05.59.59,0,0,1,.23.26.62.62,0,0,1-.21.63h-.14a1.63,1.63,0,0,1,.08-.63c0-.16-.15-.18-.26-.25a.86.86,0,0,0-.63.14.65.65,0,0,0-.18.62c.1.15,0,.36.07.53l0,.06c-.17-.19-.39-.38-.34-.7m.65.4c.2.15.5.08.75.12a.55.55,0,0,1-.07.48c-.24-.06-.54,0-.67-.25,0-.1,0-.24,0-.35m0-.47c0-.12,0-.28.15-.31s.25,0,.26.08a2.52,2.52,0,0,1-.07.49.32.32,0,0,1-.34-.26m6.51,4.49a1.48,1.48,0,0,1,.45-1.26.8.8,0,0,1,.59,0c-.36.1-.82.18-.9.65,0,.18,0,.28,0,.43s.5.16.69.36a.17.17,0,0,1-.12.17,5.22,5.22,0,0,1-.75-.37m-.5,1c.33-.14.68-.43,1.05-.31a1.94,1.94,0,0,1-1.05.31m1.32.14a11.64,11.64,0,0,1-.68,1.31c0,.07-.14.09-.23.1,0-.19.2-.35.28-.51.29-.38.38-.79.71-1.15.08.08-.08.14-.08.25m.34-.81v.06h0v-.08h.06a.08.08,0,0,0-.06,0Zm-.12-.38a3.46,3.46,0,0,1-.67-.17c-.13-.14,0-.29,0-.44a.71.71,0,0,1,1-.18,1.58,1.58,0,0,1-.35.79m.3,0a2.67,2.67,0,0,1,.23-.59,1.2,1.2,0,0,1-.23.59m.16-1.13c-.18,0-.28-.25-.48-.25a1.05,1.05,0,0,1,.53,0c.07.1,0,.19-.05.27m.16.42h0V29.5h0Zm0,.64c0-.05,0-.13,0-.19s.14.05.16.09a.2.2,0,0,1-.2.1m.2-.86a1.89,1.89,0,0,1,.21-.52.92.92,0,0,1,.38,0c0,.28.37.66,0,.9-.13.05-.31.18-.45.05a.39.39,0,0,1-.14-.48m1-.4c0-.12.13,0,.18-.08l.43,0c-.22,0-.5.49-.61.05m.69.18c-.16.06-.29.26-.45.3a.56.56,0,0,1,.45-.3m-.58.91h0v0h0Zm0,.81s0,.07,0,.11l-.32-.26a.34.34,0,0,1,.35.15M44,30.51a.11.11,0,0,1,.13,0Zm-.19-.21c.06-.08.12-.21.22-.21s0,0,0,0a.7.7,0,0,1-.25.17m-.32,0h-.06l.09-.08s0,.06,0,.08m0,.54c.18-.2.35.11.42.26.21.31.75.59.54,1-.26.23-.68,0-1,.19-.16,0-.42,0-.5-.12a7.91,7.91,0,0,1,.51-1.34m-.39.26.07-.11a6,6,0,0,1-.46,1c-.08-.33.27-.6.39-.89m.61,1.66c-.26,0-.66.17-.91,0,0-.11-.11-.17-.1-.28.22-.09.42.18.62,0a5.35,5.35,0,0,1,1,0c.15.05.38-.25.41.05-.11.46-.66.13-1,.27m.81-2h0v0h0Zm.08.92c0,.14.15.19.07.33a.45.45,0,0,1-.07-.33m.39.84-.07,0c-.07-.06,0-.21,0-.29s.16.16.1.26m.7.34a.07.07,0,0,1-.11,0,7.1,7.1,0,0,1-.88-1.68h0c.34.54.6,1.15.94,1.68m.51-1.29s0,0,0,.06a1.64,1.64,0,0,1-1-.44l0-.06a2.5,2.5,0,0,1,1,.44m-.36-1.86c.16,0,.18.22.2.36a.76.76,0,0,1-.48.69.73.73,0,0,1-.54.05.87.87,0,0,0,.83-.47Zm-.31-.05a.91.91,0,0,1,.13.61c-.14.27-.42.27-.67.32a.47.47,0,0,1-.32-.1.16.16,0,0,0-.05-.14c0-.18-.32-.36-.07-.51s.75-.69,1-.18m7-1c-.1.14,0,.37-.15.49s-.21.38-.39.48c-1.65.36-3.27-.2-4.87-.48a16.92,16.92,0,0,0-7.12-.11c-1.07.2-2.11.45-3.14.74a4.53,4.53,0,0,1-1.94,0c-.5-.24-.3-.88-.45-1.33a7.78,7.78,0,0,0-.11-1,.91.91,0,0,1-.06-.36,6.34,6.34,0,0,1,.64.24,8.62,8.62,0,0,0,3.29-.35,24.11,24.11,0,0,1,3.21-.49,20.85,20.85,0,0,1,3.72.13c.39,0,.73.11,1.1.13.78.1,1.5.31,2.29.37.13,0,.28,0,.42.07,1.25.2,2.65.55,3.84,0a9.05,9.05,0,0,1-.28,1.45m-.38-1.7c0,.22-.2.17-.31.25h-.33a.75.75,0,0,1,0-.39,2.65,2.65,0,0,1,.68.14m-.16-.35c.16-.16,0-1,.39-.46,0,.11,0,.28-.09.36s-.18.17-.3.1m1.13-.14a.8.8,0,0,1-.6.47c0-.33.32-.57.21-.95A.83.83,0,0,0,52,25.6c-.12.09-.06.23-.11.35l0,.46c-.28,0-.29-.25-.38-.44a.82.82,0,0,1,.43-.73,1,1,0,0,1,.81,0,.62.62,0,0,1,.46.29c.21.2.15.55.11.8"/><rect class="cls-1" x="98.29" width="0.44" height="44"/></g></g></svg>