<svg xmlns="http://www.w3.org/2000/svg" viewBox="0 0 316.84 58.87"><defs><style>.a,.b{fill:#fff;}.b{fill-rule:evenodd;}</style></defs><title>Asset 26</title><path class="a" d="M144.85,43.35h5.3a5,5,0,0,1,3.54,1.24,3.31,3.31,0,0,1,1,2.34v0c0,2.11-1.57,3.31-3.69,3.6L155.12,56h-1.19l-4-5.22h-4.12V56h-.94ZM150,49.89c2.11,0,3.67-1.07,3.67-2.88v0c0-1.69-1.33-2.76-3.62-2.76h-4.3v5.68Z"/><path class="a" d="M156.86,51.38v0a4.52,4.52,0,0,1,4.36-4.78c2.57,0,4.21,2.08,4.21,4.8a2.06,2.06,0,0,1,0,.36H157.8a3.64,3.64,0,0,0,3.6,3.62,4.13,4.13,0,0,0,3.15-1.44l.61.54a4.84,4.84,0,0,1-3.8,1.73A4.57,4.57,0,0,1,156.86,51.38Zm7.62-.45c-.13-1.85-1.19-3.57-3.3-3.57a3.58,3.58,0,0,0-3.38,3.57Z"/><path class="a" d="M167.64,57.47l.52-.72A6,6,0,0,0,171.87,58a3.29,3.29,0,0,0,3.6-3.56V53.15a4.56,4.56,0,0,1-3.83,2.12A4.34,4.34,0,0,1,167.23,51v0a4.36,4.36,0,0,1,4.41-4.35,4.54,4.54,0,0,1,3.83,2V46.77h.89v7.76a4.31,4.31,0,0,1-1.17,3.12,4.67,4.67,0,0,1-3.34,1.22A7,7,0,0,1,167.64,57.47Zm7.89-6.54v0a3.64,3.64,0,0,0-3.8-3.49,3.39,3.39,0,0,0-3.55,3.48v0a3.49,3.49,0,0,0,3.55,3.51A3.66,3.66,0,0,0,175.53,50.93Z"/><path class="a" d="M179.54,43.17h1.1v1.21h-1.1Zm.11,3.6h.88V56h-.88Z"/><path class="a" d="M183,54.8l.52-.7a5.44,5.44,0,0,0,3.3,1.21c1.24,0,2.21-.69,2.21-1.75v0c0-1.08-1.15-1.47-2.43-1.83-1.49-.44-3.15-.89-3.15-2.52v0c0-1.48,1.24-2.54,3-2.54a6.19,6.19,0,0,1,3.25,1l-.46.74a5.29,5.29,0,0,0-2.83-.92c-1.26,0-2.09.68-2.09,1.6v0c0,1,1.24,1.4,2.56,1.78,1.47.41,3,.95,3,2.57v0c0,1.64-1.4,2.68-3.17,2.68A6.29,6.29,0,0,1,183,54.8Z"/><path class="a" d="M193.08,53.6v-6h-1.34v-.81h1.34V43.84H194v2.93h3.22v.81H194v5.93a1.61,1.61,0,0,0,1.83,1.78,3,3,0,0,0,1.35-.33v.83a3.27,3.27,0,0,1-1.49.33A2.35,2.35,0,0,1,193.08,53.6Z"/><path class="a" d="M199.61,46.77h.88v2.61a4.34,4.34,0,0,1,4.07-2.75v1h-.09c-2.12,0-4,1.6-4,4.59V56h-.88Z"/><path class="a" d="M205.87,53.29v0c0-1.91,1.64-3,4-3a11.15,11.15,0,0,1,3,.4v-.4c0-1.85-1.13-2.81-3-2.81a6.14,6.14,0,0,0-2.88.74l-.33-.77a7.36,7.36,0,0,1,3.26-.79,4,4,0,0,1,2.9,1,3.48,3.48,0,0,1,.94,2.59V56h-.87V54.42a4.15,4.15,0,0,1-3.51,1.75C207.71,56.17,205.87,55.2,205.87,53.29Zm7.08-.78v-1a12.16,12.16,0,0,0-3.12-.41c-1.94,0-3,.86-3,2.14v0c0,1.34,1.26,2.11,2.66,2.11C211.35,55.34,213,54.19,213,52.51Z"/><path class="a" d="M217.27,53.6v-6h-1.34v-.81h1.34V43.84h.88v2.93h3.22v.81h-3.22v5.93A1.61,1.61,0,0,0,220,55.29a3,3,0,0,0,1.35-.33v.83a3.34,3.34,0,0,1-1.5.33A2.35,2.35,0,0,1,217.27,53.6Z"/><path class="a" d="M223.82,43.17h1.1v1.21h-1.1Zm.11,3.6h.88V56h-.88Z"/><path class="a" d="M227.47,51.4v0a4.74,4.74,0,0,1,4.74-4.8,4.69,4.69,0,0,1,4.7,4.77v0a4.75,4.75,0,0,1-4.74,4.81A4.7,4.7,0,0,1,227.47,51.4Zm8.48,0v0a3.85,3.85,0,0,0-3.78-4,3.79,3.79,0,0,0-3.74,3.95v0a3.84,3.84,0,0,0,3.78,4A3.78,3.78,0,0,0,236,51.4Z"/><path class="a" d="M239.44,46.77h.88v1.71a3.6,3.6,0,0,1,3.32-1.92,3.49,3.49,0,0,1,3.67,3.78V56h-.88V50.5a2.81,2.81,0,0,0-2.92-3.14,3.15,3.15,0,0,0-3.19,3.28V56h-.88Z"/><path class="a" d="M254.9,54.12l.62-.71A6.1,6.1,0,0,0,260,55.29c1.89,0,3.18-1.06,3.18-2.51v0c0-1.33-.7-2.11-3.56-2.68-3-.62-4.25-1.64-4.25-3.55v0c0-1.87,1.71-3.31,4-3.31a6.26,6.26,0,0,1,4.32,1.53l-.59.74A5.42,5.42,0,0,0,259.42,44c-1.85,0-3.08,1.06-3.08,2.37v0c0,1.33.69,2.14,3.68,2.75s4.14,1.64,4.14,3.48v0c0,2-1.75,3.44-4.18,3.44A7.18,7.18,0,0,1,254.9,54.12Z"/><path class="a" d="M266.23,51.38v0a4.52,4.52,0,0,1,4.35-4.78c2.58,0,4.22,2.08,4.22,4.8a2.06,2.06,0,0,1,0,.36h-7.62a3.64,3.64,0,0,0,3.6,3.62,4.1,4.1,0,0,0,3.15-1.44l.62.54a4.84,4.84,0,0,1-3.8,1.73A4.56,4.56,0,0,1,266.23,51.38Zm7.61-.45c-.12-1.85-1.19-3.57-3.29-3.57a3.59,3.59,0,0,0-3.39,3.57Z"/><path class="a" d="M277.19,46.77h.88v2.61a4.34,4.34,0,0,1,4.07-2.75v1h-.09c-2.13,0-4,1.6-4,4.59V56h-.88Z"/><path class="a" d="M283.27,46.77h1L287.77,55l3.51-8.19h1L288.15,56h-.76Z"/><path class="a" d="M294.52,43.17h1.1v1.21h-1.1Zm.11,3.6h.88V56h-.88Z"/><path class="a" d="M298.18,51.4v0a4.76,4.76,0,0,1,4.68-4.8,4.82,4.82,0,0,1,3.67,1.69l-.63.65a4.14,4.14,0,0,0-3.06-1.52,3.8,3.8,0,0,0-3.71,3.95v0a3.86,3.86,0,0,0,3.78,4A4.07,4.07,0,0,0,306,53.81l.61.54a4.7,4.7,0,0,1-8.42-3Z"/><path class="a" d="M308.27,51.38v0a4.53,4.53,0,0,1,4.36-4.78c2.58,0,4.21,2.08,4.21,4.8,0,.16,0,.22,0,.36h-7.62a3.64,3.64,0,0,0,3.6,3.62A4.12,4.12,0,0,0,316,53.9l.61.54a4.81,4.81,0,0,1-3.8,1.73A4.57,4.57,0,0,1,308.27,51.38Zm7.62-.45c-.13-1.85-1.19-3.57-3.3-3.57a3.59,3.59,0,0,0-3.38,3.57Z"/><path class="a" d="M145.32,7.86h11.37c2.9,0,5.18.8,6.63,2.25a5.66,5.66,0,0,1,1.7,4.2v.08A6,6,0,0,1,161.4,20c3,1,5,2.71,5,6.15v.08c0,4.52-3.74,7-9.38,7H145.32ZM160.57,15c0-2-1.6-3.23-4.46-3.23H149.7v6.74h6.08c2.87,0,4.79-1.12,4.79-3.44Zm-3.81,7.28H149.7v7h7.39c3,0,4.89-1.19,4.89-3.47v-.08c0-2.13-1.7-3.4-5.22-3.4"/><path class="a" d="M169.66,26.27V14.1H174V25c0,3,1.49,4.64,4.1,4.64s4.31-1.74,4.31-4.71V14.1h4.42V33.22h-4.42v-3a6.89,6.89,0,0,1-6,3.37c-4.31,0-6.81-2.9-6.81-7.35"/><path class="a" d="M189.7,30.72l2-3a10.84,10.84,0,0,0,6.27,2.36c1.88,0,3-.8,3-2.07V28c0-1.49-2-2-4.27-2.68-2.83-.8-6-2-6-5.62V19.6c0-3.62,3-5.83,6.81-5.83a13.27,13.27,0,0,1,7,2.17l-1.75,3.12a11,11,0,0,0-5.39-1.81c-1.71,0-2.68.79-2.68,1.88v.08c0,1.4,2.06,2,4.31,2.71,2.79.87,5.94,2.14,5.94,5.58v.07c0,4-3.12,6-7.1,6a13.37,13.37,0,0,1-8.11-2.86"/><path class="a" d="M208.39,7h4.71v4.17h-4.71Zm.18,7.11H213V33.22h-4.38Z"/><path class="a" d="M217.59,14.1H222V17a6.94,6.94,0,0,1,6-3.34c4.31,0,6.81,2.9,6.81,7.32V33.22h-4.38V22.35c0-3-1.49-4.67-4.1-4.67S222,19.45,222,22.43V33.22h-4.38Z"/><path class="a" d="M237.91,23.73v-.07c0-5.47,3.88-10,9.35-10,6.09,0,9.17,4.79,9.17,10.29,0,.4,0,.8-.08,1.24H242.3a5.34,5.34,0,0,0,5.5,4.85A7,7,0,0,0,253,27.79l2.57,2.28a9.72,9.72,0,0,1-7.83,3.59,9.55,9.55,0,0,1-9.82-9.93m14.17-1.41c-.29-2.83-2-5-4.86-5-2.68,0-4.56,2.07-5,5Z"/><path class="a" d="M258.19,30.72l2-3a10.81,10.81,0,0,0,6.27,2.36c1.89,0,3-.8,3-2.07V28c0-1.49-2-2-4.28-2.68-2.83-.8-6-2-6-5.62V19.6c0-3.62,3-5.83,6.81-5.83a13.27,13.27,0,0,1,7,2.17l-1.74,3.12a11,11,0,0,0-5.4-1.81c-1.7,0-2.68.79-2.68,1.88v.08c0,1.4,2.07,2,4.31,2.71,2.79.87,5.94,2.14,5.94,5.58v.07c0,4-3.11,6-7.1,6a13.42,13.42,0,0,1-8.12-2.86"/><path class="a" d="M275.26,30.72l2-3a10.81,10.81,0,0,0,6.27,2.36c1.88,0,3-.8,3-2.07V28c0-1.49-2-2-4.28-2.68-2.83-.8-6-2-6-5.62V19.6c0-3.62,3-5.83,6.82-5.83a13.24,13.24,0,0,1,7,2.17l-1.74,3.12a11,11,0,0,0-5.39-1.81c-1.71,0-2.68.79-2.68,1.88v.08c0,1.4,2.06,2,4.3,2.71,2.8.87,5.94,2.14,5.94,5.58v.07c0,4-3.11,6-7.09,6a13.42,13.42,0,0,1-8.12-2.86"/><path class="b" d="M4.94,53.39H2.11l-.34.77a1.74,1.74,0,0,0-.16.64.51.51,0,0,0,.27.5,2.28,2.28,0,0,0,.78.15v.22H0v-.22a1.24,1.24,0,0,0,.71-.36,5,5,0,0,0,.68-1.21L4.25,47.5h.12l2.88,6.56a4,4,0,0,0,.68,1.17.93.93,0,0,0,.57.22v.22H4.63v-.22h.15a1.17,1.17,0,0,0,.66-.14A.3.3,0,0,0,5.57,55a.52.52,0,0,0,0-.21,2.63,2.63,0,0,0-.17-.45ZM4.73,53,3.54,50.2,2.31,53Z"/><path class="a" d="M13.4,50.15v4.32a1.59,1.59,0,0,0,.12.79.65.65,0,0,0,.48.19v.22H11.75v-.75a3.08,3.08,0,0,1-.79.7,1.83,1.83,0,0,1-.89.21,1.36,1.36,0,0,1-.83-.28,1.43,1.43,0,0,1-.48-.68,4.94,4.94,0,0,1-.13-1.34V51.34a1.39,1.39,0,0,0-.12-.77A.72.72,0,0,0,8,50.36v-.21h2.25v3.76a3.58,3.58,0,0,0,.06.77.62.62,0,0,0,.17.26.49.49,0,0,0,.29.08.7.7,0,0,0,.38-.1,2.74,2.74,0,0,0,.57-.62v-3a1.5,1.5,0,0,0-.12-.77.77.77,0,0,0-.48-.21v-.21Z"/><path class="a" d="M17.86,50,18,51.87h-.21A2.94,2.94,0,0,0,17,50.73a1.21,1.21,0,0,0-.77-.31.57.57,0,0,0-.41.17.48.48,0,0,0-.17.37.53.53,0,0,0,.11.31,5.81,5.81,0,0,0,1.06.83,4.3,4.3,0,0,1,1.14,1,1.58,1.58,0,0,1,.27.92,2,2,0,0,1-.22.91,1.68,1.68,0,0,1-.65.67,1.84,1.84,0,0,1-.93.24,3,3,0,0,1-1-.25.93.93,0,0,0-.25-.06c-.13,0-.24.09-.32.29h-.2l-.09-2h.2A2.59,2.59,0,0,0,15.45,55a1.37,1.37,0,0,0,.87.39.6.6,0,0,0,.46-.18.53.53,0,0,0,.18-.42.72.72,0,0,0-.17-.49,4.53,4.53,0,0,0-.79-.63,6.16,6.16,0,0,1-1.17-1,1.66,1.66,0,0,1-.39-1.07,1.74,1.74,0,0,1,.44-1.15A1.56,1.56,0,0,1,16.15,50a1.93,1.93,0,0,1,.87.22.58.58,0,0,0,.25.09.4.4,0,0,0,.18,0,1.54,1.54,0,0,0,.21-.26Z"/><path class="a" d="M20.78,48.13v2h1.31v.58H20.78v3.4a2.67,2.67,0,0,0,0,.62A.48.48,0,0,0,21,55a.4.4,0,0,0,.2.08c.26,0,.51-.19.73-.58l.18.13a1.62,1.62,0,0,1-1.55,1.13,1.4,1.4,0,0,1-.89-.29,1.22,1.22,0,0,1-.46-.66,5.37,5.37,0,0,1-.06-1.08v-3h-.72v-.21a7.25,7.25,0,0,0,1.26-1.1,7.15,7.15,0,0,0,.92-1.29Z"/><path class="a" d="M24.78,50.15V51.4a4.05,4.05,0,0,1,1-1.13,1.46,1.46,0,0,1,.8-.29.69.69,0,0,1,.53.21.77.77,0,0,1,.19.57.88.88,0,0,1-.19.61.58.58,0,0,1-.46.22.8.8,0,0,1-.54-.2,2,2,0,0,0-.27-.22.23.23,0,0,0-.14,0,.45.45,0,0,0-.32.13,1.21,1.21,0,0,0-.37.57,4.21,4.21,0,0,0-.19,1.26V54.7a1.34,1.34,0,0,0,0,.43.57.57,0,0,0,.2.23,1.27,1.27,0,0,0,.48.09v.22h-3v-.22a.63.63,0,0,0,.48-.19,1.79,1.79,0,0,0,.13-.89V51.31a1.94,1.94,0,0,0-.05-.6.48.48,0,0,0-.16-.24,1,1,0,0,0-.4-.11v-.21Z"/><path class="b" d="M30.3,54.85a3,3,0,0,1-1.82.89,1.06,1.06,0,0,1-.78-.31,1,1,0,0,1-.31-.78,1.52,1.52,0,0,1,.54-1.13,9.76,9.76,0,0,1,2.37-1.34v-.56a2.28,2.28,0,0,0-.08-.78.57.57,0,0,0-.25-.29.74.74,0,0,0-.42-.12,1,1,0,0,0-.63.17.29.29,0,0,0-.16.25.51.51,0,0,0,.17.31.74.74,0,0,1,.22.49.67.67,0,0,1-.21.49.84.84,0,0,1-.57.2.89.89,0,0,1-.62-.22.69.69,0,0,1-.25-.53,1.24,1.24,0,0,1,.33-.81,2.17,2.17,0,0,1,.94-.59A3.77,3.77,0,0,1,30,50a2,2,0,0,1,1.24.34,1.53,1.53,0,0,1,.6.72,5,5,0,0,1,.08,1.14v2.14a2.11,2.11,0,0,0,0,.47.27.27,0,0,0,.09.15.23.23,0,0,0,.14,0c.1,0,.2-.07.31-.21l.18.14a2.19,2.19,0,0,1-.62.63,1.21,1.21,0,0,1-.71.2,1.11,1.11,0,0,1-.74-.22,1,1,0,0,1-.32-.67m0-.43V52.57a3.41,3.41,0,0,0-1.07.9,1.08,1.08,0,0,0-.22.64.68.68,0,0,0,.19.48.53.53,0,0,0,.41.16,1.14,1.14,0,0,0,.69-.33"/><path class="a" d="M35.09,47.66v6.86a1.33,1.33,0,0,0,.14.75.73.73,0,0,0,.53.18v.22h-3v-.22a.74.74,0,0,0,.54-.21,1.3,1.3,0,0,0,.12-.72V48.8a1.19,1.19,0,0,0-.14-.73.72.72,0,0,0-.52-.19v-.22Z"/><path class="b" d="M37.62,47.47a.86.86,0,0,1,.65.28.88.88,0,0,1,.26.64.85.85,0,0,1-.27.64.89.89,0,0,1-.64.27A.88.88,0,0,1,37,49a.92.92,0,0,1,.65-1.56m.82,2.68v4.37a1.33,1.33,0,0,0,.14.75.78.78,0,0,0,.53.18v.22h-3v-.22a.73.73,0,0,0,.54-.21,1.3,1.3,0,0,0,.12-.72V51.3a1.33,1.33,0,0,0-.14-.75.7.7,0,0,0-.52-.19v-.21Z"/><path class="b" d="M42.33,54.85a2.93,2.93,0,0,1-1.81.89,1.06,1.06,0,0,1-.79-.31,1,1,0,0,1-.31-.78A1.52,1.52,0,0,1,40,53.52a9.76,9.76,0,0,1,2.37-1.34v-.56a2.73,2.73,0,0,0-.07-.78.65.65,0,0,0-.26-.29.76.76,0,0,0-.42-.12,1,1,0,0,0-.63.17.3.3,0,0,0-.15.25.53.53,0,0,0,.16.31.74.74,0,0,1,.22.49.64.64,0,0,1-.22.49.78.78,0,0,1-.56.2.91.91,0,0,1-.62-.22.69.69,0,0,1-.25-.53,1.21,1.21,0,0,1,.34-.81,2.07,2.07,0,0,1,.93-.59A3.83,3.83,0,0,1,42.06,50a2,2,0,0,1,1.23.34,1.53,1.53,0,0,1,.6.72A5,5,0,0,1,44,52.18v2.14a2.11,2.11,0,0,0,0,.47.27.27,0,0,0,.09.15.22.22,0,0,0,.13,0,.43.43,0,0,0,.32-.21l.17.14a2,2,0,0,1-.61.63,1.23,1.23,0,0,1-.71.2,1.11,1.11,0,0,1-.74-.22,1,1,0,0,1-.32-.67m0-.43V52.57a3.36,3.36,0,0,0-1.06.9,1,1,0,0,0-.24.64.69.69,0,0,0,.2.48.53.53,0,0,0,.41.16,1.14,1.14,0,0,0,.69-.33"/><path class="a" d="M47.1,50.15v.71a2.87,2.87,0,0,1,.81-.66,1.65,1.65,0,0,1,.84-.22,1.35,1.35,0,0,1,.89.3,1.5,1.5,0,0,1,.47.74,5.72,5.72,0,0,1,.1,1.29v2.15a1.85,1.85,0,0,0,.1.8.7.7,0,0,0,.49.19v.22H48v-.22a.55.55,0,0,0,.45-.26,1.6,1.6,0,0,0,.09-.73V52a4.5,4.5,0,0,0,0-.85.48.48,0,0,0-.18-.27.44.44,0,0,0-.28-.1c-.34,0-.65.24-.94.72v3a1.74,1.74,0,0,0,.11.78.54.54,0,0,0,.43.21v.22H44.85v-.22a.69.69,0,0,0,.49-.22,1.71,1.71,0,0,0,.11-.77V51.34a1.46,1.46,0,0,0-.13-.77.69.69,0,0,0-.47-.21v-.21Z"/><path class="a" d="M61.67,47.48V50.3h-.22a3.63,3.63,0,0,0-1.19-1.76,2.78,2.78,0,0,0-1.73-.6,2.21,2.21,0,0,0-1.49.51,2.64,2.64,0,0,0-.84,1.4,7.33,7.33,0,0,0,0,3.87A2.34,2.34,0,0,0,57.09,55a2.56,2.56,0,0,0,1.44.4,2.41,2.41,0,0,0,.59-.06,3.73,3.73,0,0,0,.63-.18V53.5a1.55,1.55,0,0,0-.07-.61.57.57,0,0,0-.27-.26,1,1,0,0,0-.49-.11h-.2V52.3h3.89v.22a1.77,1.77,0,0,0-.63.13.6.6,0,0,0-.26.3,1.53,1.53,0,0,0,0,.55v1.66a8.31,8.31,0,0,1-1.6.52,8.09,8.09,0,0,1-1.72.17,5,5,0,0,1-1.9-.31,4.78,4.78,0,0,1-1.32-.81,3.91,3.91,0,0,1-.9-1.14,4,4,0,0,1-.41-1.82,4.14,4.14,0,0,1,1.27-3.05,4.37,4.37,0,0,1,3.19-1.25,5.73,5.73,0,0,1,1.07.1,5,5,0,0,1,.84.27,4.22,4.22,0,0,0,.69.22.48.48,0,0,0,.31-.12,1.11,1.11,0,0,0,.26-.46Z"/><path class="b" d="M65.5,50a2.56,2.56,0,0,1,1.34.37,2.35,2.35,0,0,1,.93,1.06,3.58,3.58,0,0,1,.33,1.5,3.15,3.15,0,0,1-.6,2,2.34,2.34,0,0,1-2,1A2.29,2.29,0,0,1,63.59,55a3.4,3.4,0,0,1,0-4.08A2.23,2.23,0,0,1,65.5,50m0,.42a.71.71,0,0,0-.52.23,1.73,1.73,0,0,0-.29.9q-.06.66-.06,1.86a8.76,8.76,0,0,0,.08,1.18,1.19,1.19,0,0,0,.28.63.64.64,0,0,0,.49.22.65.65,0,0,0,.44-.15.93.93,0,0,0,.3-.56,13.26,13.26,0,0,0,.12-2.26,5.39,5.39,0,0,0-.11-1.38,1.1,1.1,0,0,0-.33-.55.63.63,0,0,0-.4-.12"/><path class="a" d="M70.7,55.83l-1.86-4.28a5,5,0,0,0-.52-1,.81.81,0,0,0-.4-.21v-.21h2.93v.21a.52.52,0,0,0-.38.11.36.36,0,0,0-.14.3,2.42,2.42,0,0,0,.26.82l.91,2.07.72-1.79a3.37,3.37,0,0,0,.31-1.08.35.35,0,0,0-.13-.29.69.69,0,0,0-.47-.14v-.21h1.81v.21a.78.78,0,0,0-.43.2,3.9,3.9,0,0,0-.49.94L71,55.83Z"/><path class="b" d="M78.08,52.7h-3a2.77,2.77,0,0,0,.58,1.74,1.21,1.21,0,0,0,1,.49,1.14,1.14,0,0,0,.64-.19,2.69,2.69,0,0,0,.62-.71l.2.12a3.36,3.36,0,0,1-1,1.3,2.09,2.09,0,0,1-1.26.38A2.12,2.12,0,0,1,74,54.89a3.34,3.34,0,0,1-.51-1.9,3.16,3.16,0,0,1,.75-2.19A2.29,2.29,0,0,1,76,50a1.87,1.87,0,0,1,1.45.69,3.08,3.08,0,0,1,.67,2m-1.45-.39a5.23,5.23,0,0,0-.11-1.3,1,1,0,0,0-.32-.54.49.49,0,0,0-.33-.11.61.61,0,0,0-.5.3A2.64,2.64,0,0,0,75,52.1v.21Z"/><path class="a" d="M80.7,50.15V51.4a3.75,3.75,0,0,1,1-1.13,1.4,1.4,0,0,1,.79-.29.68.68,0,0,1,.53.21.77.77,0,0,1,.2.57.88.88,0,0,1-.2.61.55.55,0,0,1-.46.22.76.76,0,0,1-.53-.2,2.6,2.6,0,0,0-.28-.22.23.23,0,0,0-.14,0,.49.49,0,0,0-.32.13,1.38,1.38,0,0,0-.37.57,4.22,4.22,0,0,0-.18,1.26V54.7a1.73,1.73,0,0,0,0,.43.52.52,0,0,0,.21.23,1.21,1.21,0,0,0,.47.09v.22h-3v-.22a.63.63,0,0,0,.48-.19,1.75,1.75,0,0,0,.14-.89V51.31a2.34,2.34,0,0,0,0-.6.5.5,0,0,0-.17-.24.92.92,0,0,0-.4-.11v-.21Z"/><path class="a" d="M85.78,50.15v.71a3.17,3.17,0,0,1,.81-.66,1.67,1.67,0,0,1,.84-.22,1.36,1.36,0,0,1,.9.3,1.5,1.5,0,0,1,.47.74,5.91,5.91,0,0,1,.09,1.29v2.15a1.61,1.61,0,0,0,.12.8.63.63,0,0,0,.48.19v.22H86.7v-.22a.55.55,0,0,0,.44-.26,1.56,1.56,0,0,0,.1-.73V52a4.5,4.5,0,0,0,0-.85.49.49,0,0,0-.19-.27.4.4,0,0,0-.28-.1c-.33,0-.65.24-.94.72v3a1.74,1.74,0,0,0,.11.78.57.57,0,0,0,.43.21v.22H83.53v-.22a.67.67,0,0,0,.5-.22,1.62,1.62,0,0,0,.1-.77V51.34a1.5,1.5,0,0,0-.12-.77.72.72,0,0,0-.48-.21v-.21Z"/><path class="a" d="M92.17,50.15v.73a3.22,3.22,0,0,1,.84-.7,1.9,1.9,0,0,1,.85-.2,1.53,1.53,0,0,1,.89.25,1.57,1.57,0,0,1,.56.75,3.3,3.3,0,0,1,.9-.76,1.88,1.88,0,0,1,.91-.24,1.43,1.43,0,0,1,.91.27,1.3,1.3,0,0,1,.47.66,4.48,4.48,0,0,1,.13,1.29v2.26a1.54,1.54,0,0,0,.12.79.7.7,0,0,0,.48.2v.22H96.38v-.22a.65.65,0,0,0,.5-.26,1.58,1.58,0,0,0,.1-.73V52.09a4.34,4.34,0,0,0-.06-.94.57.57,0,0,0-.18-.3.51.51,0,0,0-.3-.1.9.9,0,0,0-.51.19,2.4,2.4,0,0,0-.53.56v3a1.79,1.79,0,0,0,.1.75.62.62,0,0,0,.52.24v.22H93.17v-.22a.64.64,0,0,0,.36-.11.42.42,0,0,0,.17-.25,2.18,2.18,0,0,0,0-.63V52.09a5.37,5.37,0,0,0,0-.94.59.59,0,0,0-.21-.3.46.46,0,0,0-.29-.1.78.78,0,0,0-.44.13,2.36,2.36,0,0,0-.59.62v3a1.6,1.6,0,0,0,.12.77.58.58,0,0,0,.48.22v.22H89.93v-.22a.67.67,0,0,0,.49-.22,1.57,1.57,0,0,0,.11-.77V51.34a1.46,1.46,0,0,0-.13-.77.71.71,0,0,0-.47-.21v-.21Z"/><path class="b" d="M104.15,52.7h-3a2.89,2.89,0,0,0,.59,1.74,1.21,1.21,0,0,0,1,.49,1.11,1.11,0,0,0,.65-.19,2.69,2.69,0,0,0,.62-.71l.21.12a3.46,3.46,0,0,1-1,1.3,2.09,2.09,0,0,1-1.26.38,2.13,2.13,0,0,1-1.86-.94,3.42,3.42,0,0,1-.51-1.9,3.16,3.16,0,0,1,.75-2.19A2.29,2.29,0,0,1,102,50a1.87,1.87,0,0,1,1.45.69,3.14,3.14,0,0,1,.68,2m-1.46-.39a4.77,4.77,0,0,0-.11-1.3,1,1,0,0,0-.31-.54.52.52,0,0,0-.33-.11.61.61,0,0,0-.51.3,2.64,2.64,0,0,0-.35,1.44v.21Z"/><path class="a" d="M106.6,50.15v.71a3,3,0,0,1,.82-.66,1.61,1.61,0,0,1,.83-.22,1.36,1.36,0,0,1,.9.3,1.5,1.5,0,0,1,.47.74,5.91,5.91,0,0,1,.09,1.29v2.15a1.79,1.79,0,0,0,.11.8.69.69,0,0,0,.48.19v.22h-2.78v-.22a.55.55,0,0,0,.45-.26,1.76,1.76,0,0,0,.09-.73V52a4.5,4.5,0,0,0,0-.85.49.49,0,0,0-.19-.27.39.39,0,0,0-.27-.1c-.34,0-.66.24-1,.72v3a1.57,1.57,0,0,0,.12.78.53.53,0,0,0,.43.21v.22h-2.8v-.22a.69.69,0,0,0,.5-.22,1.62,1.62,0,0,0,.1-.77V51.34a1.5,1.5,0,0,0-.12-.77.72.72,0,0,0-.48-.21v-.21Z"/><path class="a" d="M112.65,48.13v2H114v.58h-1.31v3.4a3.43,3.43,0,0,0,0,.62.56.56,0,0,0,.16.23.43.43,0,0,0,.21.08c.26,0,.5-.19.73-.58l.17.13a1.6,1.6,0,0,1-1.55,1.13,1.42,1.42,0,0,1-.89-.29,1.27,1.27,0,0,1-.46-.66,5.37,5.37,0,0,1-.06-1.08v-3h-.72v-.21a7.34,7.34,0,0,0,1.27-1.1,6.65,6.65,0,0,0,.91-1.29Z"/><path class="a" d="M47.41,35a.36.36,0,0,1-.15.15"/><path class="a" d="M48.79,24.21a.3.3,0,1,0-.29-.3.29.29,0,0,0,.29.3"/><path class="a" d="M62.18,12H51.77v8.41a1.92,1.92,0,0,0,.81,1.74l4,2.39a.46.46,0,0,0,.37.16.47.47,0,0,0,.32-.12l4.06-2.43a1.9,1.9,0,0,0,.82-1.74V12Zm-7,2.43h-.9V12.29h.9Zm-.66.76.13-.14-.08-.15.17,0,.1-.17.1.17.17,0-.07.15.12.14-.16,0v.18l-.16-.12-.15.12v-.18Zm-2.51.63h1.1v2h-1.1Zm.18-.92.17,0,.1-.17.1.17.17,0-.07.15.12.14-.16,0v.18l-.16-.12-.15.12v-.18l-.17,0,.13-.14ZM53.48,17l.16,0,.11-.17.09.17L54,17l-.07.15.13.14-.17,0v.19l-.15-.12-.16.12v-.19l-.16,0,.13-.14Zm.72-1.64c0-.06-.08-.07-.1-.07s-.14.16-.23.17-.1,0-.1-.07.13-.1.17-.14c-.68,0-.68.31-.79.31s.15-.33.24-.43c-.13,0-.22-.18-.37-.27.08-.1.12-.06.21,0s.05-.15.2-.15c.31,0,.22.29.27.29s0-.29.2-.29.67.77.33.77c-.14,0,0-.11,0-.13m-.77-2.25.13-.13-.08-.15.16,0,.11-.18.09.18.17,0-.07.15.13.13-.17,0v.18l-.15-.12-.16.12v-.18Zm-.27,1.34h-1.1V12.29h1.1Zm2.07,9L52.74,21.9a1.78,1.78,0,0,1-.68-1.39V18.15h3.17Zm-.9-7.57h.9v2h-.9Zm4.11,7.74-1.15.69h0a.48.48,0,0,1-.29.1.52.52,0,0,1-.32-.11l-1.14-.68V18.15h2.93Zm0-5.7H55.51V12.29h2.93Zm3.44,2.65a1.75,1.75,0,0,1-.67,1.39l-2.49,1.49V18.15h3.16Zm0-2.65H58.72V12.29h3.16Z"/><path class="a" d="M55.06,20.07s-.4.13-.29.12a1.15,1.15,0,0,1,.32-.43c0-.13-.19,0-.37.09.59-.85.22-.5-.11-.45.52-.57.38-.56,0-.38.3-.24.37-.53.32-.61-.29.38-.55.32-.55.67a1.41,1.41,0,0,1-.21.75c-.15.17,0-.62-.44-.62-.13,0-.44,0-.53.14.08,0,.21.21.21.3s.08.31-.06.31-.31-.29-.31-.43v-.31a1.12,1.12,0,0,0-.78-.81c0,.24.31.29.31.59-.13,0-.32-.24-.32-.09s.2.18.2.31-.22,0-.22.09.12.1.15.22-.17,0-.19,0,0,.09.1.13-.06.1-.06.29c0,.67.42,1,.72,1s.18-.16.21-.23c0,.11.12,0,.12.14s-.22.12-.22.3.34,0,.34.25a3,3,0,0,1,0,.43c0,.08.35-.11.33-.15s.08.28.23.27.13-.25.2-.27.32.23.32.12c0-.31-.13-.18-.13-.39s.43-.16.36-.26-.1,0-.14-.18c0,0-.33-.49.08-.22s.48-.65.45-.71"/><path class="a" d="M66.17,22.27a.3.3,0,1,0-.35-.3.32.32,0,0,0,.35.3"/><path class="a" d="M64.78,23.1a.31.31,0,1,0,0-.61.31.31,0,1,0,0,.61"/><path class="a" d="M48.33,25a.32.32,0,0,0,.34-.3.33.33,0,0,0-.34-.3.32.32,0,0,0-.34.3.32.32,0,0,0,.34.3"/><path class="a" d="M49.39,25.08a.3.3,0,1,0,0-.59.3.3,0,1,0,0,.59"/><path class="a" d="M79,10.73A2.15,2.15,0,0,1,79.27,13c-.2,0-.17-.28-.2-.42a2.69,2.69,0,0,1-.33-2.3c.24,0,.15.32.27.45"/><path class="a" d="M35.55,11.55a3.23,3.23,0,0,0,0,1.45c-.09.09-.07-.09-.16-.08-.71-.51-.38-1.51-.56-2.22a.14.14,0,0,1,.18,0,1.36,1.36,0,0,1,.54.9"/><path class="a" d="M80.58,11.61c.11.2-.1.4-.24.49a.45.45,0,0,1-.45-.2.39.39,0,0,1,.22-.47.45.45,0,0,1,.47.18"/><path class="a" d="M34.44,12.41a.55.55,0,0,1-.23.41.44.44,0,0,1-.35-.1.32.32,0,0,1-.07-.38.39.39,0,0,1,.35-.16c.12.05.25.09.3.23"/><path class="a" d="M81.28,12.72a.39.39,0,0,1,0,.3.42.42,0,0,1-.49.16.48.48,0,0,1-.2-.31.56.56,0,0,1,.31-.33.57.57,0,0,1,.38.18"/><path class="a" d="M80.25,12.74c.15.08,0,.26,0,.37s-.21.23-.37.18-.2-.09-.24-.22a.41.41,0,0,1,.25-.42c.15,0,.24,0,.35.09"/><path class="a" d="M78.92,13c0,.2,0,.45-.22.49a.34.34,0,0,1-.41-.26.42.42,0,0,1,.27-.43.49.49,0,0,1,.36.2"/><path class="a" d="M36.43,13.11c0,.18-.13.29-.25.38a.36.36,0,0,1-.36-.2c-.13-.13,0-.24.07-.35a.35.35,0,0,1,.54.17"/><path class="a" d="M35.33,13.16a.37.37,0,0,1-.2.35c-.14.06-.29-.06-.36-.17a.32.32,0,0,1,.16-.42c.2-.07.33.11.4.24"/><path class="a" d="M74.53,13.24a3.62,3.62,0,0,1,.36,1.31c-.07.35.06.8-.2,1-.25-.09-.27-.4-.43-.56a3.14,3.14,0,0,1,.07-2c.14-.06.14.12.2.22"/><path class="a" d="M34.48,13.45c.05.22-.11.33-.24.46s-.36-.11-.45-.25a.44.44,0,0,1,.24-.44.46.46,0,0,1,.45.23"/><path class="a" d="M77.4,14a2.71,2.71,0,0,1,.09,1.76l-.11.09a7.31,7.31,0,0,1-.74-1.48,2.51,2.51,0,0,1,.21-1c.13-.09.21,0,.26.13a.67.67,0,0,0,.29.54"/><path class="a" d="M79.69,13.66a.47.47,0,0,1-.27.43.32.32,0,0,1-.42-.21.38.38,0,0,1,.19-.44c.21-.11.4.07.5.22"/><path class="a" d="M35.35,14.22a.39.39,0,0,1-.27.35c-.15.11-.25-.08-.38-.13a.42.42,0,0,1,0-.42c0-.11.18-.11.29-.14s.32.16.36.34"/><path class="a" d="M36.15,14.13c.07.18-.13.27-.2.37-.22.07-.33-.1-.42-.22a.4.4,0,0,1,.2-.4c.22-.06.33.09.42.25"/><path class="a" d="M80.2,14.07c0,.24-.39.48-.42.72a1.84,1.84,0,0,1-1.13,1,.88.88,0,0,1-.42.24c0-.37.29-.7.49-1a2.72,2.72,0,0,1,1.48-.95"/><path class="a" d="M35,14.84a6.72,6.72,0,0,0,.74.86.15.15,0,0,1-.13.19c-.88-.06-1.48-1-1.92-1.61,0-.2.29,0,.42-.06.31.24.65.31.89.62"/><path class="a" d="M80.45,15.1a2.35,2.35,0,0,1-1.12,2c-.21.08-.43.28-.63.15a9.38,9.38,0,0,1,1.6-2.12Z"/><path class="a" d="M77,15.63a.44.44,0,0,1-.31.53.45.45,0,0,1-.41-.29.36.36,0,0,1,.25-.4.3.3,0,0,1,.22-.06c.11,0,.16.13.25.22"/><path class="a" d="M34,15.79a9.89,9.89,0,0,1,1,.86c-.24.17-.53,0-.79,0-.63-.22-1-.75-1.68-.93,0-.2.25-.13.38-.18a3.29,3.29,0,0,1,1.11.23"/><path class="a" d="M53.43,10.38c-1-.4-1.69.66-2.72.53-.13.08-.09.2-.16.3s-.15,0-.2,0c-.06-.44-.2-.85-.26-1.27C50,9.74,50,9.49,50,9.31c-.58-1.6,1.41-.39,1.81-1.32s-.67-.9-1-1.46V6.29c-.29-.29-.59-.39-.78-.77a2.51,2.51,0,0,0,0-1.41c0-.11-.08-.26-.25-.2l-.93,1.32a8.71,8.71,0,0,0-1.06-.81c-.28,0-.53-.31-.84-.2a.24.24,0,0,0,.05.27,2.64,2.64,0,0,0,.9,1.8l0,.27A8.45,8.45,0,0,0,47.64,9a13.24,13.24,0,0,1-3.94,5.54c-1,1.17-2.27,2.31-2.43,3.92-.06.25,0,.57-.17.75a6.18,6.18,0,0,1-1.68-.9c-.83-.59-2-.51-2.58-1.57-.22-.42.06-.84.25-1.15a2.12,2.12,0,0,0,.21-2.34c-.08,0-.1.07-.15.09-.06,1.08-.91,1.83-.58,3,.07.35.25.57.34.9a4.18,4.18,0,0,1-.41-.09A4.55,4.55,0,0,0,35.28,17c-.84.39-2-.08-2.65.68-.11,0-.26,0-.22.2.4,0,.78.11,1.18.09.63.11,1.06-.42,1.49-.66h.11c.18-.18.49-.07.73-.11a7.31,7.31,0,0,1,3,1.25v.07c-.36.17-.78.28-1.14.48a2.47,2.47,0,0,0-1,1.22c-.29.46.09.86.27,1.25,0,.18,0,.4.2.47.59-.62,0-1.39.13-2.1a1.48,1.48,0,0,1,1.18-.95c1-.44,1.78.4,2.61.88A12.61,12.61,0,0,1,41,22.19a2,2,0,0,1-.85.13c-1.44.11-2.56.9-3.85,1.34-.58.2-1.27.18-1.85.4a4.72,4.72,0,0,0,1.4,0c1.78-.26,3.14-1.63,5.06-1.4l0,.06a4.61,4.61,0,0,1-.85,1.19c-.06-.2-.08-.37-.26-.48a.34.34,0,0,0-.42.15.26.26,0,0,0,0,.27.57.57,0,0,0,.4.26c0,.16-.23.24-.34.38C39,25.3,38,25,37.37,25.56c-.1.13-.42.2-.28.4A2.74,2.74,0,0,0,39,25.49c.67-.76,1.39-1.47,2-2.18A2.18,2.18,0,0,1,40.62,25a2.12,2.12,0,0,0-.49-.27.45.45,0,0,0-.33.36,1.11,1.11,0,0,0,.27.37,6.45,6.45,0,0,1-2.11.68,37.08,37.08,0,0,1-4,.29,9.08,9.08,0,0,1-2,0c-.7.13-1.44-.09-2,.29-.07.1,0,.18,0,.28.83.55,2,.11,2.92.27h7.15A3,3,0,0,0,41.61,27a5.27,5.27,0,0,0,1.91-2.42,3.71,3.71,0,0,0,.38-1.09,1.6,1.6,0,0,1,1.36-1.12A7.83,7.83,0,0,1,45,25.12c-.1.59-.48,1.15-.25,1.77.06.3.37.3.6.34,2.2,0,4.39-.14,6.72,0a5.53,5.53,0,0,0,1.23.18c0-.06.16-.07.11-.18a.67.67,0,0,0-.44-.51c0-.11-.19-.08-.25-.15-1.16-.66-2.56-.31-3.92-.29a2.92,2.92,0,0,1-2-.2c-.28-.33-.07-1.38-.07-1.38a25.5,25.5,0,0,1,1.12-3.52,3.28,3.28,0,0,0,.1-.84A3.48,3.48,0,0,0,48,19.12a8.46,8.46,0,0,1,.56-1.7c.11-.27.19-.56.3-.84a2.86,2.86,0,0,1,.37-.95c.59.38,1.17.36,1.46,1l.24,1.53c0,.09.08.28.21.17.47-.32.32-1,.32-1.48S51.18,16,51,15.54a2.12,2.12,0,0,1-.34-.53c-.07-.4-1-.68-.75-1.17a1.48,1.48,0,0,1,.62-1,.22.22,0,0,1,.09.13l.21-.16,0-1.52c.59,0,1.46.07,2.06.07.16,0,.29.18.47.2l.15-.2L55,11c-.62.07-1-.65-1.6-.65"/><path class="a" d="M55,11l.14,0Z"/><path class="a" d="M39.22,16.13a.39.39,0,0,1-.28.41.51.51,0,0,1-.34-.22c-.07-.19.11-.34.26-.42s.32.06.36.23"/><path class="a" d="M38,16.13a.37.37,0,0,1,.07.41c-.13.11-.32.21-.43.06s-.22-.24-.13-.39.34-.23.49-.08"/><path class="a" d="M63.31,16.32a0,0,0,0,1,0,0"/><path class="a" d="M77.14,16.64c.07.2-.08.34-.23.42s-.42-.1-.42-.33a.34.34,0,0,1,.28-.27c.15-.06.3.07.37.18"/><path class="a" d="M78.11,16.6c0,.09.18.24,0,.33a.62.62,0,0,0-.18.14.35.35,0,0,1-.44-.21c0-.21.13-.3.28-.39s.21.06.31.13"/><path class="a" d="M33.48,16.82a.36.36,0,0,1-.49.24.8.8,0,0,1-.14-.24c0-.13,0-.26.2-.31a.44.44,0,0,1,.43.31"/><path class="a" d="M39.6,17.13c0,.15-.18.27-.31.34a.46.46,0,0,1-.4-.25c0-.15.07-.33.22-.36a.4.4,0,0,1,.49.27"/><path class="a" d="M38.53,17a.28.28,0,0,1,.06.29c-.12.09-.28.26-.46.15s-.24-.17-.2-.35a.71.71,0,0,1,.27-.21c.15,0,.22.05.33.12"/><path class="a" d="M80.88,17.22a.45.45,0,0,1-.23.34.33.33,0,0,1-.4-.09c-.11,0-.07-.18-.07-.27a.62.62,0,0,1,.34-.24.65.65,0,0,1,.36.26"/><path class="a" d="M82,17.38a.47.47,0,0,1-.34.34c-.1,0-.31-.06-.27-.22a.33.33,0,0,1,.17-.3.31.31,0,0,1,.44.18"/><path class="a" d="M35.55,17.64a.35.35,0,0,1-.22.44c-.12.07-.25,0-.34-.09a.32.32,0,0,1-.09-.37c0-.16.2-.12.31-.2a.44.44,0,0,1,.34.22"/><path class="a" d="M36.44,17.81c.06.14-.11.19-.14.3a.29.29,0,0,1-.33,0c-.13-.11-.27-.27-.15-.43s.53-.13.62.09"/><path class="a" d="M79.81,17.72c0,.18-.14.3-.25.41a.32.32,0,0,1-.37-.22.39.39,0,0,1,.21-.34.38.38,0,0,1,.41.15"/><path class="a" d="M81.3,18c0,.16,0,.35-.2.46a.56.56,0,0,1-.44-.08.35.35,0,0,1-.07-.38.42.42,0,0,1,.44-.22c.13.07.16.16.27.22"/><path class="a" d="M34.86,18.39c.07.15-.09.19-.14.26a.38.38,0,0,1-.37,0c-.12-.07-.07-.25-.05-.35.16-.31.49-.09.56.13"/><path class="a" d="M80.16,18.74c.07,0,0,.12,0,.16a1.39,1.39,0,0,1-1.48-.07,5.55,5.55,0,0,0-.72-.4c.09-.24.42-.22.65-.28.53.08.94.57,1.53.59"/><path class="a" d="M35.73,18.58c0,.14-.07.2-.11.3s-.21.08-.31,0a.32.32,0,0,1-.12-.45c.2-.21.43-.1.54.11"/><path class="a" d="M37.33,18.68a.31.31,0,0,1-.18.4c-.13.08-.24,0-.35,0s-.25-.27-.09-.42.49-.13.62.07"/><path class="a" d="M58.32,19.46c0,.36-.64-.06-.55.43a2.8,2.8,0,0,0,.36,1c.17.24.08.62.07.92a1.6,1.6,0,0,1-.69.59c-.52-.05-1.28.26-1.52-.38a2.73,2.73,0,0,1-.3-.87c.06,0,.13,0,.18-.09s-.14-.19-.12-.31c.59-.11-.24-.63.26-.66.41.43,1.09.29,1.45.76.09.07.15.17.25.22-.06-.43-.27-.86-.34-1.33a.62.62,0,0,1,.21-.61c.31-.24.57.11.74.3"/><path class="a" d="M38.92,19.34c.06.18-.08.29-.19.39s-.26-.11-.33-.21.07-.27.19-.36a.36.36,0,0,1,.33.18"/><path class="a" d="M50.13,19.52a2.51,2.51,0,0,1-.22,2.05c0,.15,0,.39-.16.37-.49-.68-.13-1.63.07-2.34,0-.18.26-.26.31-.08"/><path class="a" d="M65.67,19.87a2.1,2.1,0,0,1,0,1.7l-.15.15a4.3,4.3,0,0,1-.42-1.3,4.55,4.55,0,0,0,.22-1c.25-.06.24.28.31.42"/><path class="a" d="M40.35,20.07c-.11.22-.42.28-.62.43a2.18,2.18,0,0,1-1.62.3A2,2,0,0,1,40.18,20c0,.07.13,0,.17.12"/><path class="a" d="M32.88,20.73a5.11,5.11,0,0,1,1.26,1.79c0,.07.23.09.16.24s-.3-.11-.5-.07a2,2,0,0,1-1.1-1.89c0-.07.11-.07.18-.07"/><path class="a" d="M65,21.3c0,.18,0,.36-.17.42a.34.34,0,0,1-.42-.22c0-.13.05-.2.09-.29a.33.33,0,0,1,.5.09"/><path class="a" d="M72.63,22.27a8.2,8.2,0,0,1,.12-1,.68.68,0,0,0,.07-.38c.44-.59,1.33-.4,2-.35a3.53,3.53,0,0,0,.91.2.64.64,0,0,1,.45-.09c.59-.31.2-1,.24-1.52l-.22-.54a1.49,1.49,0,0,1-.14-.37c-.12-.13-.19-.37-.29-.49a7.52,7.52,0,0,0-1.43-1.91,7.71,7.71,0,0,0-3.82-2.36c-1.44-.49-2.89.15-4.18.6a1,1,0,0,1-.71-.76A3.7,3.7,0,0,1,66,11.35a7.62,7.62,0,0,1,.5-1.22A13.27,13.27,0,0,0,67.23,7a1.63,1.63,0,0,0-1-1.44,1,1,0,0,0-1,.2A2.63,2.63,0,0,1,64.07,6.8c0,.31.35.11.47.22.4.07.86-.06,1.18.2A3.14,3.14,0,0,1,65,9.1,14.69,14.69,0,0,0,63.31,12l-.07-.07.08,4.47a5.15,5.15,0,0,0,2.39,2.42c.58.48,1.31,1,2.09.62.41-.12.44.46.65.7.22.67-.28,1.15-.31,1.77l-.47,1A13.55,13.55,0,0,1,65.8,26c-.28,0-.44.29-.71.31-.15.21-.44.06-.62.13-.56.24-1.36.09-1.74.62a.29.29,0,0,0,.15.09c1.1,0,2.34.1,3.51,0a.45.45,0,0,0,.3-.35c-.16-.31,0-.58.2-.82.09-.44.38-.72.5-1.13.39-.76.82-1.48,1.24-2.24l.56-.91a5.87,5.87,0,0,1,.57-1,3.09,3.09,0,0,0,.33-.5c0-.18-.08-.25-.19-.38.12-.13.33-.09.49-.13a2.08,2.08,0,0,1,1,1.21l.16.47.07.22,0,.6.07.57a13.07,13.07,0,0,1-.16,2.65c-.31,1.07-1.53,1-2.4,1.19-.22.15-.63.08-.63.44a16.08,16.08,0,0,0,3.41.07c.18-.07.21-.23.31-.4s.27-.44.2-.69,0-.66-.08-1a.52.52,0,0,0,0-.35c.15-.52.11-1.16.22-1.68Z"/><path class="a" d="M81.56,21.55a4.55,4.55,0,0,1-2.22,2.05c-.07,0-.15,0-.18-.05.62-.66,1-1.69,1.91-1.92a.58.58,0,0,1,.49-.08"/><path class="a" d="M32,22.45c-.09.07,0,.24-.18.26a.29.29,0,0,1-.38-.17.32.32,0,0,1,.24-.4c.14.07.29.13.32.31"/><path class="a" d="M37.22,22.71c.05.16-.13.16-.22.2a2,2,0,0,1-2.08-.53c0-.08,0-.15.07-.17.74.19,1.61,0,2.23.5"/><path class="a" d="M33,22.47a.43.43,0,0,1,0,.27.42.42,0,0,1-.46.17.59.59,0,0,1-.23-.24.45.45,0,0,1,.31-.35.56.56,0,0,1,.34.15"/><path class="a" d="M50,22.56c0,.16-.1.27-.21.35a.39.39,0,0,1-.39-.15.27.27,0,0,1,.13-.35c.16,0,.42,0,.47.15"/><path class="a" d="M82.25,22.64c0,.17-.11.27-.24.38a.41.41,0,0,1-.35-.06c0-.09-.12-.16-.09-.29a.4.4,0,0,1,.42-.22,1.88,1.88,0,0,1,.26.19"/><path class="a" d="M83.45,22.56c.11.16,0,.3-.08.42a.24.24,0,0,1-.33.11c-.1-.11-.25-.16-.27-.33s.17-.26.27-.31.26.11.41.11"/><path class="a" d="M31.23,23.09c0,.13-.09.2-.13.31s-.18.11-.28.08a.55.55,0,0,1-.28-.3.49.49,0,0,1,.33-.37c.14.05.31.11.36.28"/><path class="a" d="M69.46,23.09a.48.48,0,0,1,0,.24c-.1.15-.25.27-.44.18s-.23-.22-.17-.39a.35.35,0,0,1,.59,0"/><path class="a" d="M34.15,23.37a.31.31,0,0,1-.25.27c-.17,0-.22-.13-.31-.21s0-.32.14-.41a.33.33,0,0,1,.42.35"/><path class="a" d="M32.41,23.4a.37.37,0,0,1-.18.4.43.43,0,0,1-.49-.25.5.5,0,0,1,.32-.42c.17,0,.26.18.35.27"/><path class="a" d="M70.66,23.37a.34.34,0,0,1-.2.43c-.21.07-.4-.11-.49-.25.09-.15.12-.35.33-.39a.41.41,0,0,1,.36.21"/><path class="a" d="M33.26,23.43c.06.14,0,.19-.09.28s-.14.11-.25.08-.22-.13-.24-.26a.36.36,0,0,1,.24-.35.33.33,0,0,1,.34.25"/><path class="a" d="M81.24,23.58a.51.51,0,0,1-.3.29c-.15,0-.24-.08-.35-.14s0-.24,0-.33a.36.36,0,0,1,.66.18"/><path class="a" d="M82.63,23.66a.49.49,0,0,1-.44.31c-.16-.08-.35-.2-.21-.42s.1-.15.21-.17a.36.36,0,0,1,.44.28"/><path class="a" d="M74,23.79c.09.23-.13.3-.27.42a1,1,0,0,1-.35-.15.34.34,0,1,1,.62-.27"/><path class="a" d="M69,24c.09,0,0,.16,0,.21s-.25.26-.41.15a.3.3,0,0,1-.18-.35A.33.33,0,0,1,69,24"/><path class="a" d="M70,24.13a.24.24,0,0,1-.14.29c-.12.13-.27,0-.4-.05a.33.33,0,0,1,0-.28A.45.45,0,0,1,69.7,24c.13,0,.27,0,.32.18"/><path class="a" d="M39.22,24.15c.11.11,0,.24,0,.35a.35.35,0,0,1-.45.09c-.18-.07-.17-.31-.13-.46s.11-.16.26-.16a.59.59,0,0,1,.36.18"/><path class="a" d="M75.94,24.22c0,.19-.14.26-.27.3s-.32-.1-.42-.24.12-.19.15-.27c.25-.12.42.07.54.21"/><path class="a" d="M75,24.22c.07.19-.13.28-.21.37a.37.37,0,0,1-.4-.07c-.09-.06-.09-.17-.09-.28s.17-.2.3-.23a.48.48,0,0,1,.4.21"/><path class="a" d="M83.15,24.44c0,.26-.29.13-.41.2a3,3,0,0,1-2.48-.16c.06-.24.33-.15.48-.24.78-.49,1.58.11,2.36.15Z"/><path class="a" d="M33.46,24.22l-.07.13a2.93,2.93,0,0,1-2.34.42L31,24.66a3.28,3.28,0,0,1,2.43-.49Z"/><path class="a" d="M77.8,24.35a.41.41,0,0,1-.18.35c-.19.05-.43,0-.48-.2s.09-.29.24-.35.35,0,.42.2"/><path class="a" d="M36.71,24.43c-.07.14,0,.29-.21.36a.39.39,0,0,1-.46-.24c-.06-.2.09-.25.18-.34s.38.05.49.22"/><path class="a" d="M35.43,24.52c0,.12-.06.2-.1.29a.32.32,0,0,1-.36.05.42.42,0,0,1-.2-.44,1.15,1.15,0,0,1,.29-.2c.17,0,.33.11.37.3"/><path class="a" d="M79.07,24.94a.41.41,0,0,1-.29.33.39.39,0,0,1-.35-.19.31.31,0,0,1,.07-.35c0-.05.17-.05.24-.09a.41.41,0,0,1,.33.3"/><path class="a" d="M34.08,24.73c.06.15-.07.21-.09.32a2.62,2.62,0,0,1-.4.78c-.35.42-.84.42-1.33.55l-.07-.15A4.82,4.82,0,0,1,34,24.7Z"/><path class="a" d="M78.16,25.14c0,.22-.15.25-.27.35a.44.44,0,0,1-.37-.23c0-.2.13-.27.24-.36a.36.36,0,0,1,.4.24"/><path class="a" d="M36.17,25.14s0,.07,0,.09c0,.2-.16.26-.27.35a.5.5,0,0,1-.4-.19.31.31,0,0,1,.18-.42c.17,0,.38,0,.44.17"/><path class="a" d="M81.5,25.69c.19,0,.22-.24.42-.28a.46.46,0,0,1,.43.2c.08.22-.09.33-.23.42s-.4-.11-.39.13a.54.54,0,0,1,.26.37c0,.07-.16,0-.22,0a2.29,2.29,0,0,1-1.3-1.14c-.07-.16-.42-.29-.22-.44a1.71,1.71,0,0,1,1.25.72"/><path class="a" d="M83.24,25.12a.27.27,0,0,1,0,.34c-.1.19-.37.12-.53.1s-.18-.18-.15-.33a.66.66,0,0,1,.28-.24.51.51,0,0,1,.41.13"/><path class="a" d="M76.65,26.11a2.66,2.66,0,0,1,.41.73c0,.05-.14,0-.17,0-.62-.34-1.41-.73-1.65-1.46-.06-.07-.2-.16-.18-.29a1.79,1.79,0,0,1,1.59,1"/><path class="a" d="M35.15,25.41c.07.17-.07.3-.16.37a.46.46,0,0,1-.42-.14c-.13-.21.11-.37.26-.45s.23.13.32.22"/><path class="a" d="M78.92,25.83c0,.11-.13.19-.18.26s-.29.07-.41-.06-.13-.23,0-.32c.19-.26.48-.06.61.12"/><path class="a" d="M83.45,26.09a.45.45,0,0,1-.26.46.48.48,0,0,1-.44-.17c-.08-.11,0-.22,0-.35a.45.45,0,0,1,.48-.12,1.09,1.09,0,0,1,.22.18"/><path class="a" d="M70.88,28.61c0,.22-.4.17-.56.33a3.8,3.8,0,0,1-1.91.28v-.11a2.71,2.71,0,0,1,2.47-.5"/><path class="a" d="M44.39,29.4a.34.34,0,0,1-.27.31.37.37,0,0,1-.31-.18c-.07-.22.11-.31.24-.41a.42.42,0,0,1,.34.28"/><path class="a" d="M70.58,29.6a.54.54,0,0,1-.28.42.48.48,0,0,1-.4-.13c-.09-.07,0-.2-.05-.29a.39.39,0,0,1,.73,0"/><path class="a" d="M74.18,29.67a2.9,2.9,0,0,1-1.55.64l-1,0-.09-.07a3,3,0,0,1,2.63-.66Z"/><path class="a" d="M39.42,30.11a.33.33,0,0,1-.62.18.32.32,0,0,1,.14-.41c.2-.13.4.09.48.23"/><path class="a" d="M40.33,30.29c.05.1,0,.15-.08.24s-.25.1-.34,0a.22.22,0,0,1-.11-.31c.05-.11.16-.09.22-.16a.52.52,0,0,1,.31.23"/><path class="a" d="M33.37,32.14c-.18.22-.47,0-.67-.17-.64-.36-.62-1.07-1.25-1.49.07-.22.23,0,.36,0a2.28,2.28,0,0,0,.38.2c.62.35.76.93,1.18,1.48"/><path class="a" d="M86.3,25.05a1.46,1.46,0,0,0-1.37-.75,1.21,1.21,0,0,0-1,.75.91.91,0,0,0,.34,1,.27.27,0,0,0,.36-.09c.09-.24-.16-.24-.2-.42a.61.61,0,0,1,.2-.64c.19-.18.49-.09.71-.09a1.28,1.28,0,0,1,.55.53,1.61,1.61,0,0,1,0,1,1.64,1.64,0,0,1-1.13.92c-1.51.21-18,.14-18,.14-1.95.18-4.16-.37-5.83.66A2.93,2.93,0,0,0,59.53,30a12.94,12.94,0,0,0-1.42,1.45l0-.06c.09-.44.29-.82.38-1.26.28-.36.28-.86.48-1.26a10.07,10.07,0,0,1,2.41-3c.45-.6,1.25-.49,1.94-.49a4.72,4.72,0,0,0,2.53.36.13.13,0,0,0,0-.12c-.25-.24-.67-.33-1-.57-.73-.35-1.42.11-2.18.06,0,0-.07-.06-.05-.11a10.85,10.85,0,0,1,2.25-1.21,15.41,15.41,0,0,1,2-.79c.27,0,.52-.23.78-.07l1-.26s.07.08.15.06a9.83,9.83,0,0,1,2.77,0l.13.1.87.22c.32,0,.47.42.82.44.18-.25-.2-.36-.29-.53a2,2,0,0,1,1.21.18l-.17.2c-.12.21,0,.35.21.43s.22-.06.31-.1,0-.33,0-.47a17,17,0,0,1,3.87,1.1,3.21,3.21,0,0,0,1.06.34,5.13,5.13,0,0,0-1.39-.73c-.31-.18-.74-.2-1-.45,0-.1.17-.06.23-.13a2.72,2.72,0,0,0,1.58-1c0-.11.24-.07.21-.22s-.43.06-.65,0c-.76.14-1.08,1-1.85,1.21-.93-.22-1.87-.44-2.79-.68a5.48,5.48,0,0,1-1.36-.29l-1-.1H69.76s-.08-.05-.06-.1c.65-.17,1.22-.55,1.87-.72l4.87-2.23a11.52,11.52,0,0,0,1.38-1.5.32.32,0,0,0-.2-.34.29.29,0,0,0-.36.07c-.23.16,0,.37,0,.56a3.1,3.1,0,0,1-.84.72c-.07,0-5,2.25-5,2.25a12.38,12.38,0,0,1-2.22.82l-1,.16a.68.68,0,0,1-.46.43,4.63,4.63,0,0,1-.83.23,18.51,18.51,0,0,0-6.68,3.75,2.07,2.07,0,0,0,.18-.76,1.57,1.57,0,0,0-.2-.81,1.34,1.34,0,0,1-.14-.5l-.26.17a2.51,2.51,0,0,0-.14,1.55c0,.34.32.72.07,1a16.81,16.81,0,0,0-2,3.55c-.21,0-.32-.24-.42-.44a6,6,0,0,0,1.3-2.67c.13-.09,0-.33.16-.44,0-.29.17-.58,0-.82.12-.4-.53-.77-.12-1l-.34.17c-.78,1,.41,2.56-.49,3.55v.07a3,3,0,0,1-.72.88c-.44-.19-.6-.68-.86-1A1.68,1.68,0,0,1,56.1,27c.16-.52-.11-1-.16-1.46l-.18-.11a2.11,2.11,0,0,0-.26,2.14c.18.33.2.79.47,1.06A6.12,6.12,0,0,0,56.76,30c.07.18-.11.23-.21.31-.19-.13-.16-.41-.34-.54a13.2,13.2,0,0,0-2.32-3.35c0-.16-.2-.31-.11-.49A1.33,1.33,0,0,0,54,24.52c0-.09-.14-.21-.12-.3L53.62,24c0,.63-.39,1.2-.21,1.88v0a35.34,35.34,0,0,0-6-3.65l-.18.47a12,12,0,0,1,1.95,1,12.15,12.15,0,0,1,1.81,1,12.42,12.42,0,0,1,5.21,6.16c0,.2.2.42.08.62a10.67,10.67,0,0,0-1.38-1.39,2.67,2.67,0,0,0-1.38-2c-.27-.41-.86-.45-1.31-.57l-6.61,0c-5.37-.08-10.27.16-15.61.07-.74-.07-1.65-.32-1.87-1.11a1.27,1.27,0,0,1,0-1,1.12,1.12,0,0,1,.93-.49,1,1,0,0,1,.61.51c0,.24-.2.46-.29.66s.09.22.22.17a.89.89,0,0,0,.48-.59c0-.13.06-.31-.06-.4a1.21,1.21,0,0,0-.85-.75,1.43,1.43,0,0,0-1.53,2,2.45,2.45,0,0,0,2,1.46L47.23,28a39,39,0,0,1,5.4.14,2.13,2.13,0,0,1,1.48,1.39s-.08,0-.13,0a8,8,0,0,0-5.16-1.06,6.23,6.23,0,0,0-2,.42,1,1,0,0,1-.89-.29,3,3,0,0,0-2.63-.33c0,.06,0,.11,0,.13.89-.07,1.42.69,2.22.79.18,0,.33-.17.49,0a15.49,15.49,0,0,1-2.53,1.13c-.27,0-.41-.31-.63-.45-.34-.39-1-.22-1.45-.26-.17,0-.31-.08-.42,0a1.49,1.49,0,0,0,.78.6c.46.2,1,0,1.4.26a2.26,2.26,0,0,1-.38.25c-.86.33-1.56,1.1-2.51,1a3.21,3.21,0,0,1-2.68-.87,1.84,1.84,0,0,0-1.84-1.06s-.13,0-.11.13c.4.24.71.71,1.11,1s.74,0,1,.35a3.24,3.24,0,0,0,1.18.51,5.65,5.65,0,0,0,.94.26l-.12.07a15.59,15.59,0,0,1-5.41.53c-.55,0-1.07-.18-1.62-.17a1.12,1.12,0,0,0,.44.26,1.17,1.17,0,0,1-.49.15,2.93,2.93,0,0,0-.69.18,1.79,1.79,0,0,0-.78.18,3.53,3.53,0,0,1-1,.84c0,.08,0,.19.08.19.34-.15.77,0,1.12-.19.6,0,.94-.71,1.42-1a2.4,2.4,0,0,1,1.85-.21c.36.09,0,.23.07.47s.27.27.47.22a.6.6,0,0,1,.13-.09.41.41,0,0,0,0-.45c.25-.17.6,0,.87-.1.69,0,1.38-.16,2.05-.18.11,0,.24-.13.35,0,0,.15-.24.17-.17.36a.44.44,0,0,0,.37.28c.17-.07.34-.2.27-.44s-.18-.14-.27-.2c.38-.18.81-.24,1.2-.42a4.51,4.51,0,0,0,.76-.25c.23,0,.43-.24.65-.15a4,4,0,0,1-.38.88A4.36,4.36,0,0,0,41,36c.05,0,.07,0,.11,0a4.36,4.36,0,0,1,.16-3c.26-1.55,1.85-2,3-2.59l0,.07A5.82,5.82,0,0,0,43.61,33c0,.16-.07.33,0,.44a2,2,0,0,0,.68-.84c.12-.82-.35-1.85.49-2.45a12.6,12.6,0,0,1,4.6-1.37c.06.06.19,0,.21.07a4.52,4.52,0,0,0-1.06,1.28,4.14,4.14,0,0,0-.31,3.16c.17.57-.33.88-.56,1.32-.11.16-.14.42-.25.6l.36,0A2,2,0,0,0,48.39,34a.49.49,0,0,0,.34.37c.13-.2-.1-.35-.13-.55.3-.16.42.2.66.27a4.29,4.29,0,0,0,1.1.26l.13-.13a2.26,2.26,0,0,0-1.89-.77,3.72,3.72,0,0,1-.33-2.08,3.49,3.49,0,0,1,.37-1.13,2.74,2.74,0,0,1,.51-.7,2.52,2.52,0,0,1,1.14-.62h.06a.22.22,0,0,0,0,.06c-.48.38-.54.91-.83,1.39A1.52,1.52,0,0,0,49.37,32c.1.23.05.6.31.76a4.42,4.42,0,0,0,.38-1.11c-.06-.6-.42-1.17-.08-1.75a1.52,1.52,0,0,1,1-.81,5.41,5.41,0,0,1,2.74.81c.19.12.5.23.53.49a1.47,1.47,0,0,1-2.32,1.2,1.25,1.25,0,0,1-.29-1.11.77.77,0,0,1,.8-.3c.18.1.34.28.58.17a.22.22,0,0,0,.07-.29c-.2-.11-.27-.38-.54-.42a1.15,1.15,0,0,0-1,.2,1.29,1.29,0,0,0-.42,1.28,1.58,1.58,0,0,0,1.13,1.17,2.12,2.12,0,0,0,2.23-.77,2.51,2.51,0,0,0,.4-.78,4.74,4.74,0,0,1,1.87,2.4,4.09,4.09,0,0,1,0,.92l.63.06a.59.59,0,0,1,.06-.45,5.52,5.52,0,0,1,1.86-3c.32-.18.24.24.32.37a2.4,2.4,0,0,0,1.57,1.38,2,2,0,0,0,2-.64c.23-.43.52-1.07.12-1.53a1.24,1.24,0,0,0-1-.48,1.23,1.23,0,0,0-1,.68c0,.15,0,.31.1.38s.22,0,.28-.09c0-.27.27-.4.49-.54a.58.58,0,0,1,.58.1A1,1,0,0,1,63,31a1.07,1.07,0,0,1-.6.85,1.82,1.82,0,0,1-1.74-.16,3.64,3.64,0,0,1-.51-.8c0-.3-.15-.55,0-.84a6.19,6.19,0,0,1,2.6-.92,1.85,1.85,0,0,1,1,.61c.83.85-.18,2.08.4,3,.22,0,.22-.33.31-.51a3.19,3.19,0,0,0-.24-2,3.62,3.62,0,0,0-.69-1.08.43.43,0,0,1,.22,0,4.48,4.48,0,0,1,1.1.95,4.85,4.85,0,0,1,.71,3c-.14.55-.72.81-1.17,1a1.53,1.53,0,0,0-.49.58c.21.13.52,0,.74-.09s.54-.57.78-.77c0,0,0,.08,0,.11,0,.2-.09.48.09.53a6,6,0,0,0,.16-.93,1.75,1.75,0,0,1,.34.91c.17.33.44.77.88.83.1-.17,0-.33-.06-.48,0-.46-.44-.69-.69-1-.63-.88-.34-2.25-.83-3.24a4.06,4.06,0,0,0-1-1.35l.07-.07a10.92,10.92,0,0,1,2.45.43c1,.5,2.45.39,2.92,1.69a4.81,4.81,0,0,0,1,2l0,0a.74.74,0,0,0,0-.68c-.11-.92-.91-1.13-1.32-1.9l0-.08c.43.13.89.24,1.33.42a3.94,3.94,0,0,1,2.65,3.31,7.24,7.24,0,0,1-.67,3.13c-.06.15-.31.31-.15.44.2-.15.23-.39.34-.55a5.1,5.1,0,0,0,.61-3.68c0-.24-.3-.41-.17-.65a.52.52,0,0,0,.31.16c.11-.07.28-.07.34-.2s.09-.24,0-.33-.34-.16-.52-.13a.93.93,0,0,0-.22.4,3.63,3.63,0,0,0-.66-1l0-.05c.82.28,1.56.68,2.4.89a1.11,1.11,0,0,0,.63.21,18.34,18.34,0,0,0,2.24.56c.54,0,1,.21,1.54.08v0c-.21-.26-.64,0-.88-.2a13.65,13.65,0,0,1-3.57-.9s.08,0,.14,0a.48.48,0,0,0,.29-.46.48.48,0,0,0-.42-.2.52.52,0,0,0-.27.31.49.49,0,0,0,.27.35s-.1,0-.16,0l-1.65-.74c-.2,0-.37-.2-.57-.24-.41-.2-.83-.4-1.25-.57a29.51,29.51,0,0,0-3.68-1.37l-.78-.22-1.37-.37a6.85,6.85,0,0,0-4.95.43c-.22-.08-.34.27-.46.05A2.58,2.58,0,0,1,62.8,28c7.29-.07,14.11-.13,21.28-.24a2.31,2.31,0,0,0,2.09-1,1.85,1.85,0,0,0,.13-1.68M57.43,31.79a1.5,1.5,0,0,0-.2.64l-.07,0c.05-.28-.22-.44-.15-.73-.14-.22-.14-.5-.27-.73s.14-.42.27-.62c.25.1.34.34.53.56s-.13.55-.11.84"/><path class="a" d="M77.13,30.64c0,.06.1.07.06.17a3.77,3.77,0,0,1-2.43.76c-.07,0-.14.08-.23.06s-.08-.09,0-.13a2.76,2.76,0,0,1,2.63-.86"/><path class="a" d="M74.2,30.93a.4.4,0,0,1-.29.5.55.55,0,0,1-.4-.29c-.05-.15.08-.22.13-.32s.49-.14.56.11"/><path class="a" d="M39.69,31a.38.38,0,0,1-.09.39.37.37,0,0,1-.33.09c-.13,0-.2-.17-.23-.28s.09-.25.23-.35.31,0,.42.15"/><path class="a" d="M36.44,32.16v.12A1.37,1.37,0,0,1,35.26,32a2.4,2.4,0,0,0-1-.91c0-.06-.12-.13,0-.17.91,0,1.45.74,2.14,1.23"/><path class="a" d="M79.89,31c-.42.62-.79,1.39-1.53,1.66-.13,0-.23.19-.35.06a3.4,3.4,0,0,1,1.62-1.74.78.78,0,0,1,.26,0"/><path class="a" d="M40.74,31.17c0,.2-.12.24-.25.35s-.22-.09-.31-.2.09-.26.18-.35a.36.36,0,0,1,.38.2"/><path class="a" d="M82.17,31.28c-.16.24-.09.58-.25.84-.36.42-.68.89-1.26,1-.08-.18.13-.37.22-.53a2.65,2.65,0,0,1,1.2-1.41Z"/><path class="a" d="M30.81,31.45a.34.34,0,0,1,0,.4.41.41,0,0,1-.41.07.34.34,0,0,1-.15-.44c.11-.16.44-.25.56,0"/><path class="a" d="M29.78,31.67c0,.09.07.16,0,.25a.45.45,0,0,1-.25.22.37.37,0,0,1-.42-.24.35.35,0,0,1,.18-.38.38.38,0,0,1,.44.15"/><path class="a" d="M31.92,31.77c0,.15.07.41-.15.44s-.4-.07-.54-.22a.41.41,0,0,1,.22-.36.5.5,0,0,1,.47.14"/><path class="a" d="M34.9,32c0,.13,0,.31-.13.35s-.25,0-.35,0-.23-.21-.12-.33a.74.74,0,0,1,.25-.21c.11.06.28,0,.35.15"/><path class="a" d="M83.92,32.14c-.06.13-.13.29-.27.29s-.33,0-.42-.2.09-.31.23-.37.42.08.46.28"/><path class="a" d="M80.59,32.23c0,.15-.14.26-.21.31a.44.44,0,0,1-.57-.27.4.4,0,0,1,.78,0"/><path class="a" d="M82.85,32.19a.38.38,0,0,1-.17.31.4.4,0,0,1-.43-.07c-.17-.14,0-.27.07-.38s.47-.08.53.14"/><path class="a" d="M30.34,32.5a.39.39,0,0,1-.22.46.42.42,0,0,1-.4-.26.36.36,0,0,1,.18-.38.44.44,0,0,1,.44.18"/><path class="a" d="M79.69,32.7a.41.41,0,0,1-.26.48c-.15,0-.24,0-.34-.12s-.17-.3,0-.39a.36.36,0,0,1,.62,0"/><path class="a" d="M40.11,32.91c.07.2-.15.23-.2.35s-.22.05-.28,0-.2-.22-.14-.39.13-.14.24-.18.27.13.38.24"/><path class="a" d="M83.59,33c0,.13-.07.18-.09.27a.48.48,0,0,1-.42.07c-.16-.09-.16-.24-.16-.4s.12-.16.25-.2a.41.41,0,0,1,.42.26"/><path class="a" d="M82.47,33.09c.07.22-.13.33-.28.38s-.18,0-.2.08a4.79,4.79,0,0,1,1.13,1v.14a2.47,2.47,0,0,1-1.8-.69c-.13-.09-.35-.09-.49-.22.24-.24.67-.15,1-.17.24-.25-.27-.44,0-.65.12,0,.19-.13.33-.1a.7.7,0,0,1,.28.26"/><path class="a" d="M75,33.11c0,.09-.07.2-.09.29a.36.36,0,0,1-.4.07c-.1-.13-.24-.23-.18-.41s.62-.23.67,0"/><path class="a" d="M34.44,33.75a.35.35,0,0,1-.3.29.38.38,0,0,1-.34-.22c0-.12.08-.2.1-.29.2-.17.56-.06.54.22"/><path class="a" d="M35.92,33.51c0,.26-.28.4-.37.66a1.87,1.87,0,0,1-1.45,1.21c-.07-.17.23-.37.31-.53a3.8,3.8,0,0,1,1.39-1.34Z"/><path class="a" d="M74.6,33.77c0,.2-.16.34-.31.42s-.29-.08-.38-.15,0-.29,0-.44.52,0,.67.17"/><path class="a" d="M75.73,33.9a.46.46,0,0,1-.33.4c0-.06-.13,0-.18,0a.38.38,0,0,1-.23-.33c.09-.09.12-.23.25-.25s.43,0,.49.22"/><path class="a" d="M38.73,33.88a.39.39,0,0,1-.27.38.35.35,0,0,1-.35-.22c0-.16.13-.27.22-.36s.27.09.4.2"/><path class="a" d="M40,34a.43.43,0,0,1-.35.31c-.12,0-.27-.07-.32-.22s.12-.27.26-.36.38.07.41.27"/><path class="a" d="M79.63,35.23c.09.07.26.16.22.29-.29.13-.52-.2-.8-.25a3.81,3.81,0,0,1-.94-1.47c.16-.16.34,0,.48.1a3.51,3.51,0,0,1,1,1.33"/><path class="a" d="M80.3,34a.41.41,0,0,1,0,.4c-.1.18-.34.15-.5.11s-.26-.25-.14-.42.21-.18.34-.24.22.1.34.15"/><path class="a" d="M41.65,34.42c0,.15.06.37-.13.46a.34.34,0,0,1-.43-.22c-.09-.22.11-.25.21-.36a.36.36,0,0,1,.35.12"/><path class="a" d="M75.67,35.61a2.59,2.59,0,0,1,.47,1.3c0,.13.1.26,0,.35h-.07A4.16,4.16,0,0,1,74.75,35a.14.14,0,0,1-.08-.18c.19-.17.32.16.49.22Z"/><path class="a" d="M44,35s0,0,0,0a2.43,2.43,0,0,1-2.58.33.14.14,0,0,1,.09-.17,3.75,3.75,0,0,1,1.6-.34Z"/><path class="a" d="M39.87,35.08c-.61.39-1.18,1.14-1.94,1.32-.14.05-.24.26-.42.14a2.68,2.68,0,0,1,2.36-1.6Z"/><path class="a" d="M74.6,35.91a.28.28,0,0,1-.15.38.24.24,0,0,1-.33,0c-.17-.07-.17-.24-.17-.36s.18-.15.27-.2.29,0,.38.18"/><path class="a" d="M73.09,36a1,1,0,0,1-.65.48,2.88,2.88,0,0,1-1.72-.22c0-.15.2-.09.29-.19A4,4,0,0,1,72.86,36s.19,0,.23,0"/><path class="a" d="M39.87,36.53c0,.07-.07.24-.21.29a.39.39,0,0,1-.37-.08c0-.1-.16-.2-.07-.32s.18-.17.29-.2a.38.38,0,0,1,.36.31"/><path class="a" d="M40.94,36.69c0,.11-.1.28-.25.35a.36.36,0,0,1-.36-.13.44.44,0,0,1-.06-.37c0-.09.16-.1.25-.16a.49.49,0,0,1,.42.31"/><path class="a" d="M74.26,36.87a.54.54,0,0,1-.13.35.3.3,0,0,1-.4.07c-.12,0-.16-.16-.22-.25s.07-.24.13-.37a.4.4,0,0,1,.62.2"/><path class="a" d="M75.06,36.84c0,.09.07.18,0,.25s-.18.33-.4.24-.16-.11-.22-.14,0-.46.22-.5.28.1.37.15"/><path class="a" d="M40.29,37.37a.49.49,0,0,1-.18.49c-.2,0-.45,0-.53-.2a.49.49,0,0,1,.22-.53.44.44,0,0,1,.49.24"/><path class="a" d="M41.33,37.29a1.68,1.68,0,0,1-.66,1.43c-.29.06-.58.33-.87.15v-.09a19.68,19.68,0,0,1,1.53-1.49"/><path class="a" d="M71.41,37.72c.07.11-.06.2-.12.29s-.3.07-.43,0-.14-.24-.09-.37a.4.4,0,0,1,.24-.2c.16,0,.31.13.4.26"/><path class="a" d="M43.14,38.56c.25.42.11,1,.25,1.44-.3,0-.43-.31-.63-.49a5.65,5.65,0,0,1-.53-1.92.09.09,0,0,1,.13,0,4.63,4.63,0,0,1,.69.77c0,.13.11.13.09.24"/><path class="a" d="M72.31,37.86c0,.15-.16.18-.25.27a.63.63,0,0,1-.34-.16c-.06-.18.09-.24.18-.33a.3.3,0,0,1,.41.22"/><path class="a" d="M74.47,39.49c0,.06,0,.16-.11.13h-.07a2.21,2.21,0,0,1-1-1.74l.11,0a2.29,2.29,0,0,1,1,1.63"/><path class="a" d="M73.11,38.91a.41.41,0,0,1-.16.34c-.2.06-.51,0-.54-.23s.18-.28.27-.37a.36.36,0,0,1,.43.26"/><path class="a" d="M71.91,39.29c-.25.68-.94,1-1.41,1.53-.09,0-.06-.2,0-.27a2.57,2.57,0,0,1,1.4-1.65c.29,0,0,.24,0,.39"/><path class="a" d="M73.28,39.84c0,.17-.17.24-.26.33a.56.56,0,0,1-.4-.2c0-.19.13-.24.24-.33a.37.37,0,0,1,.42.2"/><path class="a" d="M59.77,6.64a.46.46,0,0,1,0,.91H54.38a.46.46,0,0,1,0-.91ZM56,7.43c.53,0,0-.64-.25-.64h-.53c-.52,0,0,.64.25.64Zm2.2,0c.53,0,0-.64-.24-.64h-.53c-.53,0,0,.64.25.64Zm1.63-.64h-.2c-.53,0-.08.64.21.64s.37-.64,0-.64"/><path class="a" d="M59.3,12.82l1,.4,1-.4-.4,1.51.8-.16-.27.92.27.87L61,15.77l.31,1.63-1-.39-1,.39.42-1.63L58.9,16l.21-.91-.21-.88.78.12Zm1.52,2.73c.23,0,.25-.32.25-.59,0-.63-.5,0-.75-.59-.18.49-.69,0-.69.57,0,.36,0,.61.36.61Zm-1-.56c0,.24.31.08.55.08s.55.16.55-.08-.31-.22-.55-.22-.55-.12-.55.22"/><polygon class="a" points="56.89 15.05 56.89 14.86 56.72 14.82 56.85 14.68 56.76 14.53 56.94 14.55 57.05 14.36 57.15 14.54 57.33 14.53 57.25 14.68 57.38 14.82 57.21 14.86 57.21 15.05 57.05 14.93 56.89 15.05"/><polygon class="a" points="56.09 16.07 56.09 15.88 55.92 15.85 56.05 15.71 55.97 15.56 56.14 15.57 56.25 15.39 56.36 15.57 56.53 15.56 56.45 15.71 56.59 15.85 56.41 15.88 56.41 16.07 56.25 15.95 56.09 16.07"/><polygon class="a" points="57.45 15.95 57.45 15.75 57.27 15.72 57.41 15.58 57.32 15.43 57.5 15.44 57.61 15.26 57.72 15.44 57.89 15.43 57.81 15.58 57.94 15.72 57.77 15.75 57.77 15.95 57.61 15.82 57.45 15.95"/><polygon class="a" points="57.6 16.71 57.6 16.6 57.51 16.59 57.58 16.5 57.54 16.42 57.63 16.43 57.7 16.32 57.75 16.43 57.86 16.42 57.81 16.5 57.88 16.59 57.79 16.6 57.79 16.71 57.7 16.64 57.6 16.71"/><polygon class="a" points="56.35 17.59 56.35 17.26 56.05 17.2 56.28 16.96 56.14 16.7 56.44 16.73 56.62 16.41 56.8 16.73 57.11 16.7 56.97 16.96 57.2 17.2 56.91 17.26 56.91 17.59 56.62 17.39 56.35 17.59"/><polygon class="a" points="56.99 0.34 57.63 1.92 59.24 1.44 58.42 2.92 59.8 3.9 58.14 4.18 58.24 5.88 56.99 4.74 55.73 5.88 55.84 4.18 54.17 3.9 55.55 2.92 54.73 1.44 56.35 1.92 56.99 0.34"/><path class="a" d="M51.13,35.6c-.19.07-.27.13-.22.33l.23,1a.87.87,0,0,1-.07.63,1.06,1.06,0,0,1-.66.39,1.34,1.34,0,0,1-.77,0,.56.56,0,0,1-.37-.48l-.24-1c-.07-.25-.16-.23-.37-.2l0-.08,1.22-.29,0,.07c-.24.07-.35.1-.29.36l.25,1c0,.18.14.6.65.47a.58.58,0,0,0,.49-.81L50.76,36c0-.19-.11-.28-.42-.22l0-.07.79-.19Z"/><path class="a" d="M52.93,35.8a.79.79,0,0,0-.83-.4c-.19.05-.37.18-.32.38s.12.21.45.27l.58.1a.66.66,0,0,1,.52.47c.06.27-.09.69-.76.84a3.24,3.24,0,0,1-.64,0,.12.12,0,0,0-.08.13l-.11,0-.16-.74.1,0a.78.78,0,0,0,.89.49c.43-.1.38-.41.37-.44,0-.21-.23-.25-.48-.29l-.27,0c-.67-.11-.73-.37-.76-.51s0-.62.67-.78a3.25,3.25,0,0,1,.59,0,.12.12,0,0,0,.09-.13l.11,0,.14.65Z"/><path class="a" d="M55.33,37,54,37.13v-.08c.26,0,.35-.06.33-.32l-.16-1.63c-.26,0-.63.09-.66.59h-.11l0-.62,2.2-.21.07.62h-.1C55.41,35,55,35,54.78,35l.15,1.63c0,.27.12.27.39.26Z"/><path class="a" d="M58.41,37l-.76,0-.75-1h-.1v.61c0,.25.08.26.32.29V37l-1.25,0v-.08c.25,0,.33,0,.33-.27l0-1.38c0-.26-.11-.28-.32-.29v-.08l1.19,0c.26,0,1,.05,1,.58,0,.37-.39.46-.59.51l.73.9a.23.23,0,0,0,.15.07ZM56.8,35.9c.49,0,.68-.06.69-.46s-.14-.46-.44-.46-.21,0-.23.12Z"/><path class="a" d="M60.84,37.31l-1.19-.15v-.07c.22,0,.29,0,.3-.08a1.44,1.44,0,0,0-.11-.43L59,36.47a1.52,1.52,0,0,0-.21.38c0,.11.16.15.29.17v.07L58.34,37v-.08c.2,0,.27-.1.41-.32l1-1.59h.1l.62,1.73c.12.35.17.46.35.48Zm-1-.86-.28-.8-.44.71Z"/><path class="a" d="M63,37.75l-2.1-.38v-.08c.21,0,.32,0,.35-.16l.27-1.48c0-.2-.11-.23-.27-.27V35.3l1.27.23v.08c-.26,0-.37-.06-.42.21l-.26,1.45c0,.15,0,.18.29.23a.92.92,0,0,0,1-.43l.11,0Z"/><path class="a" d="M64.39,38.07l-1.27-.27,0-.08c.2,0,.34.05.38-.14l.31-1.47c0-.21-.13-.24-.3-.29v-.07l1.27.26v.08c-.17,0-.35-.06-.39.14l-.3,1.47c0,.2.1.24.3.29Z"/><path class="a" d="M67,38.4l-1.2-.13V38.2c.23,0,.3,0,.3-.09a1.62,1.62,0,0,0-.12-.44l-.83-.08a1.72,1.72,0,0,0-.2.38c0,.12.16.15.29.16v.08l-.75-.08v-.07c.2,0,.26-.11.4-.33l1-1.6H66l.66,1.7c.13.36.17.47.35.48Zm-1-.85-.3-.79-.42.71Z"/><path class="a" d="M57.5,13.32c0-.75-.42,0-.65-.68-.17.54-.68.09-.68.66,0,.23.06.35.17.42v.22a.11.11,0,0,0,.1.11h.79a.1.1,0,0,0,.1-.11v-.23a.51.51,0,0,0,.17-.39m-.65.15c-.22,0-.51.15-.51-.11s.25-.28.47-.28.55-.09.55.28-.29.11-.51.11"/><path class="a" d="M64,22.48a.32.32,0,0,0,.34-.3.32.32,0,0,0-.34-.3.33.33,0,0,0-.34.3.32.32,0,0,0,.34.3"/><path class="a" d="M62.38,11.43a1.9,1.9,0,0,0-.16.32.17.17,0,1,0,.33,0l-.17-.32"/><path class="a" d="M51.42,11.43a1.9,1.9,0,0,0-.16.32.16.16,0,1,0,.32,0l-.16-.32"/><path class="a" d="M54.16,11.43a1.9,1.9,0,0,0-.16.32.17.17,0,0,0,.16.18.18.18,0,0,0,.17-.18l-.17-.32"/><path class="a" d="M56.9,11.43a1.9,1.9,0,0,0-.16.32.17.17,0,0,0,.16.18.18.18,0,0,0,.17-.18l-.17-.32"/><path class="a" d="M59.64,11.43a1.9,1.9,0,0,0-.16.32.17.17,0,1,0,.33,0l-.17-.32"/><path class="a" d="M51.42,15.19a1.9,1.9,0,0,1,.16.32.16.16,0,1,1-.32,0l.16-.32"/><path class="a" d="M51.42,18.85a1.9,1.9,0,0,1,.16.32.16.16,0,1,1-.32,0s.16-.32.16-.32"/><path class="a" d="M51.86,21.74a1.85,1.85,0,0,1,.17.32.18.18,0,0,1-.17.18.17.17,0,0,1-.16-.18l.16-.32"/><path class="a" d="M54.16,23.28a1.9,1.9,0,0,1,.16.32.17.17,0,0,1-.16.18A.18.18,0,0,1,54,23.6l.17-.32"/><path class="a" d="M62.52,15.19a1.9,1.9,0,0,0-.16.32.18.18,0,0,0,.17.18.17.17,0,0,0,.16-.18l-.17-.32"/><path class="a" d="M62.52,18.85a1.9,1.9,0,0,0-.16.32.18.18,0,0,0,.17.18.17.17,0,0,0,.16-.18s-.17-.32-.17-.32"/><path class="a" d="M62.08,21.74a1.9,1.9,0,0,0-.16.32.18.18,0,0,0,.17.18.17.17,0,0,0,.16-.18l-.17-.32"/><path class="a" d="M59.79,23.28a1.9,1.9,0,0,0-.16.32.16.16,0,1,0,.32,0l-.16-.32"/><path class="a" d="M57,24.91a1.9,1.9,0,0,0-.16.32.16.16,0,1,0,.32,0L57,24.91"/><path class="a" d="M61.45,19.46c0,.05.12.07.23,0l.1-.3a.23.23,0,0,0-.2-.12c-.29.07-.6.11-.77.39a.58.58,0,0,0,.28.45c.1,0,.12.07.18.12a.12.12,0,0,1-.12.16c-.2-.21-.56.06-.72-.2.07-.25.2-.55,0-.79,0-.06.11-.11.05-.16-.08-.25-.34-.05-.5-.05a.66.66,0,0,0-.62.31.56.56,0,0,0,.14.26c.07,0,.1,0,.12.07l-.17.11c0,.05,0,.12.07.19s-.24-.13-.29-.22,0-.38-.18-.41a.86.86,0,0,0-.15.05.51.51,0,0,0-.07.29,1.18,1.18,0,0,0,.07.31,3,3,0,0,1,.65.63c-.15.32-.15.75-.52.93-.1.06-.1.17-.1.27l.09.07c.22-.12.65-.16.62-.54a1.53,1.53,0,0,1,.33-.45.37.37,0,0,1,.39.19.66.66,0,0,1-.46.52s0,.09,0,.14.26.07.36.06c.3-.2.41-.54.67-.65,0,.18-.34.23-.1.4.16,0,.36,0,.47-.19-.12-.29.41-.43.09-.69,0-.26.27-.37.25-.65s-.43-.28-.51-.53a.36.36,0,0,1,.36,0"/><path class="a" d="M48.85,22.61a.3.3,0,1,0-.34-.29.32.32,0,0,0,.34.29"/><path class="a" d="M31.07,33a.33.33,0,1,0-.34-.33.33.33,0,0,0,.34.33"/><path class="a" d="M42.39,35.52h0l0,0h0v0h0v-.05h0l0,0s0,0,0,0l0,0Zm0,0s0,0,0,0h0Z"/><path class="a" d="M42.43,35.48l0,0h0l0,0s0,0,0,0h0v0h0l0,0s0,0,0,0h0s0,0,0,0,0,0,0,0h0v0Z"/><path class="a" d="M42.55,35.47h0l0,.05h0l0,0v0h0l0-.05h0v0h0v0l0,0h0Z"/><path class="a" d="M42.55,35.52s0,0,0,0h0s0,0,0,0a0,0,0,0,1,0,0s0,0,0,0,0,0,0,0m0,0h0v0h0v0Z"/><path class="a" d="M42.61,35.48h0s0,0,0,0h0a0,0,0,0,1,0,0h0a0,0,0,0,0,0,0h0v0h0v0Z"/><path class="a" d="M63.29,11H50.64v9.67a2.31,2.31,0,0,0,1,2.11l4.87,3.1a.58.58,0,0,0,.84,0l4.94-3.14a2.3,2.3,0,0,0,1-2.11V11Zm-.35,9.8a2.19,2.19,0,0,1-.82,1.68l-4.77,3h0a.59.59,0,0,1-.37.13.55.55,0,0,1-.37-.14l-4.76-3A2.19,2.19,0,0,1,51,20.79V11.33H62.94Z"/><path class="a" d="M58.67,25.08l.16-.07a.84.84,0,0,0-.16.07"/><path class="a" d="M49.13,38.3l-1.2.14v-.08c.23,0,.29,0,.28-.16a1.68,1.68,0,0,0-.22-.38l-.82.09a1.53,1.53,0,0,0-.12.42c0,.12.19.1.31.09l0,.08-.75.09v-.08c.19,0,.23-.16.32-.4l.62-1.79h.1l1,1.53c.2.31.27.41.45.38Zm-1.21-.6L47.47,37l-.27.79Z"/><path class="a" d="M70.09,33.77a2,2,0,0,0-1.25-1.14,1.58,1.58,0,0,0-1.57.41c-.65.53-.2,1.4-.18,2.12,0,.14,0,.25-.13.33-2.63-.24-5.08-.9-7.7-1.18-.6-.1-1.2-.07-1.77-.19L56.76,34a30.5,30.5,0,0,0-6.67.75c-.45.15-1,.18-1.41.35-.33-.06-.6.18-.91.09l-.6.14a.47.47,0,0,1-.2,0c-.29-.75.58-1.21.31-1.94A1.35,1.35,0,0,0,46,32.67a1.53,1.53,0,0,0-1.45.75c-.41.91.11,1.86.28,2.76,0,.3.29.62,0,.86a2.5,2.5,0,0,0-2.05-.42c-.22.11-.62,0-.73.22a5.17,5.17,0,0,0,2.65.33c.11,0,.18-.06.27,0,.08.47-.09,1.11.2,1.53a1.9,1.9,0,0,0,1.4.61,21.57,21.57,0,0,0,4.68-.94c.24,0,.42-.14.67-.14a12.93,12.93,0,0,1,2.58-.35,4.45,4.45,0,0,0-.76,1.65c-.22.49.38.56.56.84a12.89,12.89,0,0,0-1.48.76,22,22,0,0,0-3.23.53c0,.24.37.17.41.41s-.22.18-.34.27,0,.13.11.15.34,0,.45-.16c.36,0,.67-.12,1-.14a3.15,3.15,0,0,0,.92-.36c.38-.11.62-.37,1-.48.54,0,1-.18,1.54-.22v.11c-.41.68-.85,1.38-1.29,2a.21.21,0,0,0,.13.29.91.91,0,0,0,.71-.11c.38-.66.72-1.28,1-2a2.56,2.56,0,0,1,1-1.38c.07,0,.18-.15.25,0a9.33,9.33,0,0,0-.87,1.28A1.54,1.54,0,0,0,56,43c.22.19.55.14.84.15.71-.36,1.61.22,2.16-.47.32-.06.38.32.56.51s.64.4,1,.18c0-.2-.24-.38-.35-.56-.22-.39-.49-.7-.69-1.05a4,4,0,0,1-.29-.68,6.45,6.45,0,0,0,1,.39,6.5,6.5,0,0,1,1,.29,3.37,3.37,0,0,0,.91.69c.45.23,1,.26,1.44.45.18,0,.45.16.57,0a.68.68,0,0,0-.27-.2c-.06-.25.33-.12.46-.3a.27.27,0,0,0-.21-.14c-.26-.14-.91-.18-1.08-.28a3.93,3.93,0,0,1-.64-.2c-1.09,0-1.69-1-2.56-1.35.2-.18.51-.33.64-.61a1,1,0,0,0,0-1c-.16-.56-.89-.49-1.31-.8l.06-.06a7.79,7.79,0,0,1,2,.26c1.74.24,3.36.9,5.17.93,1,0,2.25.06,2.74-.91l.3-1.7c.22-.92.81-1.76.73-2.76M50.47,42.1l-.25-.23c.13-.17.4-.08.6-.19a3.34,3.34,0,0,1,1.54-.22,4.14,4.14,0,0,1-1.89.64m11.34-.29a7.68,7.68,0,0,0,1.94.46c-.06.25-.51,0-.45.37a4.31,4.31,0,0,1-1.63-.77.18.18,0,0,1,.14-.06M44.78,34a1.33,1.33,0,0,1,.43-.92,1.54,1.54,0,0,1,1.43.06.8.8,0,0,1,.3.35.84.84,0,0,1-.27.82h-.19a2,2,0,0,1,.11-.82c0-.22-.2-.24-.34-.33a1.09,1.09,0,0,0-.82.18.84.84,0,0,0-.24.81c.13.2,0,.48.09.69l-.05.08c-.22-.24-.51-.5-.45-.92m.85.52c.27.2.65.12,1,.17a.63.63,0,0,1-.1.62c-.3-.07-.7,0-.86-.33,0-.13-.06-.31,0-.46M45.57,34c.06-.15,0-.37.2-.4s.33,0,.35.1a3.28,3.28,0,0,1-.1.65c-.25,0-.37-.13-.45-.35m8.52,5.87a2,2,0,0,1,.58-1.65,1.05,1.05,0,0,1,.78,0c-.47.13-1.07.24-1.18.84,0,.24-.05.37,0,.57.2.35.66.2.91.47a.24.24,0,0,1-.16.22,6.4,6.4,0,0,1-1-.49m-.66,1.26c.44-.18.89-.56,1.38-.4a2.46,2.46,0,0,1-1.38.4m1.73.18A12.77,12.77,0,0,1,54.27,43c0,.09-.18.12-.29.13,0-.25.25-.45.36-.67a17,17,0,0,1,.93-1.51c.11.11-.11.19-.11.33m.45-1v.07h0v-.1h.08a.1.1,0,0,0-.08,0Zm-.16-.5a4.93,4.93,0,0,1-.88-.22c-.17-.18,0-.38,0-.58a.93.93,0,0,1,1.34-.24,2,2,0,0,1-.46,1m.4,0a3.12,3.12,0,0,1,.29-.77,1.58,1.58,0,0,1-.29.77m.2-1.48c-.23-.06-.37-.33-.62-.33a1.45,1.45,0,0,1,.69,0c.09.13-.06.24-.07.35m.22.55h0v-.2h0Zm0,.84a1,1,0,0,1,.06-.26c.09-.09.18.07.21.13a.26.26,0,0,1-.27.13m.27-1.13a2.31,2.31,0,0,1,.28-.68,1.06,1.06,0,0,1,.48.07c0,.37.5.86,0,1.17-.15.07-.39.24-.57.07a.51.51,0,0,1-.19-.63M57.88,38c0-.16.17,0,.23-.1l.57,0c-.29,0-.65.64-.8.07m.91.24c-.22.07-.38.33-.6.38a.73.73,0,0,1,.6-.38M58,39.4h0v0h0Zm0,1.06s0,.09,0,.13l-.42-.34a.44.44,0,0,1,.45.21m-.49-.57a.12.12,0,0,1,.16,0Zm-.26-.27c.08-.11.17-.27.3-.27l0,0a1,1,0,0,1-.34.22m-.41,0h-.07l.11-.11c.05,0,0,.08,0,.11m.05.7c.24-.26.46.14.55.34.27.41,1,.77.71,1.32-.35.31-.9,0-1.27.26-.2,0-.55,0-.66-.17A11.75,11.75,0,0,1,57,40.28m-.5.34.09-.14a8.55,8.55,0,0,1-.6,1.31c-.11-.43.34-.78.51-1.17m.8,2.18c-.35,0-.88.22-1.2-.07,0-.15-.14-.22-.12-.37.28-.11.54.24.81,0a6.74,6.74,0,0,1,1.27,0c.2.06.5-.33.54.06-.14.6-.87.18-1.3.36m1-2.69h0v0h0Zm.11,1.21c0,.19.2.25.09.42a.52.52,0,0,1-.09-.42m.51,1.09-.09.05c-.09-.08-.06-.28,0-.39.11.09.2.22.13.34m.91.45s-.11,0-.15,0a9.14,9.14,0,0,1-1.14-2.19l.07,0c.43.71.78,1.5,1.22,2.2m.67-1.68s0,0,0,.07a2.09,2.09,0,0,1-1.27-.57l0-.09a3.23,3.23,0,0,1,1.33.59M60,38.74c.22,0,.24.29.26.48a1,1,0,0,1-.62.89,1,1,0,0,1-.71.07A1.14,1.14,0,0,0,60,39.56Zm-.39-.07a1.21,1.21,0,0,1,.16.8c-.18.35-.55.35-.87.42a.57.57,0,0,1-.42-.13.22.22,0,0,0-.07-.18c0-.23-.42-.47-.09-.67s1-.9,1.29-.24m9.21-1.34c-.14.19,0,.48-.19.64,0,.33-.28.49-.51.62-2.16.48-4.28-.25-6.37-.62a22.13,22.13,0,0,0-9.31-.14,41.69,41.69,0,0,0-4.11,1,5.88,5.88,0,0,1-2.54,0c-.65-.32-.38-1.15-.58-1.74a10.33,10.33,0,0,0-.15-1.26A1.15,1.15,0,0,1,45,35.3c.27,0,.54.24.83.31a11.51,11.51,0,0,0,4.31-.45,30.22,30.22,0,0,1,4.19-.64,27.14,27.14,0,0,1,4.87.16c.51,0,.94.15,1.43.18,1,.13,2,.41,3,.48.16,0,.36,0,.54.09,1.63.26,3.47.72,5,0a12.27,12.27,0,0,1-.37,1.9m-.5-2.23c0,.29-.25.22-.4.33h-.43a.9.9,0,0,1-.06-.51,3.35,3.35,0,0,1,.89.18m-.2-.46c.2-.2,0-1.35.51-.6,0,.15,0,.37-.13.48s-.23.22-.38.12m1.47-.18a1,1,0,0,1-.78.62c0-.44.42-.75.27-1.24A1.09,1.09,0,0,0,68,33.47c-.16.11-.09.3-.15.46l-.07.6c-.36,0-.38-.32-.49-.58a1.06,1.06,0,0,1,.56-1,1.23,1.23,0,0,1,1.06,0c.23.05.51.16.59.38.28.26.2.71.15,1"/><rect class="a" x="128.51" width="0.58" height="57.53"/></svg>