<svg xmlns="http://www.w3.org/2000/svg" viewBox="0 0 135.35 42.08"><defs><style>.a{fill:#fff;}</style></defs><title>Asset 27</title><path class="a" d="M0,29.49H4.29a4,4,0,0,1,2.88,1,2.7,2.7,0,0,1,.77,1.9v0c0,1.71-1.27,2.69-3,2.92l3.37,4.37h-1L4.1,35.48H.76v4.24H0Zm4.21,5.3c1.7,0,3-.86,3-2.33v0c0-1.37-1.08-2.24-2.93-2.24H.76v4.6Z"/><path class="a" d="M9.52,36v0a3.68,3.68,0,0,1,3.53-3.89c2.09,0,3.42,1.7,3.42,3.9a2.62,2.62,0,0,1,0,.29H10.28a3,3,0,0,0,2.92,2.94,3.33,3.33,0,0,0,2.55-1.17l.5.44a3.91,3.91,0,0,1-3.08,1.4A3.7,3.7,0,0,1,9.52,36Zm6.18-.37c-.11-1.5-1-2.89-2.68-2.89a2.9,2.9,0,0,0-2.74,2.89Z"/><path class="a" d="M18.05,40.94l.42-.58a4.9,4.9,0,0,0,3,1,2.68,2.68,0,0,0,2.92-2.89V37.44a3.7,3.7,0,0,1-3.11,1.72,3.52,3.52,0,0,1-3.58-3.5v0a3.55,3.55,0,0,1,3.58-3.54,3.69,3.69,0,0,1,3.11,1.67V32.27h.71v6.29a3.49,3.49,0,0,1-.94,2.53,3.8,3.8,0,0,1-2.71,1A5.6,5.6,0,0,1,18.05,40.94Zm6.39-5.3v0a3,3,0,0,0-3.08-2.83,2.75,2.75,0,0,0-2.87,2.82v0a2.82,2.82,0,0,0,2.87,2.84A3,3,0,0,0,24.44,35.64Z"/><path class="a" d="M27.48,29.35h.89v1h-.89Zm.09,2.92h.71v7.45h-.71Z"/><path class="a" d="M30.09,38.78l.43-.57a4.33,4.33,0,0,0,2.67,1c1,0,1.8-.56,1.8-1.42v0c0-.87-.94-1.19-2-1.49-1.21-.35-2.55-.71-2.55-2v0a2.19,2.19,0,0,1,2.45-2.06,5,5,0,0,1,2.64.82l-.38.6a4.28,4.28,0,0,0-2.29-.75c-1,0-1.69.56-1.69,1.3v0c0,.83,1,1.14,2.07,1.45s2.46.77,2.46,2.09v0a2.31,2.31,0,0,1-2.57,2.17A5.12,5.12,0,0,1,30.09,38.78Z"/><path class="a" d="M38,37.8V32.92H36.94v-.65H38V29.89h.72v2.38h2.61v.65H38.74v4.81a1.3,1.3,0,0,0,1.49,1.44,2.47,2.47,0,0,0,1.09-.26v.67a2.66,2.66,0,0,1-1.21.27A1.91,1.91,0,0,1,38,37.8Z"/><path class="a" d="M43.1,32.27h.72v2.11a3.52,3.52,0,0,1,3.3-2.23v.79H47c-1.72,0-3.22,1.3-3.22,3.72v3.06H43.1Z"/><path class="a" d="M48,37.55v0c0-1.54,1.33-2.42,3.26-2.42a9,9,0,0,1,2.47.32V35.1a2.15,2.15,0,0,0-2.45-2.28,5,5,0,0,0-2.34.6l-.26-.63a6,6,0,0,1,2.64-.64,3.21,3.21,0,0,1,2.35.82,2.81,2.81,0,0,1,.76,2.1v4.65h-.7V38.47a3.38,3.38,0,0,1-2.85,1.42C49.45,39.89,48,39.1,48,37.55Zm5.74-.62v-.85a9.81,9.81,0,0,0-2.52-.34c-1.58,0-2.46.7-2.46,1.74v0c0,1.08,1,1.71,2.16,1.71A2.56,2.56,0,0,0,53.7,36.93Z"/><path class="a" d="M57,37.8V32.92H55.91v-.65H57V29.89h.71v2.38h2.62v.65H57.7v4.81a1.3,1.3,0,0,0,1.49,1.44,2.51,2.51,0,0,0,1.1-.26v.67a2.69,2.69,0,0,1-1.21.27A1.91,1.91,0,0,1,57,37.8Z"/><path class="a" d="M62.08,29.35H63v1h-.89Zm.09,2.92h.72v7.45h-.72Z"/><path class="a" d="M64.83,36v0a3.83,3.83,0,1,1,7.65,0v0a3.85,3.85,0,0,1-3.84,3.9A3.8,3.8,0,0,1,64.83,36Zm6.88,0v0a3.13,3.13,0,0,0-3.07-3.23,3.08,3.08,0,0,0-3,3.2v0a3.12,3.12,0,0,0,3.07,3.23A3.08,3.08,0,0,0,71.71,36Z"/><path class="a" d="M74.32,32.27H75v1.38a2.93,2.93,0,0,1,2.69-1.56,2.84,2.84,0,0,1,3,3.07v4.56H80V35.29a2.27,2.27,0,0,0-2.36-2.54A2.56,2.56,0,0,0,75,35.41v4.31h-.71Z"/><path class="a" d="M86.42,38.23l.5-.57a5,5,0,0,0,3.66,1.51c1.54,0,2.59-.86,2.59-2v0c0-1.08-.57-1.71-2.89-2.18s-3.45-1.33-3.45-2.88v0c0-1.51,1.39-2.68,3.29-2.68a5.1,5.1,0,0,1,3.5,1.24l-.48.6a4.37,4.37,0,0,0-3-1.16c-1.51,0-2.5.86-2.5,1.93v0c0,1.08.56,1.74,3,2.23s3.36,1.33,3.36,2.82v0c0,1.65-1.42,2.79-3.39,2.79A5.84,5.84,0,0,1,86.42,38.23Z"/><path class="a" d="M95.39,36v0a3.68,3.68,0,0,1,3.53-3.89c2.09,0,3.42,1.7,3.42,3.9a1.32,1.32,0,0,1,0,.29H96.15a3,3,0,0,0,2.92,2.94,3.33,3.33,0,0,0,2.55-1.17l.5.44A3.91,3.91,0,0,1,99,39.89,3.7,3.7,0,0,1,95.39,36Zm6.17-.37c-.1-1.5-1-2.89-2.67-2.89a2.9,2.9,0,0,0-2.74,2.89Z"/><path class="a" d="M104.06,32.27h.72v2.11a3.52,3.52,0,0,1,3.3-2.23v.79H108c-1.72,0-3.22,1.3-3.22,3.72v3.06h-.72Z"/><path class="a" d="M108.78,32.27h.83l2.82,6.64,2.84-6.64h.81l-3.35,7.5h-.61Z"/><path class="a" d="M117.68,29.35h.89v1h-.89Zm.09,2.92h.72v7.45h-.72Z"/><path class="a" d="M120.43,36v0a3.83,3.83,0,0,1,6.77-2.52l-.51.52a3.34,3.34,0,0,0-2.48-1.23,3.08,3.08,0,0,0-3,3.2v0a3.13,3.13,0,0,0,3.07,3.23A3.3,3.3,0,0,0,126.76,38l.5.44a3.82,3.82,0,0,1-6.83-2.4Z"/><path class="a" d="M128.4,36v0a3.68,3.68,0,0,1,3.53-3.89c2.09,0,3.42,1.7,3.42,3.9a1.32,1.32,0,0,1,0,.29h-6.17a3,3,0,0,0,2.92,2.94,3.33,3.33,0,0,0,2.55-1.17l.5.44a3.91,3.91,0,0,1-3.08,1.4A3.7,3.7,0,0,1,128.4,36Zm6.18-.37c-.11-1.5-1-2.89-2.68-2.89a2.9,2.9,0,0,0-2.74,2.89Z"/><path class="a" d="M8.22.71h9.23a7.42,7.42,0,0,1,5.38,1.82,4.61,4.61,0,0,1,1.38,3.41V6a4.9,4.9,0,0,1-2.94,4.58c2.41.82,4.08,2.2,4.08,5v.06c0,3.68-3,5.64-7.6,5.64H8.22ZM20.59,6.53c0-1.62-1.29-2.62-3.61-2.62h-5.2V9.38h4.93c2.33,0,3.88-.91,3.88-2.8Zm-3.08,5.9H11.78v5.64h6c2.46,0,4-1,4-2.82v-.06c0-1.73-1.38-2.76-4.23-2.76"/><path class="a" d="M28,15.63V5.76h3.56v8.82c0,2.41,1.2,3.76,3.32,3.76s3.49-1.41,3.49-3.82V5.76h3.59V21.27H38.34v-2.4A5.55,5.55,0,0,1,33.5,21.6c-3.5,0-5.53-2.35-5.53-6"/><path class="a" d="M44.22,19.25l1.59-2.41a8.82,8.82,0,0,0,5.08,1.91c1.53,0,2.41-.65,2.41-1.68V17c0-1.2-1.65-1.61-3.46-2.17-2.3-.65-4.85-1.59-4.85-4.55v-.06c0-2.94,2.44-4.73,5.52-4.73a10.71,10.71,0,0,1,5.7,1.76L54.8,9.78a9,9,0,0,0-4.38-1.46c-1.38,0-2.17.64-2.17,1.52v.07c0,1.14,1.67,1.61,3.5,2.2,2.26.7,4.81,1.73,4.81,4.52v.06c0,3.26-2.52,4.88-5.76,4.88a10.89,10.89,0,0,1-6.58-2.32"/><path class="a" d="M59.38,0h3.83V3.38H59.38Zm.15,5.76h3.56V21.27H59.53Z"/><path class="a" d="M66.85,5.76h3.56V8.14a5.61,5.61,0,0,1,4.84-2.7c3.5,0,5.52,2.35,5.52,5.93v9.9H77.22V12.46c0-2.41-1.2-3.79-3.32-3.79s-3.49,1.44-3.49,3.85v8.75H66.85Z"/><path class="a" d="M83.33,13.58v-.06c0-4.44,3.15-8.08,7.59-8.08,4.93,0,7.43,3.88,7.43,8.34,0,.33,0,.65-.06,1H86.89a4.33,4.33,0,0,0,4.47,3.94,5.65,5.65,0,0,0,4.2-1.85l2.09,1.85a7.86,7.86,0,0,1-6.35,2.91,7.74,7.74,0,0,1-8-8m11.5-1.15c-.24-2.29-1.59-4.08-3.94-4.08-2.18,0-3.7,1.67-4,4.08Z"/><path class="a" d="M99.79,19.25l1.59-2.41a8.77,8.77,0,0,0,5.08,1.91c1.53,0,2.41-.65,2.41-1.68V17c0-1.2-1.64-1.61-3.47-2.17-2.29-.65-4.84-1.59-4.84-4.55v-.06c0-2.94,2.43-4.73,5.52-4.73a10.74,10.74,0,0,1,5.7,1.76l-1.41,2.52A9,9,0,0,0,106,8.32c-1.38,0-2.17.64-2.17,1.52v.07c0,1.14,1.67,1.61,3.49,2.2,2.26.7,4.82,1.73,4.82,4.52v.06c0,3.26-2.53,4.88-5.76,4.88a10.89,10.89,0,0,1-6.58-2.32"/><path class="a" d="M113.63,19.25l1.59-2.41a8.8,8.8,0,0,0,5.08,1.91c1.53,0,2.41-.65,2.41-1.68V17c0-1.2-1.65-1.61-3.47-2.17-2.29-.65-4.85-1.59-4.85-4.55v-.06c0-2.94,2.45-4.73,5.53-4.73a10.71,10.71,0,0,1,5.7,1.76l-1.41,2.52a9,9,0,0,0-4.38-1.46c-1.38,0-2.17.64-2.17,1.52v.07c0,1.14,1.67,1.61,3.49,2.2,2.27.7,4.82,1.73,4.82,4.52v.06c0,3.26-2.53,4.88-5.75,4.88a10.89,10.89,0,0,1-6.59-2.32"/></svg>