<svg xmlns="http://www.w3.org/2000/svg" viewBox="0 0 31 31">
  <defs>
    <style>
      .a {
        fill: #254f90;
        stroke: #254f90;
        stroke-miterlimit: 10;
        stroke-width: 2px;
      }

      .b {
        fill: #fff;
      }

    </style>
  </defs>
  <title>tooltip-icon</title>
  <circle class="a" cx="15.49" cy="15.49" r="13.49" />
  <path class="b" d="M14.18,18.43v-.65a3.82,3.82,0,0,1,.41-1.88A5.39,5.39,0,0,1,16,14.35a8.06,8.06,0,0,0,1.58-1.49A2.31,2.31,0,0,0,18,11.58a1.61,1.61,0,0,0-.57-1.32,2.59,2.59,0,0,0-1.65-.46,5.54,5.54,0,0,0-1.81.28,12.51,12.51,0,0,0-1.62.66l-.86-1.8A9,9,0,0,1,15.9,7.78a4.86,4.86,0,0,1,3.19,1,3.36,3.36,0,0,1,1.18,2.72A3.86,3.86,0,0,1,20,12.85,3.91,3.91,0,0,1,19.36,14a11.09,11.09,0,0,1-1.57,1.41,6.06,6.06,0,0,0-1.28,1.24A2.35,2.35,0,0,0,16.19,18v.46Zm-.42,3.28c0-1,.5-1.55,1.5-1.55a1.48,1.48,0,0,1,1.13.4,1.59,1.59,0,0,1,.39,1.15,1.64,1.64,0,0,1-.39,1.15,1.49,1.49,0,0,1-1.13.42,1.43,1.43,0,0,1-1.11-.41A1.63,1.63,0,0,1,13.76,21.71Z"
  />
</svg>
