<svg xmlns="http://www.w3.org/2000/svg" width="9.84" height="10.4" viewBox="0 0 9.84 10.4">
<def>
<style>
  .smallArrow {
    fill: #0056b3;
  }
</style>
</def>                                                                                            
  <path id="arrow-right-hover" data-name="arrow-right-hover" class="smallArrow" d="M2697.61,2279.54l-4.36-4.36a0.857,0.857,0,0,0-1.21,0l-0.5.5a0.816,0.816,0,0,0-.26.61,0.794,0.794,0,0,0,.26.6l1.96,1.97h-4.72a0.689,0.689,0,0,0-.56.25,0.873,0.873,0,0,0-.22.6v0.86a0.881,0.881,0,0,0,.22.61,0.72,0.72,0,0,0,.56.25h4.72l-1.96,1.96a0.846,0.846,0,0,0,0,1.22l0.5,0.5a0.816,0.816,0,0,0,.6.25,0.838,0.838,0,0,0,.61-0.25l4.36-4.36a0.845,0.845,0,0,0,.25-0.61,0.822,0.822,0,0,0-.25-0.6h0Z" transform="translate(-2688 -2274.94)"/>
</svg>
